<svg width="11" height="19" xmlns="http://www.w3.org/2000/svg"><path d="M2.9 18.992l.365-2.676c-1.176-.08-2.292-.304-3.062-.648L0 12.06h1.724l.77 2.676c.284.141.629.243.994.304l.588-4.48-.629-.263C1.297 9.405.122 8.047.122 5.919c0-2.412 1.44-4.297 5.07-4.358L5.393 0h1.359l-.224 1.601a10.19 10.19 0 0 1 2.657.548l.203 3.445H7.766l-.73-2.493a2.784 2.784 0 0 0-.77-.203l-.527 4.075.608.243c2.291.932 3.873 1.925 3.873 4.5 0 2.979-2.109 4.661-5.637 4.661l-.345 2.615H2.9zm.243-14.31c0 .912.406 1.378 1.46 1.845l.487-3.69c-1.278.082-1.947.77-1.947 1.845zm3.812 8.412c0-1.095-.547-1.54-1.764-2.047L4.664 15.1c1.52-.101 2.291-.85 2.291-2.006z"/><path d="M-14-12h38v42h-38z" fill="none"/></svg>