<svg width="291" height="56" viewBox="0 0 291 56" xmlns="http://www.w3.org/2000/svg">
 <path d="m268 48 1.4-0.34 0.24-11-1.5-0.62 9e-3 -0.42 5.4-0.67 0.54 0.061-0.038 1.8 0.15 0.0032c0.59-0.58 1.2-1 1.9-1.3 0.68-0.33 1.5-0.49 2.3-0.47 0.77 0.016 1.4 0.18 1.9 0.48 0.49 0.29 0.85 0.79 1.1 1.5l0.098 0.0021c0.62-0.59 1.3-1 2-1.4 0.71-0.33 1.5-0.48 2.4-0.47 1.1 0.024 1.9 0.34 2.5 0.94 0.58 0.59 0.85 1.5 0.83 2.7l-0.2 9.4 1.4 0.4-9e-3 0.42-6.9-0.15 9e-3 -0.42 1.1-0.34 0.2-9.3c0.013-0.61-0.12-1-0.39-1.3-0.27-0.28-0.69-0.43-1.2-0.44-0.26-0.0056-0.53 0.03-0.81 0.11-0.26 0.076-0.5 0.17-0.72 0.28l-0.23 11 1.1 0.39-9e-3 0.42-6.5-0.14 9e-3 -0.42 1.1-0.34 0.2-9.3c0.013-0.61-0.11-1-0.36-1.3-0.26-0.28-0.67-0.43-1.2-0.44-0.31-0.0067-0.6 0.036-0.86 0.13-0.25 0.077-0.48 0.17-0.69 0.28l-0.23 11 1.1 0.39-9e-3 0.42-7-0.15 8e-3 -0.42z" fill="#fff"/>
 <path d="m263 41c1.2 0.62 2.2 1.3 2.8 1.9 0.64 0.67 0.95 1.6 0.92 2.8-0.03 1.4-0.53 2.5-1.5 3.2-0.97 0.77-2.3 1.1-4.1 1.1-0.8-0.017-1.6-0.092-2.4-0.22-0.8-0.12-1.5-0.3-2.2-0.56l-0.062-4 0.42 9e-3 3.4 4.2c0.11 0.035 0.24 0.071 0.37 0.11 0.13 0.019 0.25 0.03 0.37 0.032 0.75 0.016 1.3-0.16 1.7-0.53 0.37-0.37 0.56-0.86 0.57-1.5 0.012-0.56-0.14-0.99-0.46-1.3-0.32-0.3-0.86-0.64-1.6-1l-0.8-0.39c-1.2-0.6-2.2-1.3-2.8-2-0.66-0.7-0.97-1.6-0.95-2.7 0.029-1.4 0.51-2.4 1.4-3.2s2.2-1.1 3.9-1.1c0.67 0.014 1.4 0.062 2.1 0.14s1.3 0.21 1.9 0.38l0.043 3.7-0.42-9e-3 -2.6-3.6c-0.15-0.052-0.29-0.088-0.44-0.11-0.15-0.036-0.29-0.055-0.42-0.058-0.66-0.014-1.1 0.15-1.5 0.48s-0.48 0.78-0.5 1.3c-0.013 0.61 0.14 1.1 0.46 1.4 0.32 0.3 0.89 0.65 1.7 1l0.76 0.36z" fill="#fff"/>
 <path d="m253 28c0.64 0.014 1.2 0.25 1.7 0.7 0.47 0.45 0.69 1 0.68 1.7s-0.26 1.2-0.75 1.6c-0.48 0.42-1 0.62-1.7 0.6-0.66-0.014-1.2-0.24-1.7-0.67-0.45-0.45-0.67-1-0.65-1.7 0.014-0.66 0.26-1.2 0.72-1.6 0.47-0.43 1-0.64 1.7-0.63zm-3.8 6.2 5.4-0.67 0.61 0.062-0.28 13 1.4 0.42-9e-3 0.42-7.3-0.16 9e-3 -0.42 1.4-0.36 0.24-11-1.5-0.62 9e-3 -0.42z" fill="#fff"/>
 <path d="m242 29 5.5-0.31 0.53 0.12-1.6 18 1.4 0.51-0.036 0.42-7.3-0.63 0.036-0.42 1.4-0.27 1.5-17-1.4-0.69 0.036-0.42z" fill="#fff"/>
 <path d="m231 40 3-0.5 0.038-1.8c0.029-1.4-0.11-2.3-0.43-2.8-0.3-0.53-0.83-0.8-1.6-0.82-0.082-0.0017-0.16 0.0047-0.25 0.019-0.082-0.0017-0.16 0.0047-0.25 0.019l-3.4 4.4-0.42-9e-3 0.19-4.2c0.64-0.18 1.4-0.36 2.2-0.52 0.82-0.16 1.8-0.23 2.8-0.21 1.8 0.039 3.2 0.36 4.2 0.98 1 0.61 1.5 1.7 1.5 3.2l-0.19 8.7 1.3 0.37-7e-3 0.34c-0.27 0.16-0.65 0.29-1.1 0.39-0.48 0.12-1 0.18-1.6 0.16-0.88-0.019-1.6-0.17-2-0.46s-0.8-0.68-0.98-1.2l-0.12-0.0027c-0.39 0.5-0.87 0.89-1.5 1.2-0.58 0.27-1.3 0.39-2.1 0.37-1.1-0.023-2-0.36-2.6-1-0.66-0.67-0.98-1.6-0.95-2.7 0.025-1.1 0.4-2 1.1-2.6 0.72-0.64 1.8-1.1 3.2-1.3zm1.7 6c0.28 6e-3 0.51-0.03 0.69-0.11 0.18-0.078 0.33-0.19 0.45-0.33l0.12-5.4-0.91 0.054c-0.71 0.05-1.2 0.32-1.5 0.8-0.3 0.47-0.47 1.2-0.49 2.2-0.023 1.1 0.12 1.8 0.42 2.2 0.32 0.38 0.73 0.58 1.2 0.59z" fill="#fff"/>
 <path d="m211 49 1.4-0.4-0.045-11-1.5-0.58-2e-3 -0.42 5.4-0.81 0.54 0.047 7e-3 1.7 0.15-6e-4c0.57-0.59 1.3-1 2.1-1.4 0.82-0.33 1.6-0.5 2.5-0.5 1.2-0.0047 2 0.28 2.6 0.85 0.54 0.57 0.82 1.5 0.82 2.7l0.038 9.4 1.4 0.39 2e-3 0.42-7.1 0.029-1e-3 -0.42 1.3-0.32-0.037-9.2c-3e-3 -0.66-0.15-1.1-0.45-1.4-0.3-0.31-0.73-0.46-1.3-0.46-0.36 0.0014-0.69 0.044-0.98 0.13-0.28 0.083-0.55 0.19-0.81 0.32l0.043 11 1.2 0.31 1e-3 0.42-7.1 0.029-2e-3 -0.42z" fill="#fff"/>
 <path d="m200 35 5.4-0.81 0.44 0.047 0.016 3.8 0.12-5e-4c0.34-1.5 0.78-2.5 1.3-3.1 0.57-0.63 1.2-0.94 2-0.94 0.11-5e-4 0.24 0.0072 0.37 0.023 0.13 0.016 0.23 0.04 0.3 0.073l0.016 4.1c-0.12-0.032-0.28-0.056-0.49-0.072-0.2-0.016-0.4-0.023-0.62-0.022-0.61 0.0024-1.1 0.037-1.6 0.1-0.48 0.068-0.91 0.18-1.3 0.35l0.034 8.6 1.8 0.36 2e-3 0.42-7.7 0.031-1e-3 -0.42 1.4-0.37-0.045-11-1.5-0.58-1e-3 -0.42z" fill="#fff"/>
 <path d="m186 36-1.4-0.67 0.024-0.42 5.4-0.47 0.59 0.083-0.59 10c-0.044 0.75 0.074 1.3 0.35 1.5 0.3 0.28 0.71 0.44 1.3 0.47 0.31 0.018 0.6 0.0019 0.86-0.048 0.28-0.066 0.56-0.15 0.83-0.25l0.58-9.9-1.4-0.67 0.024-0.42 5.4-0.47 0.54 0.08-0.7 12 1.4 0.67-0.024 0.42-5.4 0.53-0.54-0.08 0.1-1.7-0.15-0.0086c-0.54 0.48-1.2 0.88-1.8 1.2-0.69 0.3-1.5 0.43-2.3 0.38-1.3-0.074-2.2-0.48-2.8-1.2-0.56-0.74-0.81-1.7-0.75-2.8l0.49-8.4z" fill="#fff"/>
 <path d="m177 48c-1 0.0041-2-0.16-2.8-0.48-0.85-0.34-1.6-0.81-2.2-1.4-0.61-0.62-1.1-1.4-1.4-2.3-0.33-0.9-0.5-1.9-0.5-3-4e-3 -1.1 0.16-2.1 0.48-2.9 0.32-0.87 0.79-1.6 1.4-2.2 0.6-0.61 1.3-1.1 2.2-1.4 0.85-0.33 1.8-0.5 2.8-0.5 1-0.0042 2 0.16 2.8 0.48 0.85 0.32 1.6 0.79 2.2 1.4 0.61 0.59 1.1 1.3 1.4 2.2 0.35 0.87 0.52 1.8 0.53 2.9 5e-3 1.1-0.16 2.1-0.48 3-0.32 0.89-0.79 1.6-1.4 2.3-0.6 0.61-1.3 1.1-2.2 1.4-0.85 0.33-1.8 0.5-2.8 0.5zm-0.055-14c-0.34 0.0014-0.65 0.1-0.91 0.3-0.24 0.18-0.46 0.52-0.64 1-0.16 0.49-0.29 1.2-0.38 2-0.078 0.85-0.12 1.9-0.11 3.2 6e-3 1.3 0.051 2.4 0.14 3.3 0.1 0.85 0.24 1.5 0.4 2 0.18 0.51 0.4 0.86 0.67 1.1s0.57 0.29 0.91 0.29 0.64-0.1 0.88-0.3c0.26-0.21 0.47-0.57 0.64-1.1 0.16-0.51 0.28-1.2 0.36-2.1 0.095-0.87 0.14-2 0.13-3.3-5e-3 -1.3-0.05-2.4-0.14-3.2-0.085-0.85-0.22-1.5-0.4-2-0.17-0.49-0.38-0.83-0.64-1-0.26-0.2-0.57-0.29-0.91-0.29z" fill="#fff"/>
 <path d="m166 27c0.64-0.0026 1.2 0.22 1.7 0.66s0.72 0.99 0.72 1.6c2e-3 0.66-0.23 1.2-0.71 1.6-0.47 0.43-1 0.64-1.7 0.65-0.66 0.0027-1.2-0.21-1.7-0.63-0.46-0.44-0.69-0.99-0.7-1.6-3e-3 -0.66 0.22-1.2 0.68-1.6 0.46-0.44 1-0.67 1.7-0.67zm-2.1 7.3-1.5-0.58-1e-3 -0.42 5.4-0.81 0.62 0.047 0.055 14c7e-3 1.7-0.45 3.1-1.4 4-0.9 0.99-2.3 1.5-4.1 1.5-0.43 0.0018-0.89-0.029-1.4-0.093-0.51-0.047-0.94-0.13-1.3-0.24l-0.088-3.5 0.42-0.0017 2 3.4c0.41-0.018 0.74-0.22 1-0.62 0.26-0.38 0.39-1 0.38-1.9l-0.058-14z" fill="#fff"/>
 <path d="m145 35-1.9-0.2 0.047-0.44 2-0.28 0.28-2.6 4.5-0.23-0.36 3.3 3 0.32-0.099 0.93-3-0.32-0.95 8.9c-0.073 0.68 4e-3 1.2 0.23 1.5 0.23 0.32 0.71 0.52 1.4 0.6 0.23 0.024 0.45 0.04 0.66 0.046 0.23-0.0082 0.42-0.021 0.57-0.038l-0.044 0.42c-0.44 0.37-1 0.68-1.7 0.96-0.67 0.26-1.4 0.34-2.2 0.26-1.3-0.14-2.2-0.56-2.8-1.3-0.57-0.7-0.78-1.8-0.62-3.2l0.93-8.7z" fill="#fff"/>
 <path d="m128 49 1.4-0.41-0.16-11-1.5-0.57-6e-3 -0.42 5.3-0.86 0.54 0.041 0.025 1.7 0.15-0.0022c0.56-0.6 1.3-1.1 2.1-1.4 0.82-0.34 1.6-0.52 2.5-0.53 1.2-0.017 2 0.26 2.6 0.82 0.55 0.57 0.83 1.5 0.85 2.7l0.14 9.4 1.4 0.37 6e-3 0.42-7.1 0.1-7e-3 -0.42 1.2-0.34-0.14-9.2c-9e-3 -0.66-0.16-1.1-0.46-1.4-0.3-0.31-0.74-0.46-1.3-0.45-0.36 0.0053-0.69 0.051-0.98 0.14-0.28 0.086-0.55 0.2-0.81 0.33l0.16 11 1.2 0.3 7e-3 0.42-7.1 0.1-6e-3 -0.42z" fill="#fff"/>
 <path d="m127 41-8.1 0.12c0.11 1.7 0.49 3 1.2 3.9 0.69 0.94 1.9 1.4 3.6 1.4 0.56-0.0081 1.1-0.057 1.6-0.15 0.49-0.089 0.96-0.24 1.4-0.44l6e-3 0.39c-0.37 0.58-1 1.1-1.9 1.7-0.91 0.51-2 0.77-3.4 0.79-2.3 0.033-4-0.58-5.2-1.8-1.2-1.3-1.8-3-1.8-5.2-0.031-2.1 0.54-3.9 1.7-5.1 1.2-1.3 2.8-1.9 4.9-2 2.1-0.03 3.6 0.49 4.5 1.6 0.95 1.1 1.4 2.6 1.5 4.6l5e-3 0.34zm-6.1-6c-0.64 0.0094-1.1 0.47-1.5 1.4-0.35 0.91-0.51 2.3-0.48 4.3l3.8-0.23c-0.031-2.1-0.2-3.5-0.5-4.3-0.29-0.77-0.73-1.1-1.3-1.1z" fill="#fff"/>
 <path d="m105 34c0.54-0.0079 1 0.026 1.4 0.1 0.39 0.076 0.7 0.17 0.91 0.28l-0.064-4.4-1.5-0.49-6e-3 -0.42 5.4-0.87 0.52 0.066 0.27 18 1.5 0.45 6e-3 0.42-5.5 0.69-0.42-0.043-0.022-1.5-0.12 0.0018c-0.39 0.43-0.85 0.82-1.4 1.2-0.54 0.34-1.2 0.51-2 0.52-1.5 0.021-2.7-0.53-3.7-1.6-0.97-1.1-1.5-2.8-1.5-5.1-0.035-2.4 0.51-4.2 1.6-5.5 1.1-1.2 2.6-1.9 4.5-1.9zm1.2 12c0.26-0.0038 0.5-0.032 0.71-0.084 0.23-0.069 0.41-0.15 0.54-0.23l-0.16-11c-0.16-0.08-0.36-0.15-0.59-0.21-0.23-0.062-0.52-0.091-0.86-0.086-0.72 0.011-1.3 0.49-1.7 1.4-0.41 0.94-0.6 2.5-0.57 4.7 0.029 2 0.26 3.3 0.7 4.2 0.46 0.83 1.1 1.2 2 1.2z" fill="#fff"/>
 <path d="m83 49 1.4-0.47-0.6-11-1.5-0.51-0.022-0.42 5.3-1.1 0.54 0.02 0.093 1.7 0.15-0.0079c0.54-0.62 1.2-1.1 2-1.5 0.8-0.37 1.6-0.58 2.5-0.62 1.2-0.063 2 0.18 2.6 0.72 0.57 0.54 0.89 1.4 0.96 2.7l0.51 9.4 1.4 0.32 0.022 0.42-7.1 0.38-0.022-0.42 1.2-0.39-0.5-9.2c-0.035-0.65-0.21-1.1-0.52-1.4-0.31-0.3-0.75-0.43-1.3-0.4-0.36 0.019-0.69 0.078-0.98 0.18-0.27 0.097-0.54 0.22-0.79 0.36l0.58 11 1.2 0.25 0.022 0.42-7.1 0.38-0.022-0.42z" fill="#fff"/>
 <path d="m82 42-8.1 0.12c0.11 1.7 0.49 3 1.2 3.9 0.69 0.94 1.9 1.4 3.6 1.4 0.56-0.0081 1.1-0.057 1.6-0.15 0.49-0.089 0.96-0.24 1.4-0.44l0.0058 0.39c-0.37 0.58-1 1.1-1.9 1.7-0.91 0.51-2 0.77-3.4 0.79-2.3 0.033-4-0.58-5.2-1.8-1.2-1.3-1.8-3-1.8-5.2-0.031-2.1 0.54-3.9 1.7-5.1 1.2-1.3 2.8-1.9 4.9-2 2.1-0.03 3.6 0.49 4.5 1.6 0.95 1.1 1.4 2.6 1.5 4.6l0.0051 0.34zm-6.1-6c-0.64 0.0094-1.1 0.47-1.5 1.4-0.35 0.91-0.51 2.3-0.48 4.3l3.8-0.23c-0.031-2.1-0.2-3.5-0.5-4.3-0.29-0.77-0.73-1.1-1.3-1.1z" fill="#fff"/>
 <path d="m68 43c-0.039 1.3-0.24 2.4-0.62 3.4-0.36 0.94-0.83 1.7-1.4 2.3-0.59 0.57-1.3 0.99-2.1 1.2-0.76 0.26-1.6 0.37-2.4 0.35-0.51-0.015-0.97-0.062-1.4-0.14-0.39-0.077-0.68-0.15-0.88-0.22l-0.13 4.5 1.6 0.39-0.012 0.42-7.5-0.22 0.012-0.42 1.4-0.3 0.49-16-1.5-0.63 0.012-0.42 5.5-0.62 0.51 0.064-0.046 1.5 0.15 0.0044c0.36-0.4 0.86-0.76 1.5-1.1 0.65-0.34 1.4-0.5 2.3-0.47 0.64 0.019 1.2 0.16 1.8 0.42 0.57 0.25 1 0.64 1.4 1.2 0.41 0.54 0.72 1.2 0.92 2.1 0.22 0.86 0.31 1.9 0.28 3.1zm-4.7 0.35c0.061-2-0.11-3.4-0.51-4.2-0.4-0.75-0.98-1.1-1.7-1.2-0.28-0.0083-0.54 0.017-0.79 0.075-0.25 0.042-0.46 0.093-0.64 0.15l-0.32 11c0.16 0.12 0.35 0.23 0.56 0.34 0.21 0.1 0.47 0.16 0.78 0.17 0.77 0.023 1.4-0.43 1.9-1.3 0.47-0.92 0.74-2.6 0.81-4.9z" fill="#fff"/>
 <path d="m53 42-8.1 0.12c0.11 1.7 0.49 3 1.2 3.9 0.69 0.94 1.9 1.4 3.6 1.4 0.56-0.0081 1.1-0.057 1.6-0.15s0.96-0.24 1.4-0.44l0.0058 0.39c-0.37 0.58-1 1.1-1.9 1.7-0.91 0.5-2 0.77-3.4 0.79-2.3 0.033-4-0.58-5.2-1.8-1.2-1.3-1.8-3-1.8-5.2-0.031-2.1 0.54-3.9 1.7-5.1 1.2-1.3 2.8-1.9 4.9-2 2.1-0.03 3.6 0.49 4.5 1.6 0.95 1.1 1.4 2.6 1.5 4.6l5e-3 0.34zm-6.1-6c-0.64 0.0094-1.1 0.47-1.5 1.4-0.35 0.91-0.51 2.3-0.48 4.3l3.8-0.23c-0.031-2.1-0.2-3.5-0.5-4.3-0.29-0.77-0.73-1.1-1.3-1.1z" fill="#fff"/>
 <path d="m31 37c0.54-0.0079 1 0.026 1.4 0.1s0.7 0.17 0.91 0.28l-0.064-4.4-1.5-0.49-0.0061-0.42 5.4-0.87 0.52 0.066 0.27 18 1.5 0.45 0.0061 0.42-5.5 0.69-0.42-0.043-0.022-1.5-0.12 0.0018c-0.39 0.43-0.85 0.82-1.4 1.2s-1.2 0.51-2 0.52c-1.5 0.021-2.7-0.53-3.7-1.6-0.97-1.1-1.5-2.8-1.5-5.1-0.035-2.4 0.51-4.2 1.6-5.5 1.1-1.2 2.6-1.9 4.5-1.9zm1.2 12c0.26-0.0039 0.5-0.032 0.71-0.084 0.23-0.069 0.41-0.15 0.54-0.23l-0.16-11c-0.17-0.08-0.36-0.15-0.59-0.21s-0.52-0.091-0.86-0.086c-0.72 0.01-1.3 0.49-1.7 1.4-0.41 0.94-0.6 2.5-0.57 4.7 0.028 2 0.26 3.3 0.7 4.2 0.45 0.83 1.1 1.2 2 1.2z" fill="#fff"/>
 <path d="m9.1 50 1.4-0.41-0.16-11-1.5-0.57-0.0061-0.42 5.3-0.86 0.54 0.041 0.025 1.7 0.15-0.0021c0.56-0.6 1.3-1.1 2.1-1.4 0.81-0.34 1.6-0.52 2.5-0.53 1.2-0.017 2 0.26 2.6 0.82 0.55 0.57 0.83 1.5 0.85 2.7l0.14 9.4 1.4 0.37 0.0061 0.42-7.1 0.1-0.0061-0.42 1.2-0.34-0.14-9.2c-0.0096-0.66-0.16-1.1-0.46-1.4-0.3-0.31-0.74-0.46-1.3-0.45-0.36 0.0053-0.69 0.051-0.98 0.14-0.28 0.086-0.55 0.2-0.81 0.33l0.16 11 1.2 0.3 0.0061 0.42-7.1 0.1-0.0061-0.42z" fill="#fff"/>
 <path d="m4.3 29c0.64-0.0094 1.2 0.2 1.7 0.64s0.73 0.98 0.74 1.6c0.0096 0.66-0.22 1.2-0.69 1.7-0.47 0.43-1 0.65-1.7 0.66-0.66 0.0096-1.2-0.2-1.7-0.61-0.47-0.44-0.7-0.98-0.71-1.6s0.21-1.2 0.66-1.7c0.45-0.45 1-0.68 1.7-0.69zm-3.5 6.3 5.4-0.87 0.62 0.04 0.19 13 1.4 0.37 0.0061 0.42-7.3 0.11-0.0061-0.42 1.4-0.41-0.16-11-1.5-0.57-0.0061-0.42z" fill="#fff"/>
 <path d="m190 23c0.38-0.15 0.71-0.42 0.98-0.81 0.27-0.39 0.48-0.88 0.64-1.5 0.18-0.59 0.32-1.2 0.41-2 0.097-0.73 0.17-1.5 0.21-2.3l4.2 0.56c-0.2 2-0.87 3.6-2 4.6-1.1 1-2.6 1.6-4.4 1.8l-0.13-0.36z" fill="#fff"/>
 <path d="m186 12c1.2 0.6 2.1 1.2 2.7 1.9s0.92 1.6 0.92 2.9c0 1.4-0.44 2.5-1.3 3.3-0.89 0.8-2.2 1.2-3.8 1.2-0.75 0-1.5-0.058-2.2-0.18-0.75-0.1-1.4-0.27-2-0.52l-0.14-4h0.39l3.3 4.2c0.11 0.033 0.22 0.067 0.34 0.1 0.12 0.017 0.24 0.025 0.34 0.025 0.7 0 1.2-0.19 1.5-0.58 0.34-0.38 0.5-0.89 0.5-1.5 0-0.57-0.15-1-0.46-1.3s-0.82-0.63-1.5-1l-0.76-0.38c-1.1-0.58-2-1.2-2.7-1.9-0.63-0.7-0.94-1.6-0.94-2.8 0-1.4 0.43-2.5 1.3-3.3 0.86-0.78 2-1.2 3.6-1.2 0.63 0 1.3 0.033 1.9 0.1s1.2 0.18 1.8 0.35l0.12 3.8h-0.39l-2.5-3.6c-0.14-0.05-0.28-0.083-0.41-0.1-0.14-0.033-0.27-0.05-0.39-0.05-0.61 0-1.1 0.17-1.4 0.52-0.29 0.35-0.44 0.81-0.44 1.4 0 0.62 0.15 1.1 0.46 1.4 0.3 0.3 0.84 0.64 1.6 1l0.71 0.35z" fill="#fff"/>
 <path d="m175 12c1.2 0.6 2.1 1.2 2.7 1.9s0.92 1.6 0.92 2.9c0 1.4-0.44 2.5-1.3 3.3-0.89 0.8-2.2 1.2-3.8 1.2-0.75 0-1.5-0.058-2.2-0.18-0.75-0.1-1.4-0.27-2-0.52l-0.14-4h0.39l3.3 4.2c0.11 0.033 0.22 0.067 0.34 0.1 0.12 0.017 0.24 0.025 0.34 0.025 0.7 0 1.2-0.19 1.5-0.58 0.34-0.38 0.5-0.89 0.5-1.5 0-0.57-0.15-1-0.46-1.3s-0.82-0.63-1.5-1l-0.76-0.38c-1.1-0.58-2-1.2-2.7-1.9-0.63-0.7-0.94-1.6-0.94-2.8 0-1.4 0.43-2.5 1.3-3.3 0.86-0.78 2-1.2 3.6-1.2 0.63 0 1.3 0.033 1.9 0.1s1.2 0.18 1.8 0.35l0.12 3.8h-0.39l-2.5-3.6c-0.14-0.05-0.28-0.083-0.41-0.1-0.14-0.033-0.27-0.05-0.39-0.05-0.61 0-1.1 0.17-1.4 0.52-0.29 0.35-0.44 0.81-0.44 1.4 0 0.62 0.15 1.1 0.46 1.4 0.3 0.3 0.84 0.64 1.6 1l0.71 0.35z" fill="#fff"/>
 <path d="m167 15h-8c0.082 1.7 0.45 3 1.1 4 0.66 0.97 1.8 1.4 3.5 1.4 0.55 0 1.1-0.042 1.6-0.12 0.49-0.083 0.96-0.22 1.4-0.42v0.4c-0.37 0.58-1 1.1-1.9 1.6-0.91 0.5-2 0.75-3.3 0.75-2.2 0-3.9-0.65-5.1-1.9-1.2-1.3-1.7-3.1-1.7-5.3 0-2.2 0.59-3.9 1.8-5.2 1.2-1.3 2.8-1.9 4.8-1.9 2 0 3.5 0.55 4.5 1.6 0.92 1.1 1.4 2.6 1.4 4.7v0.35zm-5.9-6.2c-0.63 0-1.1 0.46-1.5 1.4-0.36 0.92-0.54 2.4-0.54 4.3l3.8-0.17c0-2.1-0.15-3.6-0.44-4.3-0.28-0.78-0.71-1.2-1.3-1.2z" fill="#fff"/>
 <path d="m147 1.7 5.7-0.78 0.56 0.073v18l1.5 0.39v0.41h-7.6v-0.41l1.5-0.39v-17l-1.6-0.56v-0.41z" fill="#fff"/>
 <path d="m136 8.2 5.5-0.54 0.44 0.069-0.18 3.8 0.12 0.0057c0.41-1.4 0.91-2.5 1.5-3 0.6-0.6 1.3-0.88 2-0.84 0.11 0.0053 0.24 0.019 0.37 0.042s0.23 0.051 0.29 0.087l-0.19 4.1c-0.11-0.038-0.28-0.07-0.49-0.096-0.2-0.025-0.4-0.043-0.61-0.053-0.61-0.028-1.1-0.02-1.6 0.024-0.48 0.044-0.92 0.14-1.3 0.28l-0.4 8.6 1.8 0.45-0.019 0.42-7.7-0.36 0.019-0.42 1.4-0.3 0.51-11-1.4-0.66 0.02-0.42z" fill="#fff"/>
 <path d="m127 13 3-0.43 0.083-1.8c0.062-1.4-0.058-2.3-0.36-2.8-0.29-0.54-0.81-0.82-1.6-0.86-0.082-0.0038-0.16 6.4e-4 -0.25 0.013-0.082-0.0038-0.16 6.4e-4 -0.25 0.013l-3.5 4.3-0.42-0.019 0.29-4.2c0.65-0.17 1.4-0.32 2.2-0.46 0.83-0.14 1.8-0.19 2.8-0.14 1.8 0.083 3.2 0.44 4.2 1.1s1.4 1.7 1.4 3.2l-0.4 8.7 1.3 0.4-0.016 0.34c-0.27 0.15-0.65 0.27-1.1 0.37-0.48 0.11-1 0.15-1.6 0.13-0.88-0.041-1.6-0.21-2-0.51s-0.78-0.7-0.95-1.2l-0.12-0.0057c-0.4 0.49-0.89 0.87-1.5 1.1-0.59 0.25-1.3 0.36-2.1 0.32-1.1-0.05-1.9-0.41-2.6-1.1-0.64-0.69-0.94-1.6-0.88-2.8 0.052-1.1 0.44-2 1.2-2.6 0.73-0.62 1.8-1 3.3-1.2zm1.5 6c0.28 0.013 0.51-0.018 0.69-0.091 0.18-0.074 0.34-0.18 0.46-0.32l0.25-5.4-0.91 0.032c-0.71 0.033-1.2 0.29-1.5 0.77-0.32 0.46-0.5 1.2-0.54 2.2-0.05 1.1 0.072 1.8 0.37 2.2 0.31 0.39 0.72 0.6 1.2 0.62z" fill="#fff"/>
 <path d="m121 13-8.1-0.37c6e-3 1.7 0.31 3 0.92 4 0.63 0.98 1.8 1.5 3.5 1.6 0.56 0.026 1.1 0.0089 1.6-0.05s0.98-0.18 1.4-0.35l-0.019 0.39c-0.4 0.56-1.1 1.1-2 1.5-0.94 0.45-2.1 0.64-3.4 0.58-2.3-0.1-3.9-0.82-5-2.2-1.1-1.3-1.6-3.1-1.5-5.3 0.099-2.1 0.78-3.8 2-5 1.3-1.2 2.9-1.8 5-1.7 2.1 0.095 3.5 0.7 4.4 1.8 0.88 1.1 1.3 2.7 1.2 4.7l-0.016 0.34zm-5.7-6.4c-0.64-0.029-1.2 0.4-1.6 1.3-0.4 0.88-0.65 2.3-0.74 4.2l3.8 0.0035c0.097-2.1 0.015-3.5-0.24-4.3-0.24-0.78-0.66-1.2-1.2-1.2z" fill="#fff"/>
 <path d="m106 19 1.7 0.47-0.019 0.42-7.7-0.35 0.019-0.42 1.4-0.33 0.54-12-1.5-0.069 0.02-0.44 1.5-0.42 0.063-1.4c0.039-0.83 0.21-1.5 0.52-2.1 0.32-0.58 0.73-1 1.2-1.4 0.51-0.35 1.1-0.6 1.7-0.73 0.66-0.13 1.4-0.18 2.1-0.15 0.57 0.026 1.1 0.067 1.6 0.12 0.47 0.055 1 0.15 1.7 0.27l-0.11 4-0.42-0.019-2.2-3.9c-0.48-0.022-0.83 0.18-1.1 0.62-0.23 0.42-0.38 1.2-0.43 2.4l-0.11 2.4 2.5 0.11-0.043 0.93-2.5-0.11-0.54 12z" fill="#fff"/>
 <path d="m88 6.8-1.9 0.061-0.014-0.45 1.9-0.56-0.084-2.7 4.5-0.86 0.11 3.4 3-0.094 0.03 0.94-3 0.094 0.28 9c0.022 0.69 0.17 1.2 0.44 1.5 0.27 0.29 0.78 0.42 1.5 0.4 0.23-0.0072 0.45-0.022 0.67-0.046 0.23-0.04 0.42-0.079 0.57-0.12l0.013 0.42c-0.38 0.43-0.9 0.82-1.5 1.2-0.63 0.35-1.4 0.54-2.2 0.56-1.3 0.04-2.3-0.25-3-0.87-0.66-0.62-1-1.7-1.1-3.1l-0.28-8.8z" fill="#fff"/>
 <path d="m75 6.6 5.7-0.94 0.47 0.033 0.12 3.7 0.13-0.0041c0.32-1.4 0.76-2.4 1.3-3 0.58-0.62 1.3-0.94 2.1-0.97 0.12-0.0038 0.25 6e-5 0.39 0.012 0.14 0.012 0.24 0.032 0.31 0.062l0.12 3.9c-0.12-0.028-0.3-0.046-0.52-0.055-0.21-0.0093-0.42-0.01-0.65-0.0034-0.64 0.02-1.2 0.07-1.7 0.15-0.5 0.079-0.95 0.2-1.4 0.38l0.26 8.3 1.9 0.3 0.013 0.4-8.1 0.26-0.013-0.4 1.5-0.4-0.34-11-1.6-0.52-0.013-0.4z" fill="#fff"/>
 <path d="m68 20c-0.99 0.031-1.9-0.11-2.7-0.41-0.84-0.32-1.6-0.78-2.2-1.4-0.61-0.61-1.1-1.4-1.5-2.3-0.35-0.9-0.54-1.9-0.57-3-0.034-1.1 0.094-2.1 0.38-3 0.29-0.89 0.72-1.6 1.3-2.3 0.57-0.63 1.3-1.1 2.1-1.5 0.82-0.36 1.7-0.55 2.7-0.59 1-0.032 1.9 0.11 2.8 0.41 0.84 0.31 1.6 0.76 2.2 1.4 0.61 0.58 1.1 1.3 1.4 2.2 0.36 0.87 0.56 1.9 0.59 3s-0.093 2.1-0.38 3-0.72 1.7-1.3 2.3c-0.57 0.63-1.3 1.1-2.1 1.5-0.82 0.36-1.7 0.55-2.7 0.59zm-0.44-14c-0.33 0.011-0.63 0.12-0.87 0.33-0.23 0.19-0.43 0.54-0.59 1-0.14 0.5-0.25 1.2-0.32 2.1-0.052 0.87-0.058 2-0.016 3.3 0.042 1.3 0.12 2.5 0.22 3.3 0.12 0.86 0.27 1.5 0.45 2.1 0.19 0.51 0.42 0.86 0.68 1.1 0.26 0.19 0.56 0.28 0.89 0.27s0.62-0.12 0.85-0.33c0.25-0.22 0.44-0.59 0.59-1.1 0.14-0.52 0.24-1.2 0.29-2.1 0.068-0.88 0.08-2 0.038-3.3-0.042-1.3-0.12-2.4-0.22-3.3-0.11-0.86-0.26-1.5-0.45-2-0.17-0.49-0.39-0.83-0.65-1-0.26-0.19-0.56-0.28-0.89-0.27z" fill="#fff"/>
 <path d="m60 12c0.038 1.3-0.1 2.4-0.42 3.4-0.3 0.96-0.73 1.8-1.3 2.4-0.56 0.61-1.2 1.1-2 1.4-0.75 0.3-1.5 0.46-2.4 0.49-0.51 0.015-0.97-0.0043-1.4-0.058-0.4-0.054-0.69-0.11-0.89-0.17l0.13 4.5 1.6 0.3 0.012 0.42-7.5 0.22-0.012-0.42 1.4-0.39-0.48-16-1.5-0.55-0.012-0.42 5.4-0.95 0.52 0.034 0.046 1.5 0.15-0.0043c0.33-0.42 0.81-0.81 1.4-1.2 0.63-0.38 1.4-0.58 2.3-0.61 0.64-0.019 1.2 0.086 1.8 0.32 0.58 0.21 1.1 0.57 1.5 1.1 0.44 0.51 0.79 1.2 1 2 0.27 0.84 0.42 1.9 0.46 3.1zm-4.7 0.63c-0.06-2-0.31-3.4-0.76-4.2-0.45-0.72-1-1.1-1.8-1.1-0.28 0.0082-0.54 0.049-0.78 0.12-0.24 0.056-0.46 0.12-0.63 0.19l0.32 11c0.17 0.11 0.36 0.21 0.57 0.3 0.22 0.092 0.48 0.13 0.79 0.12 0.77-0.023 1.4-0.51 1.8-1.5 0.41-0.95 0.59-2.6 0.52-4.9z" fill="#fff"/>
 <path d="m44 13c0.039 1.3-0.1 2.4-0.42 3.4-0.3 0.96-0.73 1.8-1.3 2.4-0.56 0.61-1.2 1.1-2 1.4-0.75 0.3-1.5 0.46-2.4 0.49-0.51 0.015-0.97-0.0043-1.4-0.058-0.4-0.054-0.69-0.11-0.89-0.17l0.13 4.5 1.6 0.3 0.012 0.42-7.5 0.22-0.012-0.42 1.4-0.39-0.48-16-1.5-0.55-0.012-0.42 5.4-0.95 0.52 0.034 0.046 1.5 0.15-0.0043c0.33-0.42 0.81-0.81 1.4-1.2 0.63-0.38 1.4-0.58 2.3-0.61 0.64-0.019 1.2 0.086 1.8 0.32 0.58 0.21 1.1 0.57 1.5 1.1 0.44 0.51 0.79 1.2 1 2 0.27 0.84 0.42 1.9 0.46 3.1zm-4.7 0.63c-0.06-2-0.31-3.4-0.76-4.2s-1-1.1-1.8-1.1c-0.28 0.0082-0.54 0.049-0.78 0.12-0.24 0.056-0.46 0.12-0.63 0.19l0.32 11c0.17 0.11 0.36 0.21 0.57 0.3 0.22 0.092 0.48 0.13 0.79 0.12 0.77-0.023 1.4-0.51 1.8-1.5s0.59-2.6 0.52-4.9z" fill="#fff"/>
 <path d="m15 8.6-1.5-0.55-0.012-0.42 5.4-0.94 0.59 0.032 0.3 10c0.022 0.75 0.18 1.3 0.49 1.5 0.32 0.25 0.75 0.37 1.3 0.36 0.31-0.0092 0.6-0.05 0.86-0.12 0.28-0.09 0.54-0.2 0.8-0.32l-0.29-10-1.5-0.55-0.012-0.42 5.4-0.94 0.54 0.033 0.36 12 1.5 0.55 0.012 0.42-5.3 0.99-0.54-0.033-0.051-1.7-0.15 0.0044c-0.49 0.52-1.1 0.97-1.7 1.4-0.66 0.36-1.4 0.56-2.2 0.58-1.3 0.038-2.2-0.29-2.9-0.97-0.63-0.69-0.96-1.6-0.99-2.8l-0.25-8.4z" fill="#fff"/>
 <path d="m6.6 21c-1 0.029-2-0.023-3-0.16-0.99-0.13-1.8-0.32-2.4-0.57l-0.39-4.9 0.42-0.012 4 5c0.21 0.059 0.43 0.11 0.64 0.15 0.23 0.026 0.44 0.036 0.64 0.03 1.1-0.032 1.9-0.31 2.4-0.83 0.53-0.52 0.78-1.2 0.75-2.1-0.026-0.88-0.33-1.6-0.9-2.1-0.56-0.52-1.5-1-2.7-1.4l-0.97-0.36c-1.4-0.53-2.5-1.2-3.2-2-0.73-0.83-1.1-2-1.2-3.4-0.023-0.77 0.079-1.5 0.3-2.2 0.23-0.7 0.59-1.3 1.1-1.8 0.51-0.51 1.2-0.91 2-1.2 0.83-0.3 1.8-0.47 3-0.51 1.1-0.033 2.1 0.013 2.8 0.14 0.76 0.13 1.4 0.27 2 0.43l0.4 4.6-0.42 0.012-3.7-4.6c-0.17-0.061-0.34-0.1-0.52-0.13-0.16-0.028-0.35-0.039-0.54-0.033-0.98 0.029-1.7 0.3-2.2 0.83-0.48 0.52-0.7 1.2-0.68 2 0.023 0.77 0.27 1.4 0.74 1.9 0.47 0.48 1.3 0.9 2.4 1.3l0.99 0.36c0.78 0.27 1.5 0.55 2.1 0.85 0.63 0.28 1.2 0.62 1.6 1 0.44 0.4 0.77 0.89 1 1.5 0.25 0.58 0.38 1.3 0.41 2.2 0.055 1.9-0.52 3.4-1.7 4.4-1.2 1.1-2.9 1.6-5.1 1.7z" fill="#fff"/>
</svg>
