<?xml version="1.0" encoding="UTF-8"?>
<svg width="350" height="67" viewBox="0 0 350 67" xmlns="http://www.w3.org/2000/svg">
 <path d="m322 58 1.7-0.41 0.29-13-1.8-0.75 0.011-0.5 6.4-0.81 0.65 0.073-0.046 2.1 0.18 0.0038c0.7-0.7 1.5-1.2 2.3-1.6 0.82-0.4 1.7-0.58 2.8-0.56 0.93 0.02 1.7 0.21 2.3 0.58 0.58 0.35 1 0.95 1.3 1.8l0.12 0.0025c0.74-0.71 1.5-1.3 2.4-1.6 0.86-0.4 1.8-0.58 2.9-0.56 1.3 0.028 2.3 0.41 3 1.1 0.7 0.71 1 1.8 1 3.3l-0.24 11 1.7 0.48-0.011 0.5-8.3-0.18 0.011-0.5 1.3-0.42 0.24-11c0.016-0.73-0.14-1.3-0.47-1.6-0.33-0.34-0.83-0.52-1.5-0.54-0.32-0.0068-0.64 0.036-0.98 0.13-0.32 0.092-0.61 0.2-0.87 0.34l-0.28 13 1.3 0.47-0.011 0.5-7.9-0.17 0.011-0.5 1.4-0.41 0.24-11c0.016-0.73-0.13-1.3-0.44-1.6-0.31-0.34-0.81-0.52-1.5-0.54-0.38-0.0081-0.72 0.044-1 0.16-0.3 0.092-0.58 0.2-0.84 0.34l-0.27 13 1.3 0.47-0.011 0.5-8.4-0.18 0.01-0.5z" fill="#fff"/>
 <path d="m316 50c1.5 0.74 2.6 1.5 3.4 2.3 0.77 0.81 1.1 1.9 1.1 3.4-0.036 1.7-0.64 3-1.8 3.9-1.2 0.92-2.8 1.4-5 1.3-0.97-0.021-1.9-0.11-2.9-0.27-0.96-0.14-1.8-0.36-2.6-0.68l-0.075-4.8 0.5 0.011 4.1 5c0.14 0.042 0.28 0.085 0.44 0.13 0.16 0.023 0.3 0.036 0.44 0.039 0.91 0.02 1.6-0.19 2-0.64 0.44-0.44 0.67-1 0.69-1.8 0.014-0.67-0.17-1.2-0.56-1.6-0.39-0.36-1-0.77-2-1.2l-0.97-0.46c-1.5-0.72-2.6-1.5-3.4-2.4-0.79-0.85-1.2-1.9-1.1-3.3 0.035-1.7 0.62-2.9 1.7-3.8 1.1-0.9 2.7-1.3 4.6-1.3 0.81 0.017 1.6 0.075 2.5 0.17s1.6 0.25 2.3 0.46l0.052 4.5-0.5-0.011-3.1-4.4c-0.18-0.063-0.35-0.11-0.53-0.13-0.18-0.043-0.34-0.067-0.5-0.07-0.79-0.017-1.4 0.18-1.8 0.58-0.38 0.41-0.58 0.94-0.6 1.6-0.015 0.73 0.17 1.3 0.56 1.6 0.39 0.36 1.1 0.78 2 1.3l0.91 0.43z" fill="#fff"/>
 <path d="m303 34c0.77 0.016 1.4 0.3 2 0.84 0.56 0.54 0.83 1.2 0.82 2-0.017 0.79-0.32 1.4-0.9 2-0.58 0.5-1.3 0.74-2 0.73-0.79-0.017-1.5-0.29-2-0.81-0.54-0.54-0.8-1.2-0.79-2s0.31-1.4 0.87-2 1.2-0.77 2-0.76zm-4.5 7.5 6.5-0.81 0.74 0.075-0.33 15 1.6 0.51-0.011 0.5-8.8-0.19 0.011-0.5 1.7-0.44 0.29-13-1.8-0.75 0.011-0.5z" fill="#fff"/>
 <path d="m290 35 6.6-0.37 0.64 0.14-1.9 22 1.6 0.62-0.044 0.5-8.8-0.76 0.044-0.5 1.7-0.33 1.8-20-1.7-0.83 0.044-0.5z" fill="#fff"/>
 <path d="m278 48 3.6-0.6 0.046-2.2c0.035-1.6-0.14-2.8-0.52-3.4-0.36-0.64-1-0.97-1.9-0.99-0.099-0.0021-0.2 0.0056-0.3 0.023-0.099-0.0021-0.2 0.0057-0.3 0.023l-4.1 5.3-0.5-0.011 0.23-5c0.77-0.22 1.7-0.43 2.6-0.62 0.99-0.2 2.1-0.28 3.4-0.25 2.2 0.047 3.9 0.44 5.1 1.2 1.2 0.74 1.8 2 1.8 3.9l-0.23 11 1.6 0.45-9e-3 0.41c-0.32 0.19-0.78 0.35-1.4 0.47-0.58 0.15-1.2 0.21-1.9 0.2-1.1-0.023-1.9-0.21-2.4-0.56-0.56-0.35-0.96-0.82-1.2-1.4l-0.15-0.0032c-0.47 0.6-1 1.1-1.7 1.4-0.7 0.32-1.5 0.47-2.6 0.45-1.3-0.028-2.3-0.44-3.1-1.2-0.79-0.81-1.2-1.9-1.1-3.3 0.03-1.4 0.48-2.4 1.3-3.2 0.86-0.77 2.2-1.3 3.9-1.6zm2 7.2c0.34 0.0072 0.61-0.036 0.83-0.13 0.22-0.094 0.4-0.23 0.54-0.4l0.14-6.5-1.1 0.065c-0.85 0.061-1.5 0.38-1.8 0.97-0.37 0.56-0.56 1.4-0.59 2.7-0.028 1.3 0.14 2.2 0.5 2.6 0.38 0.46 0.88 0.7 1.5 0.71z" fill="#fff"/>
 <path d="m253 59 1.7-0.48-0.054-13-1.8-0.7-2e-3 -0.5 6.4-0.97 0.65 0.056 8e-3 2.1 0.18-7e-4c0.69-0.71 1.5-1.3 2.5-1.6 0.98-0.4 2-0.6 3-0.6 1.4-0.0057 2.4 0.34 3.1 1 0.65 0.69 0.98 1.8 0.99 3.3l0.045 11 1.7 0.47 2e-3 0.5-8.6 0.035-2e-3 -0.5 1.5-0.39-0.045-11c-3e-3 -0.79-0.18-1.4-0.54-1.7-0.36-0.37-0.88-0.56-1.6-0.56-0.43 0.0017-0.83 0.053-1.2 0.15-0.34 0.1-0.66 0.23-0.98 0.39l0.052 13 1.5 0.38 2e-3 0.5-8.6 0.035-2e-3 -0.5z" fill="#fff"/>
 <path d="m240 42 6.5-0.97 0.53 0.057 0.018 4.6 0.15-6e-4c0.41-1.8 0.94-3 1.6-3.7 0.69-0.75 1.5-1.1 2.4-1.1 0.14-6e-4 0.29 0.0087 0.44 0.028 0.16 0.019 0.28 0.048 0.36 0.087l0.02 4.9c-0.14-0.039-0.34-0.068-0.59-0.086-0.24-0.019-0.48-0.028-0.74-0.027-0.73 3e-3 -1.4 0.045-2 0.13-0.57 0.081-1.1 0.22-1.6 0.42l0.042 10 2.2 0.44 2e-3 0.5-9.3 0.038-2e-3 -0.5 1.7-0.45-0.054-13-1.8-0.7-2e-3 -0.5z" fill="#fff"/>
 <path d="m223 44-1.7-0.81 0.03-0.5 6.5-0.57 0.71 0.1-0.71 12c-0.053 0.91 0.089 1.5 0.42 1.9 0.36 0.34 0.86 0.52 1.5 0.56 0.37 0.022 0.72 0.0024 1-0.058 0.34-0.079 0.67-0.18 1-0.3l0.69-12-1.7-0.81 0.029-0.5 6.5-0.57 0.65 0.097-0.85 15 1.7 0.81-0.029 0.5-6.4 0.63-0.65-0.097 0.12-2.1-0.18-0.01c-0.65 0.58-1.4 1.1-2.2 1.4-0.83 0.37-1.8 0.52-2.8 0.46-1.5-0.089-2.7-0.58-3.4-1.5-0.68-0.89-0.98-2-0.9-3.4l0.59-10z" fill="#fff"/>
 <path d="m212 58c-1.2 0.0049-2.3-0.19-3.4-0.58-1-0.41-1.9-0.98-2.6-1.7-0.73-0.75-1.3-1.7-1.7-2.7-0.4-1.1-0.6-2.3-0.61-3.6-5e-3 -1.3 0.19-2.5 0.58-3.5s0.95-1.9 1.7-2.6c0.73-0.73 1.6-1.3 2.6-1.7 1-0.4 2.2-0.6 3.4-0.61s2.4 0.19 3.4 0.58c1 0.39 1.9 0.95 2.6 1.7 0.73 0.71 1.3 1.6 1.7 2.7 0.42 1 0.63 2.2 0.64 3.5 5e-3 1.3-0.19 2.5-0.58 3.6-0.39 1.1-0.95 2-1.7 2.7-0.73 0.73-1.6 1.3-2.6 1.7-1 0.4-2.2 0.6-3.4 0.61zm-0.066-17c-0.42 0.0016-0.78 0.12-1.1 0.36-0.3 0.22-0.55 0.62-0.76 1.2-0.2 0.59-0.35 1.4-0.46 2.5-0.094 1-0.14 2.3-0.13 3.9 7e-3 1.6 0.061 2.9 0.16 4 0.12 1 0.28 1.8 0.48 2.5 0.22 0.61 0.49 1 0.8 1.3 0.32 0.24 0.68 0.35 1.1 0.35 0.41-0.0017 0.77-0.12 1.1-0.36 0.32-0.26 0.57-0.68 0.76-1.3 0.19-0.61 0.34-1.4 0.43-2.5 0.11-1 0.17-2.4 0.16-4-6e-3 -1.6-0.061-2.9-0.16-3.9s-0.26-1.8-0.48-2.4c-0.2-0.59-0.46-0.99-0.77-1.2-0.32-0.24-0.68-0.35-1.1-0.35z" fill="#fff"/>
 <path d="m199 33c0.77-0.0031 1.4 0.26 2 0.79s0.86 1.2 0.87 2-0.28 1.5-0.85 2c-0.57 0.52-1.2 0.77-2 0.78-0.79 0.0032-1.5-0.25-2-0.76-0.56-0.53-0.83-1.2-0.84-2-3e-3 -0.79 0.27-1.5 0.82-2s1.2-0.8 2-0.81zm-2.5 8.8-1.8-0.7-2e-3 -0.5 6.5-0.97 0.74 0.056 0.066 16c8e-3 2.1-0.54 3.7-1.6 4.9-1.1 1.2-2.7 1.8-5 1.8-0.51 0.0021-1.1-0.035-1.7-0.11-0.61-0.057-1.1-0.15-1.6-0.29l-0.11-4.2 0.5-2e-3 2.4 4.1c0.49-0.022 0.9-0.27 1.2-0.74 0.31-0.45 0.47-1.2 0.46-2.3l-0.07-17z" fill="#fff"/>
 <path d="m174 43-2.3-0.25 0.057-0.53 2.4-0.34 0.34-3.2 5.4-0.28-0.43 4 3.6 0.38-0.12 1.1-3.6-0.38-1.1 11c-0.088 0.82 5e-3 1.4 0.28 1.8 0.28 0.39 0.86 0.63 1.7 0.72 0.28 0.029 0.54 0.048 0.8 0.056 0.28-0.0099 0.51-0.025 0.69-0.045l-0.054 0.5c-0.52 0.44-1.2 0.82-2 1.2-0.81 0.31-1.7 0.41-2.7 0.31-1.5-0.16-2.6-0.67-3.3-1.5-0.68-0.85-0.93-2.1-0.75-3.9l1.1-10z" fill="#fff"/>
 <path d="m153 59 1.7-0.5-0.2-13-1.8-0.68-7e-3 -0.5 6.4-1 0.65 0.05 0.031 2.1 0.18-0.0026c0.68-0.72 1.5-1.3 2.5-1.7 0.98-0.41 2-0.62 3-0.64 1.4-0.02 2.4 0.31 3.1 0.99s1 1.8 1 3.2l0.17 11 1.7 0.45 8e-3 0.5-8.6 0.13-7e-3 -0.5 1.5-0.41-0.16-11c-0.011-0.79-0.2-1.4-0.56-1.7-0.36-0.37-0.89-0.55-1.6-0.54-0.43 0.0063-0.83 0.061-1.2 0.17-0.33 0.1-0.66 0.24-0.97 0.4l0.19 13 1.5 0.36 7e-3 0.5-8.6 0.13-7e-3 -0.5z" fill="#fff"/>
 <path d="m152 50-9.7 0.14c0.13 2 0.59 3.6 1.4 4.7 0.83 1.1 2.3 1.7 4.3 1.7 0.67-0.0098 1.3-0.068 1.9-0.18 0.59-0.11 1.2-0.28 1.7-0.53l7e-3 0.47c-0.44 0.7-1.2 1.4-2.3 2-1.1 0.61-2.4 0.92-4 0.95-2.7 0.04-4.8-0.7-6.2-2.2-1.4-1.5-2.2-3.6-2.2-6.3-0.037-2.6 0.65-4.6 2.1-6.2 1.4-1.5 3.4-2.3 5.9-2.4 2.5-0.036 4.3 0.59 5.4 1.9 1.1 1.3 1.7 3.1 1.8 5.5l6e-3 0.41zm-7.3-7.2c-0.77 0.011-1.4 0.56-1.8 1.7-0.42 1.1-0.61 2.8-0.58 5.1l4.6-0.27c-0.037-2.5-0.24-4.2-0.61-5.1-0.35-0.92-0.88-1.4-1.6-1.4z" fill="#fff"/>
 <path d="m126 41c0.65-0.0095 1.2 0.032 1.7 0.12 0.48 0.092 0.84 0.2 1.1 0.34l-0.077-5.3-1.8-0.6-8e-3 -0.5 6.5-1 0.62 0.08 0.32 22 1.8 0.54 7e-3 0.5-6.6 0.84-0.5-0.052-0.027-1.8-0.15 0.0022c-0.47 0.52-1 0.98-1.7 1.4s-1.5 0.61-2.4 0.63c-1.8 0.026-3.2-0.63-4.4-2-1.2-1.3-1.8-3.4-1.8-6.1-0.042-2.9 0.62-5.1 2-6.6s3.2-2.3 5.4-2.3zm1.5 15c0.32-0.0046 0.6-0.038 0.86-0.1 0.28-0.083 0.49-0.17 0.65-0.28l-0.19-13c-0.2-0.096-0.44-0.18-0.71-0.26-0.28-0.075-0.62-0.11-1-0.1-0.87 0.013-1.6 0.59-2.1 1.7-0.5 1.1-0.72 3-0.69 5.6 0.034 2.3 0.32 4 0.84 5 0.55 1 1.3 1.5 2.4 1.5z" fill="#fff"/>
 <path d="m99 59 1.7-0.56-0.72-13-1.8-0.61-0.027-0.5 6.4-1.3 0.65 0.024 0.11 2.1 0.18-0.0095c0.65-0.75 1.5-1.3 2.4-1.8 0.96-0.45 1.9-0.7 3-0.75 1.4-0.075 2.4 0.21 3.1 0.87 0.69 0.65 1.1 1.7 1.2 3.2l0.61 11 1.7 0.38 0.027 0.5-8.6 0.46-0.027-0.5 1.5-0.47-0.6-11c-0.042-0.79-0.25-1.4-0.62-1.7-0.38-0.36-0.91-0.51-1.6-0.48-0.43 0.023-0.82 0.094-1.2 0.21-0.33 0.12-0.65 0.26-0.96 0.44l0.7 13 1.5 0.3 0.027 0.5-8.6 0.46-0.027-0.5z" fill="#fff"/>
 <path d="m98 51-9.7 0.14c0.13 2 0.59 3.6 1.4 4.7 0.83 1.1 2.3 1.7 4.3 1.7 0.67-0.0099 1.3-0.068 1.9-0.18 0.59-0.11 1.2-0.28 1.7-0.53l0.0069 0.47c-0.44 0.7-1.2 1.4-2.3 2-1.1 0.61-2.4 0.92-4 0.95-2.7 0.04-4.8-0.7-6.2-2.2-1.4-1.5-2.2-3.6-2.2-6.3-0.038-2.6 0.65-4.6 2.1-6.2 1.4-1.5 3.4-2.3 5.9-2.4 2.5-0.036 4.3 0.59 5.4 1.9 1.1 1.3 1.7 3.1 1.8 5.5l6e-3 0.41zm-7.3-7.2c-0.77 0.011-1.4 0.56-1.8 1.7-0.42 1.1-0.61 2.8-0.58 5.1l4.6-0.27c-0.037-2.5-0.24-4.2-0.61-5.1-0.35-0.92-0.88-1.4-1.6-1.4z" fill="#fff"/>
 <path d="m82 52c-0.047 1.6-0.29 2.9-0.74 4.1-0.43 1.1-1 2.1-1.7 2.8-0.71 0.69-1.5 1.2-2.5 1.5-0.92 0.31-1.9 0.45-2.9 0.42-0.61-0.018-1.2-0.074-1.7-0.17-0.47-0.093-0.82-0.18-1.1-0.27l-0.16 5.4 1.9 0.47-0.015 0.5-9-0.27 0.015-0.5 1.7-0.36 0.59-20-1.8-0.76 0.015-0.5 6.6-0.75 0.62 0.078-0.056 1.9 0.18 0.0053c0.43-0.48 1-0.92 1.8-1.3 0.78-0.41 1.7-0.6 2.8-0.57 0.77 0.023 1.5 0.19 2.1 0.51 0.68 0.3 1.3 0.77 1.7 1.4 0.49 0.65 0.86 1.5 1.1 2.5 0.27 1 0.38 2.3 0.33 3.7zm-5.7 0.42c0.073-2.5-0.13-4.1-0.62-5.1-0.49-0.9-1.2-1.4-2.1-1.4-0.34-0.01-0.65 0.02-0.95 0.09-0.3 0.05-0.56 0.11-0.78 0.18l-0.39 13c0.19 0.14 0.42 0.28 0.67 0.4s0.57 0.19 0.94 0.21c0.93 0.028 1.7-0.51 2.2-1.6s0.89-3.1 0.97-5.9z" fill="#fff"/>
 <path d="m63 51-9.7 0.14c0.13 2 0.59 3.6 1.4 4.7 0.83 1.1 2.3 1.7 4.3 1.7 0.67-0.0098 1.3-0.068 1.9-0.18 0.59-0.11 1.2-0.28 1.7-0.53l0.0069 0.47c-0.44 0.7-1.2 1.4-2.3 2-1.1 0.61-2.4 0.92-4 0.95-2.7 0.04-4.8-0.7-6.2-2.2-1.4-1.5-2.2-3.6-2.2-6.3-0.038-2.6 0.65-4.6 2.1-6.2 1.4-1.5 3.4-2.3 5.9-2.4 2.5-0.036 4.3 0.59 5.4 1.9 1.1 1.3 1.7 3.1 1.8 5.5l0.0061 0.41zm-7.3-7.2c-0.77 0.011-1.4 0.56-1.8 1.7-0.42 1.1-0.61 2.8-0.58 5.1l4.6-0.27c-0.037-2.5-0.24-4.2-0.61-5.1-0.35-0.92-0.88-1.4-1.6-1.4z" fill="#fff"/>
 <path d="m37 45c0.65-0.0096 1.2 0.032 1.7 0.12s0.84 0.2 1.1 0.34l-0.077-5.3-1.8-0.6-0.0074-0.5 6.5-1 0.62 0.08 0.32 22 1.8 0.54 0.0074 0.5-6.6 0.84-0.5-0.052-0.027-1.8-0.15 0.0021c-0.47 0.52-1 0.98-1.7 1.4s-1.5 0.61-2.4 0.63c-1.8 0.026-3.2-0.63-4.4-2-1.2-1.3-1.8-3.4-1.8-6.1-0.042-2.9 0.62-5.1 2-6.6 1.4-1.5 3.2-2.3 5.4-2.3zm1.5 15c0.32-0.0046 0.6-0.038 0.86-0.1 0.28-0.083 0.49-0.17 0.65-0.28l-0.19-13c-0.2-0.096-0.44-0.18-0.71-0.26-0.28-0.075-0.62-0.11-1-0.1-0.87 0.013-1.6 0.59-2.1 1.7-0.5 1.1-0.73 3-0.69 5.6 0.034 2.3 0.32 4 0.84 5 0.55 1 1.3 1.5 2.4 1.5z" fill="#fff"/>
 <path d="m10 60 1.7-0.5-0.2-13-1.8-0.68-0.0074-0.5 6.4-1 0.65 0.05 0.03 2.1 0.18-0.0026c0.68-0.72 1.5-1.3 2.5-1.7 0.98-0.41 2-0.62 3-0.64 1.4-0.02 2.4 0.31 3.1 0.99 0.66 0.68 1 1.8 1 3.2l0.17 11 1.7 0.45 0.0074 0.5-8.6 0.13-0.0073-0.5 1.5-0.41-0.16-11c-0.012-0.79-0.2-1.4-0.56-1.7-0.36-0.37-0.89-0.55-1.6-0.54-0.43 0.0063-0.83 0.061-1.2 0.17-0.33 0.1-0.66 0.24-0.97 0.4l0.19 13 1.5 0.36 0.0074 0.5-8.6 0.13-0.0073-0.5z" fill="#fff"/>
 <path d="m4.6 36c0.77-0.011 1.4 0.25 2 0.77 0.58 0.52 0.88 1.2 0.89 2s-0.26 1.5-0.83 2c-0.56 0.52-1.2 0.79-2 0.8-0.79 0.012-1.5-0.24-2-0.74-0.56-0.52-0.85-1.2-0.86-2s0.25-1.5 0.8-2 1.2-0.82 2-0.83zm-4.3 7.6 6.5-1 0.74 0.048 0.23 15 1.7 0.45 0.0074 0.5-8.8 0.13-0.0074-0.5 1.7-0.5-0.2-13-1.8-0.68-0.0074-0.5z" fill="#fff"/>
 <path d="m276 27c0.46-0.18 0.85-0.5 1.2-0.98 0.32-0.47 0.58-1.1 0.77-1.7 0.21-0.71 0.38-1.5 0.5-2.4s0.2-1.8 0.25-2.8l5.1 0.68c-0.25 2.5-1 4.3-2.4 5.5-1.3 1.2-3.1 1.9-5.2 2.1l-0.15-0.44z" fill="#fff"/>
 <path d="m272 14c1.4 0.72 2.5 1.5 3.2 2.3 0.74 0.8 1.1 2 1.1 3.5 0 1.7-0.53 3-1.6 4-1.1 0.96-2.6 1.4-4.6 1.4-0.9 0-1.8-0.07-2.7-0.21-0.9-0.12-1.7-0.33-2.5-0.63l-0.17-4.9h0.47l3.9 5c0.13 0.04 0.27 0.08 0.41 0.12 0.15 0.02 0.28 0.03 0.41 0.03 0.85 0 1.5-0.23 1.8-0.69 0.4-0.46 0.61-1.1 0.61-1.8 0-0.68-0.18-1.2-0.55-1.6-0.37-0.36-0.98-0.76-1.8-1.2l-0.91-0.45c-1.4-0.7-2.5-1.5-3.2-2.3-0.75-0.84-1.1-2-1.1-3.3 0-1.7 0.52-3 1.5-3.9 1-0.94 2.5-1.4 4.3-1.4 0.75 0 1.5 0.04 2.3 0.12s1.5 0.22 2.1 0.42l0.14 4.5h-0.47l-3-4.4c-0.17-0.06-0.33-0.1-0.5-0.12-0.16-0.04-0.32-0.06-0.47-0.06-0.74 0-1.3 0.21-1.6 0.63-0.35 0.42-0.52 0.97-0.52 1.7 0 0.74 0.18 1.3 0.55 1.7 0.37 0.36 1 0.77 1.9 1.2l0.86 0.42z" fill="#fff"/>
 <path d="m258 14c1.4 0.72 2.5 1.5 3.2 2.3s1.1 2 1.1 3.5c0 1.7-0.53 3-1.6 4-1.1 0.96-2.6 1.4-4.6 1.4-0.9 0-1.8-0.07-2.7-0.21-0.9-0.12-1.7-0.33-2.5-0.63l-0.16-4.9h0.47l3.9 5c0.13 0.04 0.27 0.08 0.41 0.12 0.15 0.02 0.28 0.03 0.41 0.03 0.85 0 1.5-0.23 1.8-0.69 0.4-0.46 0.61-1.1 0.61-1.8 0-0.68-0.18-1.2-0.55-1.6-0.37-0.36-0.98-0.76-1.8-1.2l-0.91-0.45c-1.4-0.7-2.5-1.5-3.2-2.3-0.75-0.84-1.1-2-1.1-3.3 0-1.7 0.52-3 1.5-3.9 1-0.94 2.5-1.4 4.3-1.4 0.76 0 1.5 0.04 2.3 0.12s1.5 0.22 2.1 0.42l0.14 4.5h-0.47l-3-4.4c-0.16-0.06-0.33-0.1-0.5-0.12-0.16-0.04-0.32-0.06-0.47-0.06-0.74 0-1.3 0.21-1.6 0.63-0.35 0.42-0.52 0.97-0.52 1.7 0 0.74 0.18 1.3 0.55 1.7 0.37 0.36 1 0.77 1.9 1.2l0.86 0.42z" fill="#fff"/>
 <path d="m248 19h-9.6c0.097 2 0.54 3.6 1.3 4.8 0.8 1.2 2.2 1.7 4.2 1.7 0.66 0 1.3-0.05 1.9-0.15 0.58-0.1 1.2-0.27 1.7-0.51v0.48c-0.45 0.7-1.2 1.4-2.3 2-1.1 0.6-2.4 0.9-4 0.9-2.7 0-4.7-0.78-6.1-2.3-1.4-1.6-2.1-3.7-2.1-6.4 0-2.6 0.71-4.7 2.1-6.2 1.4-1.5 3.4-2.3 5.8-2.3 2.5 0 4.2 0.66 5.4 2 1.1 1.3 1.7 3.2 1.7 5.6v0.42zm-7.1-7.5c-0.76 0-1.4 0.55-1.8 1.7-0.43 1.1-0.64 2.8-0.64 5.2l4.5-0.21c0-2.6-0.18-4.3-0.53-5.2-0.33-0.94-0.85-1.4-1.6-1.4z" fill="#fff"/>
 <path d="m224 2.3 6.8-0.93 0.67 0.088v22l1.7 0.47v0.5h-9.1v-0.5l1.7-0.47v-20l-1.9-0.67v-0.5z" fill="#fff"/>
 <path d="m211 10 6.6-0.64 0.53 0.084-0.21 4.6 0.15 0.0068c0.49-1.7 1.1-3 1.8-3.6 0.72-0.72 1.5-1.1 2.4-1 0.14 0.0064 0.28 0.023 0.44 0.05s0.27 0.062 0.35 0.11l-0.22 4.9c-0.14-0.046-0.33-0.084-0.59-0.12-0.24-0.031-0.48-0.052-0.74-0.064-0.73-0.034-1.4-0.024-2 0.028s-1.1 0.17-1.6 0.34l-0.48 10 2.2 0.54-0.024 0.5-9.3-0.43 0.023-0.5 1.7-0.37 0.62-13-1.7-0.79 0.024-0.5z" fill="#fff"/>
 <path d="m200 16 3.6-0.52 0.099-2.2c0.076-1.6-0.069-2.8-0.43-3.4-0.35-0.65-0.97-0.99-1.9-1-0.098-0.0045-0.2 7.7e-4 -0.3 0.016-0.098-0.0045-0.2 7.7e-4 -0.3 0.016l-4.2 5.2-0.5-0.023 0.35-5c0.78-0.2 1.7-0.39 2.7-0.56 1-0.17 2.1-0.23 3.4-0.17 2.2 0.1 3.8 0.53 5 1.3 1.2 0.77 1.7 2.1 1.7 3.9l-0.48 11 1.5 0.49-0.019 0.41c-0.32 0.18-0.78 0.33-1.4 0.44-0.58 0.13-1.2 0.18-1.9 0.15-1.1-0.049-1.9-0.25-2.4-0.62s-0.94-0.84-1.1-1.4l-0.15-0.0068c-0.48 0.59-1.1 1-1.8 1.4-0.7 0.3-1.6 0.43-2.6 0.39-1.3-0.06-2.3-0.49-3.1-1.3-0.77-0.83-1.1-1.9-1.1-3.3 0.062-1.4 0.54-2.4 1.4-3.1 0.88-0.75 2.2-1.2 3.9-1.5zm1.9 7.3c0.34 0.016 0.61-0.021 0.83-0.11 0.22-0.088 0.4-0.22 0.55-0.39l0.3-6.5-1.1 0.038c-0.85 0.04-1.5 0.35-1.8 0.92-0.38 0.56-0.6 1.4-0.65 2.6-0.06 1.3 0.086 2.2 0.44 2.7 0.37 0.47 0.86 0.72 1.5 0.75z" fill="#fff"/>
 <path d="m194 16-9.7-0.45c7e-3 2 0.38 3.6 1.1 4.8 0.76 1.2 2.2 1.8 4.2 1.9 0.67 0.031 1.3 0.011 1.9-0.061 0.6-0.071 1.2-0.21 1.7-0.42l-0.022 0.47c-0.48 0.67-1.3 1.3-2.4 1.8-1.1 0.54-2.5 0.77-4.1 0.7-2.7-0.13-4.7-0.99-6.1-2.6-1.3-1.6-1.9-3.8-1.8-6.4 0.12-2.6 0.93-4.6 2.4-6 1.5-1.5 3.5-2.1 6-2 2.5 0.11 4.3 0.85 5.3 2.2 1.1 1.3 1.5 3.2 1.4 5.6l-0.019 0.41zm-6.9-7.7c-0.77-0.035-1.4 0.48-1.9 1.5-0.48 1.1-0.78 2.8-0.89 5.1l4.6 0.0043c0.12-2.5 0.018-4.2-0.3-5.2-0.29-0.94-0.79-1.4-1.5-1.5z" fill="#fff"/>
 <path d="m175 23 2.1 0.57-0.023 0.5-9.2-0.43 0.023-0.5 1.7-0.39 0.65-14-1.8-0.083 0.024-0.53 1.8-0.51 0.077-1.7c0.046-1 0.25-1.8 0.62-2.5 0.39-0.69 0.88-1.2 1.5-1.7 0.61-0.43 1.3-0.72 2.1-0.88 0.8-0.16 1.6-0.22 2.5-0.18 0.69 0.032 1.3 0.081 1.9 0.15 0.57 0.066 1.2 0.18 2 0.33l-0.13 4.8-0.5-0.023-2.7-4.7c-0.57-0.026-1 0.22-1.3 0.74-0.28 0.5-0.45 1.5-0.52 2.9l-0.14 2.9 3 0.14-0.052 1.1-3-0.14-0.65 14z" fill="#fff"/>
 <path d="m153 10h-2.3v-0.54l2.3-0.6v-3.2l5.4-0.86v4.1h3.6v1.1h-3.6v11c0 0.84 0.16 1.4 0.48 1.8 0.32 0.36 0.92 0.54 1.8 0.54 0.28 0 0.55-0.01 0.8-0.03 0.28-0.04 0.51-0.08 0.69-0.12v0.51c-0.48 0.5-1.1 0.95-1.9 1.4-0.77 0.4-1.6 0.6-2.6 0.6-1.6 0-2.7-0.39-3.5-1.2-0.77-0.78-1.2-2-1.2-3.8v-11z" fill="#fff"/>
 <path d="m138 9.4 6.9-0.92 0.56 0.057v4.5h0.16c0.44-1.7 1-2.9 1.7-3.6 0.73-0.73 1.6-1.1 2.5-1.1 0.14 0 0.3 0.0095 0.47 0.029 0.17 0.019 0.29 0.048 0.37 0.086v4.7c-0.14-0.038-0.35-0.067-0.62-0.086-0.25-0.019-0.51-0.029-0.78-0.029-0.77 0-1.5 0.038-2.1 0.11-0.6 0.076-1.2 0.21-1.7 0.4v10l2.3 0.43v0.49h-9.8v-0.49l1.8-0.43v-13l-1.9-0.69v-0.49z" fill="#fff"/>
 <path d="m128 26c-1.2 0-2.3-0.2-3.3-0.6-1-0.42-1.8-1-2.6-1.7-0.71-0.76-1.3-1.7-1.7-2.8-0.38-1.1-0.58-2.3-0.58-3.6 0-1.3 0.19-2.5 0.58-3.6 0.38-1.1 0.93-2 1.6-2.7 0.71-0.74 1.6-1.3 2.5-1.7 1-0.4 2.1-0.6 3.3-0.6 1.2 0 2.3 0.2 3.3 0.6s1.8 0.97 2.6 1.7c0.71 0.72 1.3 1.6 1.6 2.7 0.4 1.1 0.6 2.3 0.6 3.6s-0.19 2.5-0.57 3.6-0.93 2-1.6 2.8c-0.71 0.74-1.6 1.3-2.6 1.7-1 0.4-2.1 0.6-3.3 0.6zm0-17c-0.4 0-0.76 0.12-1.1 0.36-0.29 0.22-0.54 0.63-0.75 1.2-0.19 0.6-0.34 1.4-0.46 2.5-0.096 1-0.14 2.4-0.14 4 0 1.6 0.048 3 0.14 4 0.12 1 0.27 1.9 0.46 2.5 0.21 0.62 0.47 1.1 0.78 1.3 0.31 0.24 0.66 0.36 1.1 0.36s0.75-0.12 1-0.36c0.31-0.26 0.56-0.69 0.75-1.3 0.19-0.62 0.34-1.5 0.43-2.5 0.12-1.1 0.17-2.4 0.17-4 0-1.6-0.048-2.9-0.14-4s-0.25-1.9-0.46-2.5c-0.19-0.6-0.44-1-0.75-1.2-0.31-0.24-0.66-0.36-1.1-0.36z" fill="#fff"/>
 <path d="m119 14c0.087 1.6-0.045 2.9-0.4 4.1-0.33 1.2-0.82 2.1-1.5 2.9-0.65 0.75-1.4 1.3-2.3 1.7-0.89 0.38-1.8 0.6-2.8 0.66-0.61 0.034-1.2 0.025-1.7-0.027-0.48-0.053-0.84-0.11-1.1-0.18l0.3 5.4 1.9 0.31 0.028 0.5-9 0.5-0.027-0.5 1.7-0.51-1.1-20-1.8-0.61-0.028-0.5 6.5-1.3 0.62 0.025 0.1 1.9 0.18-0.0098c0.39-0.52 0.95-1 1.7-1.5 0.74-0.48 1.7-0.74 2.7-0.8 0.77-0.042 1.5 0.066 2.2 0.32 0.7 0.24 1.3 0.66 1.8 1.3 0.55 0.6 0.99 1.4 1.3 2.4 0.35 1 0.57 2.2 0.65 3.7zm-5.6 0.9c-0.14-2.5-0.48-4.1-1-5-0.56-0.86-1.3-1.3-2.2-1.2-0.34 0.018-0.65 0.075-0.94 0.17-0.29 0.075-0.54 0.16-0.76 0.25l0.72 13c0.2 0.13 0.44 0.24 0.7 0.35 0.26 0.1 0.58 0.15 0.96 0.13 0.93-0.051 1.6-0.65 2.1-1.8 0.47-1.2 0.63-3.1 0.47-6z" fill="#fff"/>
 <path d="m101 15c0.087 1.6-0.045 2.9-0.4 4.1-0.33 1.2-0.82 2.1-1.5 2.9-0.65 0.75-1.4 1.3-2.3 1.7-0.89 0.38-1.8 0.6-2.8 0.66-0.61 0.034-1.2 0.025-1.7-0.027-0.48-0.053-0.84-0.11-1.1-0.18l0.3 5.4 1.9 0.31 0.028 0.5-9 0.5-0.028-0.5 1.7-0.51-1.1-20-1.8-0.61-0.028-0.5 6.5-1.3 0.62 0.025 0.1 1.9 0.18-0.0098c0.39-0.52 0.95-1 1.7-1.5 0.74-0.48 1.7-0.74 2.7-0.8 0.77-0.042 1.5 0.066 2.2 0.32 0.7 0.24 1.3 0.66 1.8 1.3 0.55 0.6 0.99 1.4 1.3 2.4 0.35 1 0.57 2.2 0.65 3.7zm-5.6 0.9c-0.14-2.5-0.48-4.1-1-5-0.56-0.86-1.3-1.3-2.2-1.2-0.33 0.018-0.65 0.075-0.94 0.17-0.29 0.075-0.54 0.16-0.76 0.25l0.72 13c0.2 0.13 0.44 0.24 0.7 0.35 0.26 0.1 0.58 0.15 0.96 0.13 0.93-0.051 1.6-0.65 2.1-1.8s0.63-3.1 0.47-6z" fill="#fff"/>
 <path d="m66 12-1.8-0.61-0.028-0.5 6.4-1.3 0.71 0.02 0.67 12c0.05 0.91 0.26 1.5 0.63 1.8 0.39 0.29 0.91 0.42 1.6 0.39 0.37-0.021 0.72-0.079 1-0.18 0.33-0.12 0.65-0.25 0.96-0.41l-0.66-12-1.8-0.61-0.028-0.5 6.4-1.3 0.65 0.023 0.8 15 1.8 0.61 0.028 0.5-6.3 1.4-0.65-0.023-0.11-2.1-0.18 0.0098c-0.58 0.64-1.3 1.2-2 1.7-0.78 0.46-1.7 0.71-2.7 0.77-1.5 0.085-2.7-0.28-3.5-1.1-0.78-0.81-1.2-1.9-1.3-3.3l-0.56-10z" fill="#fff"/>
 <path d="m56 27c-1.2 0.066-2.4 0.034-3.6-0.097-1.2-0.13-2.2-0.34-2.9-0.61l-0.62-5.8 0.5-0.028 5 5.9c0.26 0.065 0.52 0.12 0.78 0.16 0.28 0.024 0.54 0.03 0.77 0.017 1.3-0.072 2.3-0.43 2.9-1.1s0.89-1.5 0.83-2.6c-0.059-1.1-0.44-1.9-1.1-2.5-0.69-0.61-1.8-1.2-3.3-1.6l-1.2-0.41c-1.7-0.6-3-1.4-3.9-2.3-0.9-0.98-1.4-2.3-1.5-4-0.051-0.93 0.049-1.8 0.3-2.6 0.25-0.84 0.67-1.6 1.3-2.2 0.6-0.63 1.4-1.1 2.3-1.5 0.99-0.39 2.2-0.62 3.5-0.7 1.4-0.075 2.5-0.048 3.4 0.08 0.92 0.13 1.7 0.28 2.4 0.46l0.63 5.5-0.5 0.028-4.6-5.4c-0.2-0.068-0.41-0.12-0.63-0.14-0.2-0.029-0.42-0.036-0.65-0.023-1.2 0.065-2.1 0.42-2.6 1.1s-0.81 1.5-0.75 2.4c0.051 0.93 0.37 1.7 0.95 2.2 0.58 0.56 1.6 1 3 1.4l1.2 0.41c0.95 0.3 1.8 0.62 2.5 0.96 0.77 0.31 1.4 0.71 1.9 1.2 0.54 0.46 0.96 1 1.3 1.7 0.31 0.69 0.5 1.6 0.56 2.6 0.12 2.3-0.53 4.1-2 5.4-1.4 1.3-3.5 2-6.1 2.2z" fill="#fff"/>
</svg>
