<svg width="120" height="40" viewBox="0 0 120 40" xmlns="http://www.w3.org/2000/svg"><g fill-rule="nonzero" fill="none"><path d="M110.444 0H9.56c-.367 0-.73 0-1.097.002-.307.002-.612.008-.922.013-.673.008-1.345.067-2.01.177a6.697 6.697 0 0 0-1.906.627 6.455 6.455 0 0 0-2.804 2.8 6.588 6.588 0 0 0-.627 1.903 12.958 12.958 0 0 0-.18 2.002c-.01.306-.01.614-.015.92V31.56c.005.31.006.61.015.922.008.67.068 1.34.18 2.001.11.663.322 1.306.627 1.905A6.209 6.209 0 0 0 2.003 38a6.291 6.291 0 0 0 1.623 1.179c.6.304 1.243.517 1.907.63a13.53 13.53 0 0 0 2.01.177c.31.007.614.011.92.011.367.002.73.002 1.098.002h100.883c.36 0 .727 0 1.087-.002.306 0 .619-.004.924-.01a13.353 13.353 0 0 0 2.006-.177 6.837 6.837 0 0 0 1.914-.631A6.294 6.294 0 0 0 117.996 38a6.396 6.396 0 0 0 1.185-1.614c.303-.6.512-1.242.621-1.905.112-.661.174-1.33.186-2.001.004-.311.004-.612.004-.922.008-.364.008-.725.008-1.094V9.536c0-.366 0-.73-.008-1.092 0-.306 0-.614-.004-.92a13.47 13.47 0 0 0-.186-2.002 6.605 6.605 0 0 0-.62-1.904 6.475 6.475 0 0 0-2.807-2.8 6.8 6.8 0 0 0-1.914-.627c-.663-.11-1.333-.169-2.006-.176-.305-.005-.618-.011-.924-.013-.36-.002-.727-.002-1.087-.002z" fill="#A6A6A6"/><path d="M8.577 38.998c-.305 0-.602-.004-.905-.01a12.787 12.787 0 0 1-1.87-.163 5.918 5.918 0 0 1-1.658-.544 5.408 5.408 0 0 1-1.398-1.01 5.288 5.288 0 0 1-1.021-1.387 5.655 5.655 0 0 1-.544-1.646 12.244 12.244 0 0 1-.166-1.863c-.007-.21-.015-.907-.015-.907V8.519s.009-.686.015-.888c.007-.623.063-1.245.165-1.86a5.688 5.688 0 0 1 .544-1.651 5.568 5.568 0 0 1 2.42-2.404 5.857 5.857 0 0 1 1.654-.54c.62-.102 1.248-.156 1.877-.164L8.578 1h102.84l.913.013c.623.007 1.245.061 1.86.161a5.973 5.973 0 0 1 1.672.544 5.577 5.577 0 0 1 2.417 2.404c.26.516.441 1.069.535 1.638.104.62.162 1.247.174 1.875.003.282.003.584.003.884.008.373.008.728.008 1.085v20.79c0 .362 0 .714-.008 1.069 0 .323 0 .619-.004.924a12.558 12.558 0 0 1-.17 1.84 5.672 5.672 0 0 1-.541 1.66 5.446 5.446 0 0 1-1.017 1.376 5.415 5.415 0 0 1-1.4 1.016 5.896 5.896 0 0 1-1.669.546c-.619.1-1.244.155-1.87.162-.294.007-.6.011-.899.011l-1.084.002-101.76-.002z" fill="#000"/><path d="M25.034 20.51a5.105 5.105 0 0 1 2.394-4.272 5.13 5.13 0 0 0-4.055-2.22c-1.706-.18-3.36 1.034-4.23 1.034-.885 0-2.224-1.016-3.665-.986a5.392 5.392 0 0 0-4.545 2.807c-1.965 3.445-.5 8.508 1.383 11.293.942 1.363 2.042 2.887 3.483 2.833 1.409-.06 1.935-.91 3.636-.91 1.685 0 2.18.91 3.649.875 1.512-.025 2.465-1.37 3.373-2.746A11.337 11.337 0 0 0 28 25.036a4.922 4.922 0 0 1-2.966-4.526z" fill="#FFF"/><path d="M21.968 12.476A5.145 5.145 0 0 0 22.987 9c-1.133.13-2.18.72-2.932 1.653-.743.92-1.12 2.124-1.046 3.347 1.149.013 2.24-.549 2.96-1.524zM41.84 26.757h-4.713L35.996 30H34l4.463-12h2.074L45 30h-2.03l-1.13-3.243zm-4.225-1.497h3.736l-1.842-5.264h-.051l-1.843 5.264zM55 25.568c0 2.78-1.59 4.566-3.987 4.566-1.24.061-2.407-.547-3.006-1.565h-.046V33H46V21.095h1.898v1.488h.036c.626-1.011 1.795-1.619 3.043-1.581 2.425 0 4.023 1.794 4.023 4.566zm-2.016 0c0-1.81-1-3.001-2.525-3.001-1.498 0-2.506 1.215-2.506 3.001 0 1.803 1.008 3.01 2.506 3.01 1.526 0 2.525-1.182 2.525-3.01zM65 25.568c0 2.78-1.59 4.566-3.987 4.566-1.24.061-2.407-.547-3.006-1.565h-.046V33H56V21.095h1.898v1.488h.036c.626-1.011 1.795-1.619 3.043-1.581 2.425 0 4.023 1.794 4.023 4.566zm-2.016 0c0-1.81-1-3.001-2.525-3.001-1.498 0-2.506 1.215-2.506 3.001 0 1.803 1.008 3.01 2.506 3.01 1.526 0 2.525-1.182 2.525-3.01zM71.997 27.285c.144 1.248 1.4 2.067 3.116 2.067 1.644 0 2.827-.82 2.827-1.944 0-.977-.714-1.561-2.403-1.962l-1.69-.393c-2.392-.558-3.504-1.638-3.504-3.391 0-2.171 1.96-3.662 4.743-3.662 2.754 0 4.642 1.49 4.706 3.662h-1.97c-.117-1.256-1.192-2.014-2.764-2.014-1.57 0-2.646.767-2.646 1.883 0 .89.687 1.413 2.367 1.813l1.436.34c2.674.611 3.785 1.648 3.785 3.488C80 29.526 78.058 31 74.968 31c-2.89 0-4.842-1.44-4.968-3.715h1.997zM83.245 19v2.095H85v1.44h-1.755v4.88c0 .758.351 1.112 1.123 1.112.208-.004.416-.018.623-.042v1.43c-.347.062-.7.09-1.052.084-1.869 0-2.597-.673-2.597-2.39v-5.075H80v-1.439h1.342V19h1.903zM86 25.5c0-2.763 1.758-4.5 4.5-4.5 2.75 0 4.5 1.736 4.5 4.5 0 2.771-1.74 4.5-4.5 4.5S86 28.271 86 25.5zm7.016 0c0-1.896-.939-3.015-2.517-3.015-1.577 0-2.515 1.128-2.515 3.015 0 1.903.938 3.014 2.515 3.014 1.578 0 2.517-1.11 2.517-3.014zM96 21.095h1.914v1.515h.047c.267-.975 1.248-1.647 2.351-1.608.232-.001.462.022.688.068v1.71a3.063 3.063 0 0 0-.902-.11 2.126 2.126 0 0 0-1.563.585 1.74 1.74 0 0 0-.528 1.463V30H96v-8.905zM108.9 27.311c-.242 1.595-1.79 2.689-3.771 2.689-2.548 0-4.129-1.712-4.129-4.458 0-2.755 1.59-4.542 4.053-4.542 2.423 0 3.947 1.67 3.947 4.332v.618h-6.185v.109a2.292 2.292 0 0 0 .618 1.777c.45.476 1.083.735 1.738.71a1.98 1.98 0 0 0 2.022-1.235h1.707zm-6.077-2.621h4.378a2.116 2.116 0 0 0-.588-1.585 2.103 2.103 0 0 0-1.56-.644 2.214 2.214 0 0 0-1.578.648 2.227 2.227 0 0 0-.652 1.581zM38.162 9.007a2.653 2.653 0 0 1 2.817 2.978c0 1.914-1.034 3.015-2.817 3.015H36V9.007h2.162zm-1.232 5.145h1.128a1.88 1.88 0 0 0 1.975-2.155 1.89 1.89 0 0 0-1.975-2.143H36.93v4.298zM42.01 12.498c-.073-.863.29-1.698.936-2.155a1.793 1.793 0 0 1 2.108 0c.646.457 1.009 1.292.937 2.155.073.864-.29 1.7-.936 2.158a1.793 1.793 0 0 1-2.11 0c-.647-.458-1.01-1.294-.936-2.158zm3.124 0c0-1.044-.411-1.654-1.133-1.654-.724 0-1.131.61-1.131 1.654 0 1.052.407 1.657 1.131 1.657.722 0 1.133-.61 1.133-1.657zM51.811 15h-.886l-.895-3.683h-.068L49.072 15h-.879L47 10h.867l.775 3.815h.064l.89-3.815h.82l.89 3.815h.068L52.146 10H53zM54 10.1h.891v.778h.07c.24-.573.802-.924 1.399-.873.462-.036.915.149 1.231.503.316.355.46.84.393 1.32V15h-.926v-2.93c0-.787-.328-1.179-1.012-1.179a1.053 1.053 0 0 0-.833.352c-.216.239-.32.564-.287.89V15H54v-4.9zM59.056 9h.888v6h-.888zM61.01 12.498c-.073-.863.29-1.698.936-2.155a1.793 1.793 0 0 1 2.108 0c.646.457 1.009 1.292.937 2.155.073.864-.29 1.7-.936 2.158a1.793 1.793 0 0 1-2.11 0c-.647-.458-1.01-1.294-.936-2.158zm3.123 0c0-1.044-.41-1.654-1.132-1.654-.724 0-1.131.61-1.131 1.654 0 1.052.407 1.657 1.131 1.657.721 0 1.132-.61 1.132-1.657zM66 13.55c0-.868.639-1.368 1.773-1.44l1.29-.074v-.416c0-.51-.332-.797-.975-.797-.525 0-.889.195-.993.536h-.911C66.28 10.53 67.05 10 68.131 10c1.195 0 1.869.602 1.869 1.62v3.293h-.905v-.678h-.075a1.599 1.599 0 0 1-1.431.757 1.43 1.43 0 0 1-1.111-.365A1.463 1.463 0 0 1 66 13.55zm3.064-.412v-.403l-1.164.075c-.657.045-.954.27-.954.695 0 .434.372.687.883.687.303.03.606-.064.838-.263a1.14 1.14 0 0 0 .397-.791zM71 12.795c0-1.348.696-2.201 1.778-2.201a1.413 1.413 0 0 1 1.313.748h.064V9H75v5.929h-.81v-.674h-.067a1.488 1.488 0 0 1-1.345.744c-1.09 0-1.778-.854-1.778-2.204zm.873 0c0 .904.428 1.448 1.145 1.448.712 0 1.152-.552 1.152-1.444 0-.89-.444-1.45-1.152-1.45-.712 0-1.145.549-1.145 1.446zM79.01 12.498c-.073-.863.29-1.698.936-2.155a1.793 1.793 0 0 1 2.108 0c.646.457 1.009 1.292.937 2.155.073.864-.29 1.7-.936 2.158a1.793 1.793 0 0 1-2.11 0c-.647-.458-1.01-1.294-.936-2.158zm3.124 0c0-1.044-.411-1.654-1.133-1.654-.724 0-1.131.61-1.131 1.654 0 1.052.407 1.657 1.131 1.657.722 0 1.133-.61 1.133-1.657zM85 10.1h.891v.778h.07c.24-.573.802-.924 1.399-.873.462-.036.915.149 1.231.503.316.355.46.84.393 1.32V15h-.926v-2.93c0-.787-.328-1.179-1.012-1.179a1.053 1.053 0 0 0-.833.352c-.216.239-.32.564-.287.89V15H85v-4.9zM93.866 9v1.213H95v.795h-1.134v2.459c0 .5.226.72.74.72.132 0 .263-.007.394-.021v.786c-.186.03-.374.046-.562.048-1.15 0-1.607-.37-1.607-1.291v-2.701H92v-.795h.831V9h1.035zM96 9h.906v2.378h.073c.249-.51.813-.818 1.412-.773.454-.023.895.144 1.204.455.308.311.452.734.391 1.154V15h-.915v-2.576c0-.69-.344-1.038-.99-1.038a1.129 1.129 0 0 0-.857.294.969.969 0 0 0-.31.8V15H96V9zM104.948 13.599c-.243.906-1.044 1.491-1.902 1.39a1.918 1.918 0 0 1-1.538-.726 2.322 2.322 0 0 1-.49-1.754c-.077-.636.101-1.278.49-1.76a1.952 1.952 0 0 1 1.534-.749c1.221 0 1.958.913 1.958 2.421v.331h-3.099v.053c-.027.357.084.71.306.971.223.262.536.41.863.405.424.056.836-.174 1.044-.582h.834zm-3.047-1.548h2.217a1.226 1.226 0 0 0-.289-.884 1.016 1.016 0 0 0-.792-.36 1.075 1.075 0 0 0-.808.36 1.29 1.29 0 0 0-.328.884z" fill="#FFF"/></g></svg>
