<svg width="135" height="40" viewBox="0 0 135 40" xmlns="http://www.w3.org/2000/svg"><defs><linearGradient x1="61.231%" y1="4.839%" x2="26.324%" y2="71.968%" id="a"><stop stop-color="#00A0FF" offset="0%"/><stop stop-color="#00A1FF" offset=".657%"/><stop stop-color="#00BEFF" offset="26.01%"/><stop stop-color="#00D2FF" offset="51.22%"/><stop stop-color="#00DFFF" offset="76.04%"/><stop stop-color="#00E3FF" offset="100%"/></linearGradient><linearGradient x1="107.728%" y1="49.428%" x2="-130.665%" y2="49.428%" id="b"><stop stop-color="#FFE000" offset="0%"/><stop stop-color="#FFBD00" offset="40.87%"/><stop stop-color="orange" offset="77.54%"/><stop stop-color="#FF9C00" offset="100%"/></linearGradient><linearGradient x1="86.389%" y1="31.179%" x2="-49.888%" y2="134.437%" id="c"><stop stop-color="#FF3A44" offset="0%"/><stop stop-color="#C31162" offset="100%"/></linearGradient><linearGradient x1="-18.579%" y1="-11.125%" x2="42.275%" y2="35.199%" id="d"><stop stop-color="#32A071" offset="0%"/><stop stop-color="#2DA771" offset="6.85%"/><stop stop-color="#15CF74" offset="47.62%"/><stop stop-color="#06E775" offset="80.09%"/><stop stop-color="#00F076" offset="100%"/></linearGradient></defs><g fill-rule="nonzero" fill="none"><path d="M130 40H5c-2.8 0-5-2.2-5-5V5c0-2.8 2.2-5 5-5h125c2.8 0 5 2.2 5 5v30c0 2.7-2.2 5-5 5z" fill="#000"/><path d="M130 .8c2.3 0 4.2 1.9 4.2 4.2v30c0 2.3-1.9 4.2-4.2 4.2H5C2.7 39.2.8 37.3.8 35V5C.8 2.7 2.7.8 5 .8h125zm0-.8H5C2.2 0 0 2.2 0 5v30c0 2.8 2.2 5 5 5h125c2.8 0 5-2.2 5-5V5c0-2.7-2.2-5-5-5z" fill="#A6A6A6"/><path d="M47 10.194c0 .774-.2 1.451-.7 1.935-.6.58-1.3.871-2.2.871-.9 0-1.6-.29-2.2-.871-.6-.58-.9-1.258-.9-2.129s.3-1.548.9-2.129c.6-.58 1.3-.871 2.2-.871.4 0 .8.097 1.2.29.4.194.7.387.9.678l-.5.484c-.4-.484-.9-.678-1.6-.678-.6 0-1.2.194-1.6.678-.5.387-.7.967-.7 1.645 0 .677.2 1.258.7 1.645.5.387 1 .677 1.6.677.7 0 1.2-.193 1.7-.677.3-.29.5-.677.5-1.161h-2.2v-.678H47v.29zM52 7.7h-3.086v1.9h2.857v.7h-2.857v1.9H52v.8h-4V7h4zM55.381 13h-.762V7.7H53V7h4v.7h-1.619zM60.1 13V7h.8v6zM64.439 13h-.78V7.7H62V7h4v.7h-1.659V13zM73.129 12.129c-.58.58-1.258.871-2.129.871s-1.548-.29-2.129-.871C68.291 11.549 68 10.871 68 10s.29-1.548.871-2.129C69.451 7.291 70.129 7 71 7s1.548.29 2.129.871c.58.58.871 1.258.871 2.129s-.29 1.548-.871 2.129zm-3.677-.484c.387.387.967.678 1.548.678.58 0 1.161-.194 1.548-.678.387-.387.678-.968.678-1.645s-.194-1.258-.678-1.645c-.387-.387-.967-.678-1.548-.678-.58 0-1.161.194-1.548.678A2.335 2.335 0 0 0 68.774 10c0 .677.194 1.258.678 1.645zM75 13V7h.978l3.152 4.7V7H80v6h-.87l-3.37-4.9V13z" stroke="#FFF" stroke-width=".2" fill="#FFF"/><path d="M68.128 21.728c-2.412 0-4.32 1.81-4.32 4.325a4.29 4.29 0 0 0 4.32 4.326c2.411 0 4.32-1.811 4.32-4.326 0-2.615-1.909-4.325-4.32-4.325zm0 6.84c-1.306 0-2.412-1.106-2.412-2.615 0-1.51 1.106-2.616 2.412-2.616 1.306 0 2.411 1.006 2.411 2.616 0 1.509-1.105 2.615-2.411 2.615zm-9.344-6.84c-2.412 0-4.32 1.81-4.32 4.325a4.29 4.29 0 0 0 4.32 4.326c2.411 0 4.32-1.811 4.32-4.326 0-2.615-1.909-4.325-4.32-4.325zm0 6.84c-1.306 0-2.412-1.106-2.412-2.615 0-1.51 1.106-2.616 2.412-2.616 1.306 0 2.411 1.006 2.411 2.616 0 1.509-1.105 2.615-2.411 2.615zM47.63 23.036v1.81h4.32c-.1 1.006-.502 1.81-1.004 2.314-.603.603-1.608 1.307-3.316 1.307-2.713 0-4.722-2.112-4.722-4.828s2.11-4.828 4.722-4.828c1.407 0 2.512.603 3.316 1.307l1.306-1.307C51.148 17.805 49.741 17 47.732 17 44.115 17 41 20.018 41 23.64c0 3.62 3.115 6.638 6.732 6.638 2.01 0 3.416-.603 4.621-1.911 1.206-1.207 1.608-2.917 1.608-4.225 0-.402 0-.805-.1-1.106h-6.23zm45.615 1.408c-.402-1.006-1.407-2.716-3.617-2.716s-4.02 1.71-4.02 4.325c0 2.414 1.81 4.326 4.22 4.326 1.91 0 3.115-1.207 3.517-1.912l-1.406-1.005c-.503.704-1.105 1.207-2.11 1.207s-1.608-.403-2.11-1.308l5.727-2.414-.201-.503zm-5.828 1.408c0-1.61 1.307-2.515 2.21-2.515.704 0 1.407.403 1.608.906l-3.818 1.61zm-4.722 4.124h1.91V17.402h-1.91v12.574zm-3.014-7.343c-.502-.503-1.306-1.006-2.31-1.006-2.11 0-4.12 1.911-4.12 4.326 0 2.414 1.909 4.225 4.12 4.225 1.004 0 1.808-.503 2.21-1.006h.1v.603c0 1.61-.904 2.515-2.31 2.515-1.106 0-1.91-.805-2.11-1.509l-1.608.704C74.156 32.592 75.362 34 77.472 34c2.21 0 4.019-1.308 4.019-4.426v-7.645h-1.809v.704zm-2.21 5.935c-1.307 0-2.412-1.106-2.412-2.615 0-1.51 1.105-2.616 2.412-2.616 1.306 0 2.31 1.107 2.31 2.616 0 1.509-1.004 2.615-2.31 2.615zm24.515-11.166h-4.521v12.574h1.909V25.25h2.612c2.11 0 4.12-1.51 4.12-3.924 0-2.414-2.01-3.923-4.12-3.923zm.1 6.036h-2.712v-4.326h2.712c1.407 0 2.21 1.208 2.21 2.113-.1 1.106-.903 2.213-2.21 2.213zm11.555-1.81c-1.407 0-2.813.603-3.316 1.91l1.708.705c.402-.705 1.005-.906 1.708-.906 1.005 0 1.91.604 2.01 1.61v.1c-.302-.2-1.105-.503-1.91-.503-1.808 0-3.616 1.006-3.616 2.817 0 1.71 1.507 2.817 3.114 2.817 1.307 0 1.91-.604 2.412-1.208h.1v1.006h1.809v-4.828c-.201-2.213-1.91-3.52-4.02-3.52zm-.201 6.94c-.603 0-1.507-.302-1.507-1.106 0-1.006 1.105-1.308 2.01-1.308.803 0 1.205.201 1.707.402-.2 1.207-1.205 2.012-2.21 2.012zm10.55-6.639l-2.11 5.432h-.1l-2.211-5.432h-2.01l3.316 7.645-1.91 4.225h1.91L126 21.929h-2.01zm-16.88 8.047h1.91V17.402h-1.91v12.574z" fill="#FFF"/><path d="M10.5 8c-.3.3-.5.8-.5 1.4v22.1c0 .6.2 1.1.5 1.4l.1.1L23 20.6v-.2L10.5 8z" fill="url(#a)"/><path d="M27.04 25L23 20.659v-.318L27.04 16l.098.106 4.828 2.965c1.379.847 1.379 2.223 0 3.07L27.039 25z" fill="url(#b)"/><path d="M27 24.236L22.725 20 10 32.608c.509.504 1.222.504 2.138.101L27 24.236" fill="url(#c)"/><path d="M27 15.744l-14.862-8.41c-.916-.508-1.629-.406-2.138.1L22.725 20 27 15.744z" fill="url(#d)"/><path d="M27 24l-14.85 8.445c-.819.515-1.536.412-2.048 0l-.102.103.102.103c.512.412 1.23.515 2.049 0L27 24z" fill="#000" opacity=".2"/><path d="M10.65 32.867c-.3-.4-.4-1.067-.4-1.867v.133c0 .8.2 1.467.5 1.867v-.133h-.1zM32 21.238l-5 2.667.1.095 4.9-2.667c.7-.38 1-.857 1-1.333 0 .476-.4.857-1 1.238z" fill="#000" opacity=".12"/><path d="M12.5 7.438L32 18.683c.6.405 1 .81 1 1.317 0-.507-.3-1.013-1-1.418L12.5 7.337c-1.4-.81-2.5-.102-2.5 1.52v.1c0-1.62 1.1-2.33 2.5-1.519z" fill="#FFF" opacity=".25"/></g></svg>
