<svg viewBox="0 0 349 201" fill="none" xmlns="http://www.w3.org/2000/svg">
<path d="M12.1 48L3 14.55L0.4 12.8V11.95H16.25V12.8L13.2 14.3L18.95 37.15H19.25L25.45 11.95H31.05L38.8 37.7H39.15L44.4 15.2L39.6 12.8V11.95H49.4V12.8L45.45 15.3L37.75 48H32.15L24.35 22.15H24L17.7 48H12.1ZM50.1164 47.15L52.9664 46.35V12.15L49.9664 10.95V10.1L60.8164 8.5L61.9664 8.65V23.7H62.2664C63.4331 22.5 64.8497 21.5833 66.5164 20.95C68.1831 20.2833 69.8664 19.95 71.5664 19.95C73.9331 19.95 75.6664 20.5333 76.7664 21.7C77.8664 22.8667 78.4164 24.7 78.4164 27.2V46.35L81.2664 47.15V48H66.7664V47.15L69.3164 46.5V27.7C69.3164 26.3667 69.0164 25.3833 68.4164 24.75C67.8164 24.1167 66.9331 23.8 65.7664 23.8C65.0331 23.8 64.3664 23.8833 63.7664 24.05C63.1997 24.2167 62.6497 24.4333 62.1164 24.7V46.5L64.6164 47.15V48H50.1164V47.15ZM97.1246 50.4C96.3246 52.7667 95.1413 54.7167 93.5746 56.25C92.0079 57.7833 89.9913 58.8167 87.5246 59.35L84.5746 53.95V53.2H95.1746L82.8246 22.6L80.4246 21.45V20.6H95.8246V21.45L92.7246 22.75L99.3746 41L105.125 23.6L101.225 21.45V20.6H109.175V21.45L106.175 23.45L97.1246 50.4Z" fill="white"/>
<path d="M134.771 50.4C133.971 52.7667 132.788 54.7167 131.221 56.25C129.654 57.7833 127.638 58.8167 125.171 59.35L122.221 53.95V53.2H132.821L120.471 22.6L118.071 21.45V20.6H133.471V21.45L130.371 22.75L137.021 41L142.771 23.6L138.871 21.45V20.6H146.821V21.45L143.821 23.45L134.771 50.4ZM160.064 48.75C157.997 48.75 156.097 48.4167 154.364 47.75C152.63 47.05 151.147 46.0833 149.914 44.85C148.68 43.5833 147.714 42.05 147.014 40.25C146.347 38.4167 146.014 36.4 146.014 34.2C146.014 32 146.347 30.0167 147.014 28.25C147.68 26.4833 148.63 25 149.864 23.8C151.097 22.5667 152.564 21.6167 154.264 20.95C155.997 20.2833 157.914 19.95 160.014 19.95C162.114 19.95 164.03 20.2833 165.764 20.95C167.497 21.6167 168.98 22.5667 170.214 23.8C171.447 25 172.397 26.5 173.064 28.3C173.764 30.0667 174.114 32.05 174.114 34.25C174.114 36.45 173.78 38.45 173.114 40.25C172.447 42.05 171.497 43.5833 170.264 44.85C169.03 46.0833 167.547 47.05 165.814 47.75C164.08 48.4167 162.164 48.75 160.064 48.75ZM160.064 20.85C159.364 20.85 158.747 21.05 158.214 21.45C157.714 21.8167 157.28 22.5 156.914 23.5C156.58 24.5 156.314 25.8833 156.114 27.65C155.947 29.3833 155.864 31.5833 155.864 34.25C155.864 36.95 155.947 39.1833 156.114 40.95C156.314 42.6833 156.58 44.0667 156.914 45.1C157.28 46.1333 157.73 46.85 158.264 47.25C158.797 47.65 159.414 47.85 160.114 47.85C160.814 47.85 161.414 47.65 161.914 47.25C162.447 46.8167 162.88 46.1 163.214 45.1C163.547 44.0667 163.797 42.6667 163.964 40.9C164.164 39.1333 164.264 36.9 164.264 34.2C164.264 31.5333 164.18 29.3333 164.014 27.6C163.847 25.8667 163.58 24.5 163.214 23.5C162.88 22.5 162.447 21.8167 161.914 21.45C161.38 21.05 160.764 20.85 160.064 20.85ZM178.154 23.75L175.154 22.55V21.7L186.104 20.1L187.304 20.2V40.9C187.304 42.4333 187.604 43.4667 188.204 44C188.837 44.5333 189.704 44.8 190.804 44.8C191.437 44.8 192.02 44.7333 192.554 44.6C193.12 44.4333 193.67 44.2333 194.204 44V23.75L191.204 22.55V21.7L202.154 20.1L203.254 20.2V44.85L206.204 46.05V46.9L195.404 48.6L194.304 48.5V45H194.004C192.97 46.0333 191.77 46.9167 190.404 47.65C189.037 48.35 187.504 48.7 185.804 48.7C183.204 48.7 181.27 47.9833 180.004 46.55C178.77 45.1167 178.154 43.2333 178.154 40.9V23.75ZM207.632 21.7L218.682 20.1L219.582 20.2V28H219.832C220.532 25.0333 221.449 22.9333 222.582 21.7C223.749 20.4333 225.099 19.8 226.632 19.8C226.866 19.8 227.116 19.8167 227.382 19.85C227.649 19.8833 227.849 19.9333 227.982 20V28.25C227.749 28.1833 227.416 28.1333 226.982 28.1C226.582 28.0667 226.166 28.05 225.732 28.05C224.499 28.05 223.399 28.1167 222.432 28.25C221.466 28.3833 220.582 28.6167 219.782 28.95V46.4L223.482 47.15V48H207.782V47.15L210.632 46.4V23.75L207.632 22.55V21.7Z" fill="#FFE500"/>
<path d="M163.8 191.15L166.65 190.4V167.75L163.65 166.55V165.7L174.5 164.1L175.6 164.2V167.8H175.9C177.067 166.6 178.333 165.667 179.7 165C181.067 164.3 182.633 163.95 184.4 163.95C185.967 163.95 187.25 164.25 188.25 164.85C189.25 165.417 190.017 166.417 190.55 167.85H190.75C191.983 166.617 193.3 165.667 194.7 165C196.133 164.3 197.733 163.95 199.5 163.95C201.733 163.95 203.45 164.55 204.65 165.75C205.85 166.917 206.45 168.75 206.45 171.25V190.4L209.35 191.15V192H195.25V191.15L197.5 190.4V171.4C197.5 170.167 197.217 169.283 196.65 168.75C196.083 168.183 195.233 167.9 194.1 167.9C193.567 167.9 193.017 167.983 192.45 168.15C191.917 168.317 191.433 168.517 191 168.75V190.4L193.25 191.15V192H179.95V191.15L182.25 190.4V171.4C182.25 170.167 181.983 169.283 181.45 168.75C180.917 168.183 180.067 167.9 178.9 167.9C178.267 167.9 177.683 168 177.15 168.2C176.65 168.367 176.183 168.567 175.75 168.8V190.4L177.95 191.15V192H163.8V191.15ZM219.276 177.05L225.276 175.9V172.25C225.276 169.483 224.943 167.567 224.276 166.5C223.643 165.433 222.56 164.9 221.026 164.9C220.86 164.9 220.693 164.917 220.526 164.95C220.36 164.95 220.193 164.967 220.026 165L213.276 174.15H212.426L212.626 165.65C213.926 165.25 215.41 164.867 217.076 164.5C218.743 164.133 220.643 163.95 222.776 163.95C226.443 163.95 229.31 164.55 231.376 165.75C233.443 166.95 234.476 169.1 234.476 172.2V190L237.126 190.7V191.4C236.593 191.733 235.826 192.017 234.826 192.25C233.86 192.517 232.81 192.65 231.676 192.65C229.876 192.65 228.493 192.367 227.526 191.8C226.56 191.233 225.876 190.45 225.476 189.45H225.226C224.46 190.483 223.493 191.3 222.326 191.9C221.16 192.467 219.726 192.75 218.026 192.75C215.826 192.75 214.043 192.1 212.676 190.8C211.31 189.467 210.626 187.617 210.626 185.25C210.626 182.95 211.343 181.15 212.776 179.85C214.21 178.517 216.376 177.583 219.276 177.05ZM222.976 189.15C223.543 189.15 224.01 189.067 224.376 188.9C224.743 188.733 225.043 188.5 225.276 188.2V177.2L223.426 177.35C221.993 177.483 220.976 178.05 220.376 179.05C219.776 180.017 219.476 181.517 219.476 183.55C219.476 185.75 219.793 187.233 220.426 188C221.093 188.767 221.943 189.15 222.976 189.15ZM240.932 166.5H237.032V165.6L240.932 164.6V159.2L250.032 157.75V164.6H256.082V166.5H250.032V184.7C250.032 186.1 250.298 187.117 250.832 187.75C251.365 188.35 252.382 188.65 253.882 188.65C254.348 188.65 254.798 188.633 255.232 188.6C255.698 188.533 256.082 188.467 256.382 188.4V189.25C255.582 190.083 254.515 190.85 253.182 191.55C251.882 192.217 250.415 192.55 248.782 192.55C246.182 192.55 244.215 191.9 242.882 190.6C241.582 189.3 240.932 187.183 240.932 184.25V166.5ZM261.146 166.5H257.246V165.6L261.146 164.6V159.2L270.246 157.75V164.6H276.296V166.5H270.246V184.7C270.246 186.1 270.513 187.117 271.046 187.75C271.58 188.35 272.596 188.65 274.096 188.65C274.563 188.65 275.013 188.633 275.446 188.6C275.913 188.533 276.296 188.467 276.596 188.4V189.25C275.796 190.083 274.73 190.85 273.396 191.55C272.096 192.217 270.63 192.55 268.996 192.55C266.396 192.55 264.43 191.9 263.096 190.6C261.796 189.3 261.146 187.183 261.146 184.25V166.5ZM303.123 177.35H286.723C286.89 180.717 287.64 183.383 288.973 185.35C290.34 187.283 292.756 188.25 296.223 188.25C297.356 188.25 298.423 188.167 299.423 188C300.423 187.833 301.39 187.55 302.323 187.15V187.95C301.556 189.117 300.24 190.217 298.373 191.25C296.506 192.25 294.223 192.75 291.523 192.75C286.923 192.75 283.44 191.45 281.073 188.85C278.706 186.217 277.523 182.667 277.523 178.2C277.523 173.833 278.74 170.383 281.173 167.85C283.64 165.283 286.956 164 291.123 164C295.323 164 298.373 165.1 300.273 167.3C302.173 169.467 303.123 172.583 303.123 176.65V177.35ZM290.923 164.95C289.623 164.95 288.59 165.867 287.823 167.7C287.09 169.533 286.723 172.417 286.723 176.35L294.473 176C294.473 171.733 294.173 168.833 293.573 167.3C293.006 165.733 292.123 164.95 290.923 164.95ZM305.007 165.7L316.057 164.1L316.957 164.2V172H317.207C317.907 169.033 318.824 166.933 319.957 165.7C321.124 164.433 322.474 163.8 324.007 163.8C324.241 163.8 324.491 163.817 324.757 163.85C325.024 163.883 325.224 163.933 325.357 164V172.25C325.124 172.183 324.791 172.133 324.357 172.1C323.957 172.067 323.541 172.05 323.107 172.05C321.874 172.05 320.774 172.117 319.807 172.25C318.841 172.383 317.957 172.617 317.157 172.95V190.4L320.857 191.15V192H305.157V191.15L308.007 190.4V167.75L305.007 166.55V165.7ZM340.093 174.05C342.66 175.25 344.61 176.517 345.943 177.85C347.276 179.183 347.943 181.1 347.943 183.6C347.943 186.4 346.976 188.617 345.043 190.25C343.11 191.85 340.326 192.65 336.693 192.65C335.06 192.65 333.426 192.533 331.793 192.3C330.16 192.1 328.676 191.75 327.343 191.25L327.043 183.15H327.893L335.043 191.5C335.276 191.567 335.526 191.633 335.793 191.7C336.06 191.733 336.31 191.75 336.543 191.75C338.076 191.75 339.193 191.367 339.893 190.6C340.626 189.833 340.993 188.817 340.993 187.55C340.993 186.417 340.66 185.55 339.993 184.95C339.326 184.35 338.21 183.683 336.643 182.95L334.993 182.2C332.493 181.033 330.543 179.75 329.143 178.35C327.776 176.95 327.093 175.1 327.093 172.8C327.093 170 328.026 167.817 329.893 166.25C331.76 164.683 334.36 163.9 337.693 163.9C339.06 163.9 340.46 163.967 341.893 164.1C343.326 164.233 344.61 164.467 345.743 164.8L345.993 172.35H345.143L339.693 165.05C339.393 164.95 339.093 164.883 338.793 164.85C338.493 164.783 338.21 164.75 337.943 164.75C336.61 164.75 335.626 165.1 334.993 165.8C334.36 166.5 334.043 167.417 334.043 168.55C334.043 169.783 334.376 170.7 335.043 171.3C335.71 171.9 336.876 172.583 338.543 173.35L340.093 174.05Z" fill="white"/>
<path d="M26.312 95.972C31.0347 98.18 34.6227 100.511 37.076 102.964C39.5293 105.417 40.756 108.944 40.756 113.544C40.756 118.696 38.9773 122.775 35.42 125.78C31.8627 128.724 26.7413 130.196 20.056 130.196C17.0507 130.196 14.0453 129.981 11.04 129.552C8.03465 129.184 5.30532 128.54 2.85198 127.62L2.29999 112.716L3.86399 112.716L17.02 128.08C17.4493 128.203 17.9093 128.325 18.4 128.448C18.8907 128.509 19.3507 128.54 19.78 128.54C22.6013 128.54 24.656 127.835 25.944 126.424C27.2933 125.013 27.968 123.143 27.968 120.812C27.968 118.727 27.3547 117.132 26.128 116.028C24.9013 114.924 22.8467 113.697 19.964 112.348L16.928 110.968C12.328 108.821 8.73999 106.46 6.16399 103.884C3.64932 101.308 2.39199 97.904 2.39199 93.672C2.39199 88.52 4.10933 84.5027 7.54399 81.62C10.9787 78.7373 15.7627 77.296 21.896 77.296C24.4107 77.296 26.9867 77.4187 29.624 77.664C32.2613 77.9093 34.6227 78.3387 36.708 78.952L37.168 92.844L35.604 92.844L25.576 79.412C25.024 79.228 24.472 79.1053 23.92 79.044C23.368 78.9213 22.8467 78.86 22.356 78.86C19.9027 78.86 18.0933 79.504 16.928 80.792C15.7627 82.08 15.18 83.7667 15.18 85.852C15.18 88.1213 15.7933 89.808 17.02 90.912C18.2467 92.016 20.3933 93.2733 23.46 94.684L26.312 95.972ZM48.7478 84.38L43.2278 82.172L43.2278 80.608L63.3758 77.664L65.5838 77.848L65.5838 115.936C65.5838 118.757 66.1358 120.659 67.2398 121.64C68.4051 122.621 69.9998 123.112 72.0238 123.112C73.1891 123.112 74.2624 122.989 75.2438 122.744C76.2864 122.437 77.2984 122.069 78.2798 121.64L78.2798 84.38L72.7598 82.172L72.7598 80.608L92.9078 77.664L94.9318 77.848L94.9318 123.204L100.36 125.412L100.36 126.976L80.4878 130.104L78.4638 129.92L78.4638 123.48L77.9118 123.48C76.0104 125.381 73.8024 127.007 71.2878 128.356C68.7731 129.644 65.9518 130.288 62.8238 130.288C58.0398 130.288 54.4824 128.969 52.1518 126.332C49.8824 123.695 48.7478 120.229 48.7478 115.936L48.7478 84.38ZM156.993 102.32C156.993 107.227 156.349 111.459 155.061 115.016C153.834 118.573 152.148 121.487 150.001 123.756C147.854 125.964 145.34 127.589 142.457 128.632C139.636 129.675 136.661 130.196 133.533 130.196C131.632 130.196 129.914 130.073 128.381 129.828C126.909 129.583 125.805 129.337 125.069 129.092L125.069 145.836L131.049 147.124L131.049 148.688L102.989 148.688L102.989 147.124L108.233 145.836L108.233 84.38L102.713 82.172L102.713 80.608L123.045 77.664L124.977 77.848L124.977 83.644L125.529 83.644C126.817 82.1107 128.657 80.7 131.049 79.412C133.441 78.0627 136.324 77.388 139.697 77.388C142.089 77.388 144.328 77.848 146.413 78.768C148.56 79.6267 150.4 81.0374 151.933 83C153.528 84.9627 154.754 87.5387 155.613 90.728C156.533 93.9174 156.993 97.7814 156.993 102.32ZM139.421 104.16C139.421 96.4934 138.624 91.28 137.029 88.52C135.434 85.76 133.226 84.38 130.405 84.38C129.362 84.38 128.381 84.5027 127.461 84.748C126.541 84.932 125.744 85.1467 125.069 85.392L125.069 126.056C125.682 126.485 126.388 126.884 127.185 127.252C127.982 127.62 128.964 127.804 130.129 127.804C133.012 127.804 135.281 126.056 136.937 122.56C138.593 119.064 139.421 112.931 139.421 104.16ZM214.134 102.32C214.134 107.227 213.49 111.459 212.202 115.016C210.975 118.573 209.288 121.487 207.142 123.756C204.995 125.964 202.48 127.589 199.598 128.632C196.776 129.675 193.802 130.196 190.674 130.196C188.772 130.196 187.055 130.073 185.522 129.828C184.05 129.583 182.946 129.337 182.21 129.092L182.21 145.836L188.19 147.124L188.19 148.688L160.13 148.688L160.13 147.124L165.374 145.836L165.374 84.38L159.854 82.172L159.854 80.608L180.186 77.664L182.118 77.848L182.118 83.644L182.67 83.644C183.958 82.1107 185.798 80.7 188.19 79.412C190.582 78.0627 193.464 77.388 196.838 77.388C199.23 77.388 201.468 77.848 203.554 78.768C205.7 79.6267 207.54 81.0374 209.074 83C210.668 84.9627 211.895 87.5387 212.754 90.728C213.674 93.9174 214.134 97.7814 214.134 102.32ZM196.562 104.16C196.562 96.4934 195.764 91.28 194.17 88.52C192.575 85.76 190.367 84.38 187.546 84.38C186.503 84.38 185.522 84.5027 184.602 84.748C183.682 84.932 182.884 85.1467 182.21 85.392L182.21 126.056C182.823 126.485 183.528 126.884 184.326 127.252C185.123 127.62 186.104 127.804 187.27 127.804C190.152 127.804 192.422 126.056 194.078 122.56C195.734 119.064 196.562 112.931 196.562 104.16ZM243.306 130.38C239.504 130.38 236.008 129.767 232.818 128.54C229.629 127.252 226.9 125.473 224.63 123.204C222.361 120.873 220.582 118.052 219.294 114.74C218.068 111.367 217.454 107.656 217.454 103.608C217.454 99.56 218.068 95.9107 219.294 92.66C220.521 89.4094 222.269 86.68 224.538 84.472C226.808 82.2027 229.506 80.4547 232.634 79.228C235.824 78.0014 239.35 77.388 243.214 77.388C247.078 77.388 250.605 78.0014 253.794 79.228C256.984 80.4547 259.713 82.2027 261.982 84.472C264.252 86.68 266 89.44 267.226 92.752C268.514 96.0027 269.158 99.652 269.158 103.7C269.158 107.748 268.545 111.428 267.318 114.74C266.092 118.052 264.344 120.873 262.074 123.204C259.805 125.473 257.076 127.252 253.886 128.54C250.697 129.767 247.17 130.38 243.306 130.38ZM243.306 79.044C242.018 79.044 240.884 79.412 239.902 80.148C238.982 80.8227 238.185 82.08 237.51 83.92C236.897 85.76 236.406 88.3054 236.038 91.556C235.732 94.7454 235.578 98.7934 235.578 103.7C235.578 108.668 235.732 112.777 236.038 116.028C236.406 119.217 236.897 121.763 237.51 123.664C238.185 125.565 239.013 126.884 239.994 127.62C240.976 128.356 242.11 128.724 243.398 128.724C244.686 128.724 245.79 128.356 246.71 127.62C247.692 126.823 248.489 125.504 249.102 123.664C249.716 121.763 250.176 119.187 250.482 115.936C250.85 112.685 251.034 108.576 251.034 103.608C251.034 98.7014 250.881 94.6534 250.574 91.464C250.268 88.2747 249.777 85.76 249.102 83.92C248.489 82.08 247.692 80.8227 246.71 80.148C245.729 79.412 244.594 79.044 243.306 79.044ZM271.716 80.608L292.048 77.664L293.704 77.848L293.704 92.2001L294.164 92.2001C295.452 86.7414 297.138 82.8774 299.224 80.6081C301.37 78.2774 303.854 77.1121 306.676 77.1121C307.105 77.1121 307.565 77.1427 308.056 77.2041C308.546 77.2654 308.914 77.3574 309.16 77.4801L309.16 92.6601C308.73 92.5374 308.117 92.4454 307.32 92.3841C306.584 92.3227 305.817 92.2921 305.02 92.2921C302.75 92.2921 300.726 92.4147 298.948 92.6601C297.169 92.9054 295.544 93.3347 294.072 93.9481L294.072 126.056L300.88 127.436L300.88 129L271.992 129L271.992 127.436L277.236 126.056L277.236 84.38L271.716 82.172L271.716 80.608ZM317.781 82.0801L310.605 82.08L310.605 80.4241L317.781 78.5841L317.781 68.6481L334.525 65.9801L334.525 78.5841L345.657 78.5841L345.657 82.0801L334.525 82.0801L334.525 115.568C334.525 118.144 335.016 120.015 335.997 121.18C336.978 122.284 338.849 122.836 341.609 122.836C342.468 122.836 343.296 122.805 344.093 122.744C344.952 122.621 345.657 122.499 346.209 122.376L346.209 123.94C344.737 125.473 342.774 126.884 340.321 128.172C337.929 129.399 335.23 130.012 332.225 130.012C327.441 130.012 323.822 128.816 321.369 126.424C318.977 124.032 317.781 120.137 317.781 114.74L317.781 82.0801Z" fill="#FFE500"/>
</svg>
