<svg width="19" height="19" fill="none" xmlns="http://www.w3.org/2000/svg"><path d="M9.5 0A9.487 9.487 0 000 9.5C0 14.757 4.243 19 9.5 19S19 14.757 19 9.5 14.757 0 9.5 0zm1.077 13.237v.464c-.106.085-.254.148-.401.232-.148.064-.317.127-.486.19a2.223 2.223 0 01-.507.127 4.124 4.124 0 01-.485.042c-.338 0-.55-.063-.676-.19a.548.548 0 01-.21-.422c0-.169.02-.338.041-.507.021-.169.064-.337.106-.549l.887-4.032-.824-.19V7.96c.127-.042.296-.106.528-.169.211-.063.443-.106.697-.148.253-.042.485-.084.717-.105.233-.021.444-.043.634-.043l.232.148-1.182 5.595h.929zm.4-7.094c-.19.17-.464.254-.78.254-.296 0-.55-.085-.76-.254a.834.834 0 01-.296-.654c0-.296.106-.528.296-.697.19-.169.443-.253.76-.253.337 0 .59.084.78.253.19.17.296.401.296.697-.02.274-.105.485-.295.654z" fill="#052962"/></svg>