<svg width="274" height="202" viewBox="0 0 274 202" fill="none" xmlns="http://www.w3.org/2000/svg">
<mask id="mask0_521_42865" style="mask-type:alpha" maskUnits="userSpaceOnUse" x="0" y="0" width="274" height="202">
<rect x="0.869263" y="0.00878906" width="273.077" height="201.41" rx="8" fill="#F6F6F6"/>
</mask>
<g mask="url(#mask0_521_42865)">
<path opacity="0.05" fill-rule="evenodd" clip-rule="evenodd" d="M279.628 90.3737L264.983 107.353L306.621 191.543C300.941 206.295 281.622 234.211 258.532 251.599L255.516 245.476L249.836 233.998L201.025 135.285L177.785 137.806L175.272 132.714L276.88 84.7413L279.628 90.3737ZM117.145 -5.90005C117.145 -5.90005 116.76 -5.71995 116.575 -5.63808C74.4509 14.2552 77.8021 81.1229 116.022 155.408C151.964 231.117 203.505 275.242 245.63 255.349C245.814 255.267 246.199 255.07 246.199 255.07L249.048 260.834C187.939 294.775 78.975 289.519 33.5664 194.654C-14.3892 100.705 49.0992 14.026 114.297 -11.6634L117.145 -5.90005ZM126.864 -17.9179C153.388 -25.8916 189.447 -23.3701 205.583 -17.1156L231.27 34.8362L225.188 37.7015L129.695 -12.1873L126.864 -17.9179Z" fill="#052962"/>
</g>
</svg>
