<?xml version="1.0" encoding="UTF-8"?>
<svg width="462px" height="206px" viewBox="0 0 462 206" version="1.1" xmlns="http://www.w3.org/2000/svg" xmlns:xlink="http://www.w3.org/1999/xlink">
    <!-- Generator: Sketch 52.5 (67469) - http://www.bohemiancoding.com/sketch -->
    <title>Group</title>
    <desc>Created with Sketch.</desc>
    <g id="Page-1" stroke="none" stroke-width="1" fill="none" fill-rule="evenodd">
        <g id="Artboard" transform="translate(-129.000000, -185.000000)">
            <g id="Group" transform="translate(129.000000, 185.000000)">
                <path d="M82.982,34.516 C86.206,34.516 88.996,37.058 88.996,40.344 C88.996,43.63 86.206,46.11 82.982,46.11 C79.634,46.11 77.03,43.63 77.03,40.344 C77.03,37.058 79.634,34.516 82.982,34.516 Z M73.806,50.388 L87.384,48.404 L88.934,48.528 L88.934,80.954 L92.406,81.946 L92.406,83 L74.054,83 L74.054,81.946 L77.588,80.954 L77.588,52.93 L73.806,51.442 L73.806,50.388 Z M93.066,81.946 L96.6,80.954 L96.6,52.93 L92.88,51.442 L92.88,50.388 L106.396,48.404 L107.76,48.528 L107.76,52.868 L108.132,52.868 C111.046,49.892 115.386,48.218 119.664,48.218 C125.554,48.218 128.158,51.008 128.158,57.208 L128.158,80.954 L131.692,81.946 L131.692,83 L113.712,83 L113.712,81.946 L116.874,81.14 L116.874,57.828 C116.874,54.48 115.386,52.992 112.472,52.992 C110.674,52.992 109.248,53.426 107.946,54.108 L107.946,81.14 L111.046,81.946 L111.046,83 L93.066,83 L93.066,81.946 Z M148.1,48.342 C150.828,48.342 152.874,48.838 153.928,49.396 L153.928,38.36 L150.208,37.058 L150.208,36.004 L163.91,34.02 L165.212,34.206 L165.212,79.962 L168.994,81.14 L168.994,82.194 L155.168,83.744 L154.114,83.62 L154.114,79.776 L153.804,79.776 C151.82,81.946 149.278,83.868 145.124,83.868 C137.746,83.868 132.352,78.226 132.352,66.694 C132.352,54.542 138.614,48.342 148.1,48.342 Z M150.766,79.094 C152.13,79.094 153.246,78.784 153.928,78.35 L153.928,50.884 C153.06,50.45 152.006,50.078 150.27,50.078 C146.612,50.078 144.256,54.356 144.256,65.33 C144.256,75.188 146.426,79.094 150.766,79.094 Z M201.088,64.834 L180.752,64.834 C181.186,73.204 183.852,78.35 192.532,78.35 C195.384,78.35 197.802,77.978 200.096,76.986 L200.096,77.978 C198.174,80.892 193.462,83.93 186.704,83.93 C175.234,83.93 169.344,76.986 169.344,65.888 C169.344,55.038 175.792,48.28 186.208,48.28 C196.686,48.28 201.088,53.86 201.088,63.966 L201.088,64.834 Z M185.96,49.458 C182.736,49.458 180.752,53.798 180.752,63.594 L190.362,63.16 C190.362,52.496 188.936,49.458 185.96,49.458 Z M238.638,65.02 C238.638,78.35 231.322,83.806 222.828,83.806 C220.286,83.806 218.116,83.434 217.124,83.062 L217.124,94.346 L221.154,95.214 L221.154,96.268 L202.244,96.268 L202.244,95.214 L205.778,94.346 L205.778,52.93 L202.058,51.442 L202.058,50.388 L215.76,48.404 L217.062,48.528 L217.062,52.434 L217.434,52.434 C219.17,50.388 222.394,48.218 226.982,48.218 C233.492,48.218 238.638,52.682 238.638,65.02 Z M226.796,66.26 C226.796,55.906 224.564,52.93 220.72,52.93 C219.294,52.93 218.054,53.24 217.124,53.612 L217.124,81.016 C217.93,81.636 218.984,82.194 220.534,82.194 C224.44,82.194 226.796,78.164 226.796,66.26 Z M271.6,64.834 L251.264,64.834 C251.698,73.204 254.364,78.35 263.044,78.35 C265.896,78.35 268.314,77.978 270.608,76.986 L270.608,77.978 C268.686,80.892 263.974,83.93 257.216,83.93 C245.746,83.93 239.856,76.986 239.856,65.888 C239.856,55.038 246.304,48.28 256.72,48.28 C267.198,48.28 271.6,53.86 271.6,63.966 L271.6,64.834 Z M256.472,49.458 C253.248,49.458 251.264,53.798 251.264,63.594 L260.874,63.16 C260.874,52.496 259.448,49.458 256.472,49.458 Z M272.942,81.946 L276.476,80.954 L276.476,52.93 L272.756,51.442 L272.756,50.388 L286.272,48.404 L287.636,48.528 L287.636,52.868 L288.008,52.868 C290.922,49.892 295.262,48.218 299.54,48.218 C305.43,48.218 308.034,51.008 308.034,57.208 L308.034,80.954 L311.568,81.946 L311.568,83 L293.588,83 L293.588,81.946 L296.75,81.14 L296.75,57.828 C296.75,54.48 295.262,52.992 292.348,52.992 C290.55,52.992 289.124,53.426 287.822,54.108 L287.822,81.14 L290.922,81.946 L290.922,83 L272.942,83 L272.942,81.946 Z M327.976,48.342 C330.704,48.342 332.75,48.838 333.804,49.396 L333.804,38.36 L330.084,37.058 L330.084,36.004 L343.786,34.02 L345.088,34.206 L345.088,79.962 L348.87,81.14 L348.87,82.194 L335.044,83.744 L333.99,83.62 L333.99,79.776 L333.68,79.776 C331.696,81.946 329.154,83.868 325,83.868 C317.622,83.868 312.228,78.226 312.228,66.694 C312.228,54.542 318.49,48.342 327.976,48.342 Z M330.642,79.094 C332.006,79.094 333.122,78.784 333.804,78.35 L333.804,50.884 C332.936,50.45 331.882,50.078 330.146,50.078 C326.488,50.078 324.132,54.356 324.132,65.33 C324.132,75.188 326.302,79.094 330.642,79.094 Z M380.964,64.834 L360.628,64.834 C361.062,73.204 363.728,78.35 372.408,78.35 C375.26,78.35 377.678,77.978 379.972,76.986 L379.972,77.978 C378.05,80.892 373.338,83.93 366.58,83.93 C355.11,83.93 349.22,76.986 349.22,65.888 C349.22,55.038 355.668,48.28 366.084,48.28 C376.562,48.28 380.964,53.86 380.964,63.966 L380.964,64.834 Z M365.836,49.458 C362.612,49.458 360.628,53.798 360.628,63.594 L370.238,63.16 C370.238,52.496 368.812,49.458 365.836,49.458 Z M382.306,81.946 L385.84,80.954 L385.84,52.93 L382.12,51.442 L382.12,50.388 L395.636,48.404 L397,48.528 L397,52.868 L397.372,52.868 C400.286,49.892 404.626,48.218 408.904,48.218 C414.794,48.218 417.398,51.008 417.398,57.208 L417.398,80.954 L420.932,81.946 L420.932,83 L402.952,83 L402.952,81.946 L406.114,81.14 L406.114,57.828 C406.114,54.48 404.626,52.992 401.712,52.992 C399.914,52.992 398.488,53.426 397.186,54.108 L397.186,81.14 L400.286,81.946 L400.286,83 L382.306,83 L382.306,81.946 Z M425.622,51.38 L420.786,51.38 L420.786,50.264 L425.622,49.024 L425.622,42.328 L436.906,40.53 L436.906,49.024 L444.408,49.024 L444.408,51.38 L436.906,51.38 L436.906,73.948 C436.906,77.42 437.96,78.846 441.68,78.846 C442.858,78.846 444.036,78.722 444.78,78.536 L444.78,79.59 C442.796,81.698 439.386,83.682 435.356,83.682 C428.908,83.682 425.622,80.706 425.622,73.39 L425.622,51.38 Z" id="independent" fill="#121212"></path>
                <path d="M10.54,24 L10.54,22.38 L12.58,21.66 L12.58,4.71 L10.54,3.99 L10.54,2.37 L20.65,2.37 L20.65,3.99 L18.91,4.68 L18.91,11.67 L24.67,11.67 L24.67,4.68 L22.93,3.99 L22.93,2.37 L33.01,2.37 L33.01,3.99 L31,4.71 L31,21.66 L33.04,22.38 L33.04,24 L22.93,24 L22.93,22.38 L24.67,21.72 L24.67,14.19 L18.91,14.19 L18.91,21.72 L20.65,22.38 L20.65,24 L10.54,24 Z M49.48,16.23 L39.73,16.23 C39.91,19.62 41.17,21.21 44.77,21.21 C46.51,21.21 47.74,20.85 48.91,20.25 L48.91,21.75 C48.01,22.98 45.73,24.45 42.55,24.45 C36.97,24.45 34.12,21.09 34.12,15.72 C34.12,10.47 37.24,7.2 42.28,7.2 C47.02,7.2 49.48,9.57 49.48,15.81 L49.48,16.23 Z M42.13,8.85 C40.6,8.85 39.64,10.53 39.64,14.58 L44.29,14.28 C44.29,10.08 43.57,8.85 42.13,8.85 Z M50.62,1.26 L57.28,0.3 L57.94,0.39 L57.94,21.9 L59.65,22.68 L59.65,24 L50.74,24 L50.74,22.68 L52.45,21.9 L52.45,3.27 L50.62,2.58 L50.62,1.26 Z M77.95,15.3 C77.95,21.75 74.41,24.39 70.36,24.39 C69.07,24.39 68.02,24.12 67.54,23.85 L67.54,28.35 L69.49,29.07 L69.49,30.42 L60.34,30.42 L60.34,29.07 L62.05,28.35 L62.05,10.35 L60.28,9.48 L60.28,8.22 L66.85,7.26 L67.51,7.32 L67.51,9.21 L67.69,9.21 C68.53,8.22 70.09,7.17 72.31,7.17 C75.46,7.17 77.95,9.33 77.95,15.3 Z M72.22,15.9 C72.22,11.4 71.14,10.11 69.28,10.11 C68.59,10.11 67.99,10.32 67.54,10.56 L67.54,22.02 C67.93,22.32 68.44,22.56 69.19,22.56 C71.08,22.56 72.22,20.82 72.22,15.9 Z M85.78,10.26 L83.98,9.48 L83.98,8.16 L90.55,7.26 L91.27,7.32 L91.27,19.44 C91.27,21 92.02,21.48 93.28,21.48 C94.09,21.48 94.78,21.27 95.41,21 L95.41,10.26 L93.61,9.48 L93.61,8.16 L100.18,7.26 L100.84,7.32 L100.84,21.48 L102.61,22.38 L102.61,23.61 L96.13,24.36 L95.47,24.3 L95.47,22.35 L95.29,22.35 C94.09,23.46 92.41,24.42 90.37,24.42 C87.22,24.42 85.78,22.56 85.78,19.74 L85.78,10.26 Z M111.82,13.2 C115.27,14.04 116.74,15.57 116.74,18.66 C116.74,22.32 114.55,24.39 109.66,24.39 C107.74,24.39 105.64,24.09 103.99,23.49 L103.81,19.2 L105.79,19.2 L107.05,22.05 C107.71,22.41 108.58,22.62 109.6,22.62 C111.46,22.62 112.3,21.81 112.3,20.55 C112.3,19.47 111.73,18.9 110.05,18.51 L108.94,18.24 C105.43,17.37 103.81,15.69 103.81,12.63 C103.81,9.42 105.94,7.14 110.62,7.14 C112.54,7.14 114.4,7.35 115.66,7.83 L115.66,11.85 L113.68,11.85 L112.81,9.27 C112.33,9.03 111.64,8.91 110.74,8.91 C109.12,8.91 108.31,9.63 108.31,10.83 C108.31,11.91 108.88,12.45 110.71,12.93 L111.82,13.2 Z M130.81,7.23 C132.13,7.23 133.12,7.47 133.63,7.74 L133.63,3.24 L131.83,2.61 L131.83,1.26 L138.46,0.3 L139.09,0.39 L139.09,21.42 L140.92,22.29 L140.92,23.61 L134.38,24.36 L133.87,24.3 L133.87,22.59 L133.72,22.59 C132.76,23.55 131.44,24.42 129.37,24.42 C125.8,24.42 123.19,21.69 123.19,16.11 C123.19,10.23 126.22,7.23 130.81,7.23 Z M132.1,21.66 C132.76,21.66 133.3,21.48 133.63,21.24 L133.63,9.57 C133.21,9.3 132.7,9.06 131.86,9.06 C130.09,9.06 128.95,10.92 128.95,15.69 C128.95,19.98 130,21.66 132.1,21.66 Z M157.03,16.23 L147.28,16.23 C147.46,19.62 148.72,21.21 152.32,21.21 C154.06,21.21 155.29,20.85 156.46,20.25 L156.46,21.75 C155.56,22.98 153.28,24.45 150.1,24.45 C144.52,24.45 141.67,21.09 141.67,15.72 C141.67,10.47 144.79,7.2 149.83,7.2 C154.57,7.2 157.03,9.57 157.03,15.81 L157.03,16.23 Z M149.68,8.85 C148.15,8.85 147.19,10.53 147.19,14.58 L151.84,14.28 C151.84,10.08 151.12,8.85 149.68,8.85 Z M158.17,1.26 L164.83,0.3 L165.49,0.39 L165.49,21.9 L167.2,22.68 L167.2,24 L158.29,24 L158.29,22.68 L160,21.9 L160,3.27 L158.17,2.58 L158.17,1.26 Z M172.33,0.54 C173.89,0.54 175.24,1.77 175.24,3.36 C175.24,4.95 173.89,6.15 172.33,6.15 C170.71,6.15 169.45,4.95 169.45,3.36 C169.45,1.77 170.71,0.54 172.33,0.54 Z M167.89,8.22 L174.64,7.26 L175.21,7.32 L175.21,21.96 L176.89,22.71 L176.89,24 L168.01,24 L168.01,22.71 L169.72,21.96 L169.72,10.23 L167.89,9.51 L167.89,8.22 Z M184.9,9.69 L187.69,19.23 L187.81,19.23 L190.87,9.69 L189.1,8.91 L189.1,7.56 L194.65,7.56 L194.65,8.91 L193.33,9.66 L188.32,24 L183.79,24 L178.84,9.69 L177.43,8.91 L177.43,7.56 L186.7,7.56 L186.7,8.91 L184.9,9.69 Z M210.7,16.23 L200.95,16.23 C201.13,19.62 202.39,21.21 205.99,21.21 C207.73,21.21 208.96,20.85 210.13,20.25 L210.13,21.75 C209.23,22.98 206.95,24.45 203.77,24.45 C198.19,24.45 195.34,21.09 195.34,15.72 C195.34,10.47 198.46,7.2 203.5,7.2 C208.24,7.2 210.7,9.57 210.7,15.81 L210.7,16.23 Z M203.35,8.85 C201.82,8.85 200.86,10.53 200.86,14.58 L205.51,14.28 C205.51,10.08 204.79,8.85 203.35,8.85 Z M211.84,8.22 L218.41,7.26 L218.95,7.32 L218.95,11.04 L219.1,11.04 C219.97,8.34 221.35,7.08 223.24,7.08 C223.54,7.08 223.87,7.11 224.05,7.2 L224.05,12.15 C223.75,12.06 223.21,12.03 222.7,12.03 C221.2,12.03 220.09,12.18 219.13,12.57 L219.13,21.96 L221.35,22.71 L221.35,24 L211.93,24 L211.93,22.71 L213.64,21.96 L213.64,10.23 L211.84,9.51 L211.84,8.22 Z" id="Help-us-deliver" fill="#FF7F0F"></path>
                <path d="M9.982,88.516 C13.206,88.516 15.996,91.058 15.996,94.344 C15.996,97.63 13.206,100.11 9.982,100.11 C6.634,100.11 4.03,97.63 4.03,94.344 C4.03,91.058 6.634,88.516 9.982,88.516 Z M0.806,104.388 L14.384,102.404 L15.934,102.528 L15.934,134.954 L19.406,135.946 L19.406,137 L1.054,137 L1.054,135.946 L4.588,134.954 L4.588,106.93 L0.806,105.442 L0.806,104.388 Z M20.266,135.946 L23.8,134.954 L23.8,106.93 L20.08,105.442 L20.08,104.388 L33.596,102.404 L34.96,102.528 L34.96,106.868 L35.332,106.868 C38.246,103.892 42.586,102.218 46.864,102.218 C52.754,102.218 55.358,105.008 55.358,111.208 L55.358,134.954 L58.892,135.946 L58.892,137 L40.912,137 L40.912,135.946 L44.074,135.14 L44.074,111.828 C44.074,108.48 42.586,106.992 39.672,106.992 C37.874,106.992 36.448,107.426 35.146,108.108 L35.146,135.14 L38.246,135.946 L38.246,137 L20.266,137 L20.266,135.946 Z M92.488,104.078 L88.582,106.62 L78.538,137 L71.718,137 L59.752,105.628 L56.9,104.078 L56.9,103.024 L76.058,103.024 L76.058,104.078 L72.152,105.566 L80.026,127.7 L80.336,127.7 L87.404,106.62 L82.63,104.078 L82.63,103.024 L92.488,103.024 L92.488,104.078 Z M122.488,118.834 L102.152,118.834 C102.586,127.204 105.252,132.35 113.932,132.35 C116.784,132.35 119.202,131.978 121.496,130.986 L121.496,131.978 C119.574,134.892 114.862,137.93 108.104,137.93 C96.634,137.93 90.744,130.986 90.744,119.888 C90.744,109.038 97.192,102.28 107.608,102.28 C118.086,102.28 122.488,107.86 122.488,117.966 L122.488,118.834 Z M107.36,103.458 C104.136,103.458 102.152,107.798 102.152,117.594 L111.762,117.16 C111.762,106.496 110.336,103.458 107.36,103.458 Z M140.77,114.742 C147.156,117.718 150.504,120.384 150.504,126.584 C150.504,133.59 145.606,137.806 136.554,137.806 C132.462,137.806 128.246,137.31 124.96,136.07 L124.588,126.026 L125.642,126.026 L134.508,136.38 C135.128,136.566 135.81,136.69 136.368,136.69 C140.15,136.69 141.886,134.644 141.886,131.482 C141.886,128.692 140.398,127.638 136.492,125.778 L134.446,124.848 C128.246,121.934 124.65,118.896 124.65,113.192 C124.65,106.248 129.486,102.156 137.794,102.156 C141.204,102.156 144.924,102.466 147.776,103.272 L148.086,112.634 L147.032,112.634 L140.274,103.582 C139.53,103.334 138.786,103.21 138.104,103.21 C134.756,103.21 133.268,105.132 133.268,107.922 C133.268,110.96 134.694,111.952 138.848,113.874 L140.77,114.742 Z M155.146,105.38 L150.31,105.38 L150.31,104.264 L155.146,103.024 L155.146,96.328 L166.43,94.53 L166.43,103.024 L173.932,103.024 L173.932,105.38 L166.43,105.38 L166.43,127.948 C166.43,131.42 167.484,132.846 171.204,132.846 C172.382,132.846 173.56,132.722 174.304,132.536 L174.304,133.59 C172.32,135.698 168.91,137.682 164.88,137.682 C158.432,137.682 155.146,134.706 155.146,127.39 L155.146,105.38 Z M184.526,88.516 C187.75,88.516 190.54,91.058 190.54,94.344 C190.54,97.63 187.75,100.11 184.526,100.11 C181.178,100.11 178.574,97.63 178.574,94.344 C178.574,91.058 181.178,88.516 184.526,88.516 Z M175.35,104.388 L188.928,102.404 L190.478,102.528 L190.478,134.954 L193.95,135.946 L193.95,137 L175.598,137 L175.598,135.946 L179.132,134.954 L179.132,106.93 L175.35,105.442 L175.35,104.388 Z M209.566,150.888 C198.654,150.888 193.136,149.152 193.136,144.688 C193.136,142.084 196.422,140.534 201.258,139.728 L201.258,139.418 C197.786,138.488 195.43,136.504 195.43,133.218 C195.43,129.56 198.282,126.708 202.808,125.344 L202.808,125.034 C198.282,123.174 195.244,119.144 195.244,114.246 C195.244,106.558 201.134,102.218 209.876,102.218 C212.418,102.218 214.712,102.776 216.572,103.396 L227.484,102.032 L227.484,107.612 L219.61,105.132 L219.61,105.504 C222.896,107.86 224.508,110.898 224.508,114.556 C224.508,122.182 218.494,126.212 209.876,126.212 C207.706,126.212 205.846,125.84 204.172,125.53 C203.552,126.15 203.118,126.894 203.118,127.886 C203.118,129.312 203.924,130.118 205.908,130.118 L217.13,130.118 C224.694,130.118 228.352,132.288 228.352,138.426 C228.352,145.68 222.152,150.888 209.566,150.888 Z M213.906,114.432 C213.906,105.876 212.48,103.396 209.876,103.396 C207.334,103.396 205.908,105.876 205.908,114.494 C205.908,122.554 207.334,125.034 209.876,125.034 C212.418,125.034 213.906,122.43 213.906,114.432 Z M209.752,149.71 C216.696,149.71 220.106,147.044 220.106,143.076 C220.106,140.906 219.114,139.852 216.138,139.852 L202.684,139.852 C202.126,140.906 201.754,142.022 201.754,143.696 C201.754,147.354 203.738,149.71 209.752,149.71 Z M239.194,118.462 L246.634,117.036 L246.634,112.51 C246.634,105.628 245.146,103.396 241.364,103.396 C240.93,103.396 240.558,103.458 240.124,103.52 L231.754,114.866 L230.7,114.866 L230.948,104.326 C234.172,103.334 238.202,102.218 243.534,102.218 C252.71,102.218 258.042,104.76 258.042,112.448 L258.042,134.52 L261.328,135.388 L261.328,136.256 C260.026,137.062 257.422,137.806 254.57,137.806 C250.044,137.806 247.874,136.318 246.882,133.838 L246.572,133.838 C244.65,136.442 241.922,137.93 237.644,137.93 C232.188,137.93 228.468,134.52 228.468,128.63 C228.468,122.926 232.002,119.826 239.194,118.462 Z M243.782,133.466 C245.208,133.466 246.014,133.032 246.634,132.288 L246.634,118.648 L244.34,118.834 C240.744,119.144 239.442,121.438 239.442,126.522 C239.442,132.04 241.24,133.466 243.782,133.466 Z M265.04,105.38 L260.204,105.38 L260.204,104.264 L265.04,103.024 L265.04,96.328 L276.324,94.53 L276.324,103.024 L283.826,103.024 L283.826,105.38 L276.324,105.38 L276.324,127.948 C276.324,131.42 277.378,132.846 281.098,132.846 C282.276,132.846 283.454,132.722 284.198,132.536 L284.198,133.59 C282.214,135.698 278.804,137.682 274.774,137.682 C268.326,137.682 265.04,134.706 265.04,127.39 L265.04,105.38 Z M294.42,88.516 C297.644,88.516 300.434,91.058 300.434,94.344 C300.434,97.63 297.644,100.11 294.42,100.11 C291.072,100.11 288.468,97.63 288.468,94.344 C288.468,91.058 291.072,88.516 294.42,88.516 Z M285.244,104.388 L298.822,102.404 L300.372,102.528 L300.372,134.954 L303.844,135.946 L303.844,137 L285.492,137 L285.492,135.946 L289.026,134.954 L289.026,106.93 L285.244,105.442 L285.244,104.388 Z M338.618,104.078 L334.712,106.62 L324.668,137 L317.848,137 L305.882,105.628 L303.03,104.078 L303.03,103.024 L322.188,103.024 L322.188,104.078 L318.282,105.566 L326.156,127.7 L326.466,127.7 L333.534,106.62 L328.76,104.078 L328.76,103.024 L338.618,103.024 L338.618,104.078 Z M370.788,118.834 L350.452,118.834 C350.886,127.204 353.552,132.35 362.232,132.35 C365.084,132.35 367.502,131.978 369.796,130.986 L369.796,131.978 C367.874,134.892 363.162,137.93 356.404,137.93 C344.934,137.93 339.044,130.986 339.044,119.888 C339.044,109.038 345.492,102.28 355.908,102.28 C366.386,102.28 370.788,107.86 370.788,117.966 L370.788,118.834 Z M355.66,103.458 C352.436,103.458 350.452,107.798 350.452,117.594 L360.062,117.16 C360.062,106.496 358.636,103.458 355.66,103.458 Z" id="investigative" fill="#121212"></path>
                <path d="M158.982,143.516 C162.206,143.516 164.996,146.058 164.996,149.344 C164.996,152.63 162.206,155.11 158.982,155.11 C155.634,155.11 153.03,152.63 153.03,149.344 C153.03,146.058 155.634,143.516 158.982,143.516 Z M153.588,161.93 L149.806,160.442 L149.806,159.388 L163.384,157.404 L164.934,157.528 L164.934,191.628 C164.934,200.37 160.47,205.516 150.984,205.516 C148.814,205.516 146.024,205.206 144.164,204.648 L143.978,195.844 L145.032,195.844 L150.054,204.462 C152.162,204.338 153.588,202.602 153.588,198.138 L153.588,161.93 Z M185.31,192.93 C174.956,192.93 167.888,185.924 167.888,174.888 C167.888,163.976 174.832,157.218 185.248,157.218 C195.664,157.218 202.732,163.976 202.732,174.95 C202.732,185.986 195.788,192.93 185.31,192.93 Z M185.31,158.334 C181.9,158.334 180.102,161.62 180.102,174.95 C180.102,188.342 181.9,191.814 185.372,191.814 C188.782,191.814 190.518,188.28 190.518,174.888 C190.518,161.558 188.844,158.334 185.31,158.334 Z M206.554,161.93 L202.834,160.442 L202.834,159.388 L216.412,157.404 L217.9,157.528 L217.9,183.196 C217.9,186.978 219.512,188.032 222.24,188.032 C223.79,188.032 225.154,187.598 226.456,187.04 L226.456,161.93 L222.736,160.442 L222.736,159.388 L236.314,157.404 L237.678,157.528 L237.678,188.094 L241.336,189.582 L241.336,190.636 L227.944,192.744 L226.58,192.62 L226.58,188.28 L226.208,188.28 C223.666,190.822 220.256,192.868 216.04,192.868 C209.53,192.868 206.554,189.024 206.554,183.196 L206.554,161.93 Z M241.934,159.388 L255.636,157.404 L256.752,157.528 L256.752,167.2 L257.062,167.2 C258.798,159.822 261.65,157.032 265.494,157.032 C266.114,157.032 266.796,157.094 267.168,157.28 L267.168,167.51 C266.548,167.324 265.432,167.262 264.378,167.262 C261.278,167.262 258.984,167.572 257,168.378 L257,190.016 L261.588,190.946 L261.588,192 L242.12,192 L242.12,190.946 L245.654,190.016 L245.654,161.93 L241.934,160.442 L241.934,159.388 Z M267.518,190.946 L271.052,189.954 L271.052,161.93 L267.332,160.442 L267.332,159.388 L280.848,157.404 L282.212,157.528 L282.212,161.868 L282.584,161.868 C285.498,158.892 289.838,157.218 294.116,157.218 C300.006,157.218 302.61,160.008 302.61,166.208 L302.61,189.954 L306.144,190.946 L306.144,192 L288.164,192 L288.164,190.946 L291.326,190.14 L291.326,166.828 C291.326,163.48 289.838,161.992 286.924,161.992 C285.126,161.992 283.7,162.426 282.398,163.108 L282.398,190.14 L285.498,190.946 L285.498,192 L267.518,192 L267.518,190.946 Z M317.282,173.462 L324.722,172.036 L324.722,167.51 C324.722,160.628 323.234,158.396 319.452,158.396 C319.018,158.396 318.646,158.458 318.212,158.52 L309.842,169.866 L308.788,169.866 L309.036,159.326 C312.26,158.334 316.29,157.218 321.622,157.218 C330.798,157.218 336.13,159.76 336.13,167.448 L336.13,189.52 L339.416,190.388 L339.416,191.256 C338.114,192.062 335.51,192.806 332.658,192.806 C328.132,192.806 325.962,191.318 324.97,188.838 L324.66,188.838 C322.738,191.442 320.01,192.93 315.732,192.93 C310.276,192.93 306.556,189.52 306.556,183.63 C306.556,177.926 310.09,174.826 317.282,173.462 Z M321.87,188.466 C323.296,188.466 324.102,188.032 324.722,187.288 L324.722,173.648 L322.428,173.834 C318.832,174.144 317.53,176.438 317.53,181.522 C317.53,187.04 319.328,188.466 321.87,188.466 Z M339.704,145.004 L353.468,143.02 L354.832,143.206 L354.832,189.954 L358.366,190.946 L358.366,192 L339.952,192 L339.952,190.946 L343.486,189.954 L343.486,147.484 L339.704,146.058 L339.704,145.004 Z M367.768,143.516 C370.992,143.516 373.782,146.058 373.782,149.344 C373.782,152.63 370.992,155.11 367.768,155.11 C364.42,155.11 361.816,152.63 361.816,149.344 C361.816,146.058 364.42,143.516 367.768,143.516 Z M358.592,159.388 L372.17,157.404 L373.72,157.528 L373.72,189.954 L377.192,190.946 L377.192,192 L358.84,192 L358.84,190.946 L362.374,189.954 L362.374,161.93 L358.592,160.442 L358.592,159.388 Z M394.592,169.742 C400.978,172.718 404.326,175.384 404.326,181.584 C404.326,188.59 399.428,192.806 390.376,192.806 C386.284,192.806 382.068,192.31 378.782,191.07 L378.41,181.026 L379.464,181.026 L388.33,191.38 C388.95,191.566 389.632,191.69 390.19,191.69 C393.972,191.69 395.708,189.644 395.708,186.482 C395.708,183.692 394.22,182.638 390.314,180.778 L388.268,179.848 C382.068,176.934 378.472,173.896 378.472,168.192 C378.472,161.248 383.308,157.156 391.616,157.156 C395.026,157.156 398.746,157.466 401.598,158.272 L401.908,167.634 L400.854,167.634 L394.096,158.582 C393.352,158.334 392.608,158.21 391.926,158.21 C388.578,158.21 387.09,160.132 387.09,162.922 C387.09,165.96 388.516,166.952 392.67,168.874 L394.592,169.742 Z M405.42,190.946 L408.954,190.016 L408.954,161.93 L405.234,160.442 L405.234,159.388 L418.688,157.404 L420.052,157.528 L420.052,161.992 L420.424,161.992 C423.338,159.016 426.562,157.218 430.964,157.218 C434.87,157.218 437.288,158.458 438.59,162.054 L438.838,162.054 C441.876,158.954 445.286,157.218 449.688,157.218 C455.268,157.218 458.306,160.07 458.306,166.27 L458.306,190.016 L461.902,190.946 L461.902,192 L444.418,192 L444.418,190.946 L447.208,190.016 L447.208,166.456 C447.208,163.356 445.782,162.116 442.992,162.116 C441.628,162.116 440.264,162.55 439.148,163.17 L439.148,190.016 L441.938,190.946 L441.938,192 L425.446,192 L425.446,190.946 L428.298,190.016 L428.298,166.456 C428.298,163.356 427.058,162.116 424.144,162.116 C422.594,162.116 421.354,162.612 420.238,163.232 L420.238,190.016 L422.966,190.946 L422.966,192 L405.42,192 L405.42,190.946 Z" id="journalism" fill="#121212"></path>
            </g>
        </g>
    </g>
</svg>