<svg width="462" height="206" xmlns="http://www.w3.org/2000/svg" preserveAspectRatio="none"><g fill="none" fill-rule="evenodd"><path d="M82.982 34.516c3.224 0 6.014 2.542 6.014 5.828 0 3.286-2.79 5.766-6.014 5.766-3.348 0-5.952-2.48-5.952-5.766s2.604-5.828 5.952-5.828zm-9.176 15.872l13.578-1.984 1.55.124v32.426l3.472.992V83H74.054v-1.054l3.534-.992V52.93l-3.782-1.488v-1.054zm19.26 31.558l3.534-.992V52.93l-3.72-1.488v-1.054l13.516-1.984 1.364.124v4.34h.372c2.914-2.976 7.254-4.65 11.532-4.65 5.89 0 8.494 2.79 8.494 8.99v23.746l3.534.992V83h-17.98v-1.054l3.162-.806V57.828c0-3.348-1.488-4.836-4.402-4.836a9.398 9.398 0 0 0-4.526 1.116V81.14l3.1.806V83h-17.98v-1.054zM148.1 48.342c2.728 0 4.774.496 5.828 1.054V38.36l-3.72-1.302v-1.054l13.702-1.984 1.302.186v45.756l3.782 1.178v1.054l-13.826 1.55-1.054-.124v-3.844h-.31c-1.984 2.17-4.526 4.092-8.68 4.092-7.378 0-12.772-5.642-12.772-17.174 0-12.152 6.262-18.352 15.748-18.352zm2.666 30.752c1.364 0 2.48-.31 3.162-.744V50.884c-.868-.434-1.922-.806-3.658-.806-3.658 0-6.014 4.278-6.014 15.252 0 9.858 2.17 13.764 6.51 13.764zm50.322-14.26h-20.336c.434 8.37 3.1 13.516 11.78 13.516 2.852 0 5.27-.372 7.564-1.364v.992c-1.922 2.914-6.634 5.952-13.392 5.952-11.47 0-17.36-6.944-17.36-18.042 0-10.85 6.448-17.608 16.864-17.608 10.478 0 14.88 5.58 14.88 15.686v.868zM185.96 49.458c-3.224 0-5.208 4.34-5.208 14.136l9.61-.434c0-10.664-1.426-13.702-4.402-13.702zm52.678 15.562c0 13.33-7.316 18.786-15.81 18.786-2.542 0-4.712-.372-5.704-.744v11.284l4.03.868v1.054h-18.91v-1.054l3.534-.868V52.93l-3.72-1.488v-1.054l13.702-1.984 1.302.124v3.906h.372c1.736-2.046 4.96-4.216 9.548-4.216 6.51 0 11.656 4.464 11.656 16.802zm-11.842 1.24c0-10.354-2.232-13.33-6.076-13.33-1.426 0-2.666.31-3.596.682v27.404c.806.62 1.86 1.178 3.41 1.178 3.906 0 6.262-4.03 6.262-15.934zm44.804-1.426h-20.336c.434 8.37 3.1 13.516 11.78 13.516 2.852 0 5.27-.372 7.564-1.364v.992c-1.922 2.914-6.634 5.952-13.392 5.952-11.47 0-17.36-6.944-17.36-18.042 0-10.85 6.448-17.608 16.864-17.608 10.478 0 14.88 5.58 14.88 15.686v.868zm-15.128-15.376c-3.224 0-5.208 4.34-5.208 14.136l9.61-.434c0-10.664-1.426-13.702-4.402-13.702zm16.47 32.488l3.534-.992V52.93l-3.72-1.488v-1.054l13.516-1.984 1.364.124v4.34h.372c2.914-2.976 7.254-4.65 11.532-4.65 5.89 0 8.494 2.79 8.494 8.99v23.746l3.534.992V83h-17.98v-1.054l3.162-.806V57.828c0-3.348-1.488-4.836-4.402-4.836a9.398 9.398 0 0 0-4.526 1.116V81.14l3.1.806V83h-17.98v-1.054zm55.034-33.604c2.728 0 4.774.496 5.828 1.054V38.36l-3.72-1.302v-1.054l13.702-1.984 1.302.186v45.756l3.782 1.178v1.054l-13.826 1.55-1.054-.124v-3.844h-.31c-1.984 2.17-4.526 4.092-8.68 4.092-7.378 0-12.772-5.642-12.772-17.174 0-12.152 6.262-18.352 15.748-18.352zm2.666 30.752c1.364 0 2.48-.31 3.162-.744V50.884c-.868-.434-1.922-.806-3.658-.806-3.658 0-6.014 4.278-6.014 15.252 0 9.858 2.17 13.764 6.51 13.764zm50.322-14.26h-20.336c.434 8.37 3.1 13.516 11.78 13.516 2.852 0 5.27-.372 7.564-1.364v.992c-1.922 2.914-6.634 5.952-13.392 5.952-11.47 0-17.36-6.944-17.36-18.042 0-10.85 6.448-17.608 16.864-17.608 10.478 0 14.88 5.58 14.88 15.686v.868zm-15.128-15.376c-3.224 0-5.208 4.34-5.208 14.136l9.61-.434c0-10.664-1.426-13.702-4.402-13.702zm16.47 32.488l3.534-.992V52.93l-3.72-1.488v-1.054l13.516-1.984 1.364.124v4.34h.372c2.914-2.976 7.254-4.65 11.532-4.65 5.89 0 8.494 2.79 8.494 8.99v23.746l3.534.992V83h-17.98v-1.054l3.162-.806V57.828c0-3.348-1.488-4.836-4.402-4.836a9.398 9.398 0 0 0-4.526 1.116V81.14l3.1.806V83h-17.98v-1.054zm43.316-30.566h-4.836v-1.116l4.836-1.24v-6.696l11.284-1.798v8.494h7.502v2.356h-7.502v22.568c0 3.472 1.054 4.898 4.774 4.898 1.178 0 2.356-.124 3.1-.31v1.054c-1.984 2.108-5.394 4.092-9.424 4.092-6.448 0-9.734-2.976-9.734-10.292V51.38z" fill="#121212"/><path d="M10.54 24v-1.62l2.04-.72V4.71l-2.04-.72V2.37h10.11v1.62l-1.74.69v6.99h5.76V4.68l-1.74-.69V2.37h10.08v1.62L31 4.71v16.95l2.04.72V24H22.93v-1.62l1.74-.66v-7.53h-5.76v7.53l1.74.66V24H10.54zm38.94-7.77h-9.75c.18 3.39 1.44 4.98 5.04 4.98 1.74 0 2.97-.36 4.14-.96v1.5c-.9 1.23-3.18 2.7-6.36 2.7-5.58 0-8.43-3.36-8.43-8.73 0-5.25 3.12-8.52 8.16-8.52 4.74 0 7.2 2.37 7.2 8.61v.42zm-7.35-7.38c-1.53 0-2.49 1.68-2.49 5.73l4.65-.3c0-4.2-.72-5.43-2.16-5.43zm8.49-7.59L57.28.3l.66.09V21.9l1.71.78V24h-8.91v-1.32l1.71-.78V3.27l-1.83-.69V1.26zM77.95 15.3c0 6.45-3.54 9.09-7.59 9.09-1.29 0-2.34-.27-2.82-.54v4.5l1.95.72v1.35h-9.15v-1.35l1.71-.72v-18l-1.77-.87V8.22l6.57-.96.66.06v1.89h.18c.84-.99 2.4-2.04 4.62-2.04 3.15 0 5.64 2.16 5.64 8.13zm-5.73.6c0-4.5-1.08-5.79-2.94-5.79-.69 0-1.29.21-1.74.45v11.46c.39.3.9.54 1.65.54 1.89 0 3.03-1.74 3.03-6.66zm13.56-5.64l-1.8-.78V8.16l6.57-.9.72.06v12.12c0 1.56.75 2.04 2.01 2.04.81 0 1.5-.21 2.13-.48V10.26l-1.8-.78V8.16l6.57-.9.66.06v14.16l1.77.9v1.23l-6.48.75-.66-.06v-1.95h-.18c-1.2 1.11-2.88 2.07-4.92 2.07-3.15 0-4.59-1.86-4.59-4.68v-9.48zm26.04 2.94c3.45.84 4.92 2.37 4.92 5.46 0 3.66-2.19 5.73-7.08 5.73-1.92 0-4.02-.3-5.67-.9l-.18-4.29h1.98l1.26 2.85c.66.36 1.53.57 2.55.57 1.86 0 2.7-.81 2.7-2.07 0-1.08-.57-1.65-2.25-2.04l-1.11-.27c-3.51-.87-5.13-2.55-5.13-5.61 0-3.21 2.13-5.49 6.81-5.49 1.92 0 3.78.21 5.04.69v4.02h-1.98l-.87-2.58c-.48-.24-1.17-.36-2.07-.36-1.62 0-2.43.72-2.43 1.92 0 1.08.57 1.62 2.4 2.1l1.11.27zm18.99-5.97c1.32 0 2.31.24 2.82.51v-4.5l-1.8-.63V1.26l6.63-.96.63.09v21.03l1.83.87v1.32l-6.54.75-.51-.06v-1.71h-.15c-.96.96-2.28 1.83-4.35 1.83-3.57 0-6.18-2.73-6.18-8.31 0-5.88 3.03-8.88 7.62-8.88zm1.29 14.43c.66 0 1.2-.18 1.53-.42V9.57c-.42-.27-.93-.51-1.77-.51-1.77 0-2.91 1.86-2.91 6.63 0 4.29 1.05 5.97 3.15 5.97zm24.93-5.43h-9.75c.18 3.39 1.44 4.98 5.04 4.98 1.74 0 2.97-.36 4.14-.96v1.5c-.9 1.23-3.18 2.7-6.36 2.7-5.58 0-8.43-3.36-8.43-8.73 0-5.25 3.12-8.52 8.16-8.52 4.74 0 7.2 2.37 7.2 8.61v.42zm-7.35-7.38c-1.53 0-2.49 1.68-2.49 5.73l4.65-.3c0-4.2-.72-5.43-2.16-5.43zm8.49-7.59l6.66-.96.66.09V21.9l1.71.78V24h-8.91v-1.32l1.71-.78V3.27l-1.83-.69V1.26zm14.16-.72c1.56 0 2.91 1.23 2.91 2.82 0 1.59-1.35 2.79-2.91 2.79-1.62 0-2.88-1.2-2.88-2.79s1.26-2.82 2.88-2.82zm-4.44 7.68l6.75-.96.57.06v14.64l1.68.75V24h-8.88v-1.29l1.71-.75V10.23l-1.83-.72V8.22zm17.01 1.47l2.79 9.54h.12l3.06-9.54-1.77-.78V7.56h5.55v1.35l-1.32.75L188.32 24h-4.53l-4.95-14.31-1.41-.78V7.56h9.27v1.35l-1.8.78zm25.8 6.54h-9.75c.18 3.39 1.44 4.98 5.04 4.98 1.74 0 2.97-.36 4.14-.96v1.5c-.9 1.23-3.18 2.7-6.36 2.7-5.58 0-8.43-3.36-8.43-8.73 0-5.25 3.12-8.52 8.16-8.52 4.74 0 7.2 2.37 7.2 8.61v.42zm-7.35-7.38c-1.53 0-2.49 1.68-2.49 5.73l4.65-.3c0-4.2-.72-5.43-2.16-5.43zm8.49-.63l6.57-.96.54.06v3.72h.15c.87-2.7 2.25-3.96 4.14-3.96.3 0 .63.03.81.12v4.95c-.3-.09-.84-.12-1.35-.12-1.5 0-2.61.15-3.57.54v9.39l2.22.75V24h-9.42v-1.29l1.71-.75V10.23l-1.8-.72V8.22z" fill="#FF7F0F"/><path d="M9.982 88.516c3.224 0 6.014 2.542 6.014 5.828 0 3.286-2.79 5.766-6.014 5.766-3.348 0-5.952-2.48-5.952-5.766s2.604-5.828 5.952-5.828zM.806 104.388l13.578-1.984 1.55.124v32.426l3.472.992V137H1.054v-1.054l3.534-.992V106.93l-3.782-1.488v-1.054zm19.46 31.558l3.534-.992V106.93l-3.72-1.488v-1.054l13.516-1.984 1.364.124v4.34h.372c2.914-2.976 7.254-4.65 11.532-4.65 5.89 0 8.494 2.79 8.494 8.99v23.746l3.534.992V137h-17.98v-1.054l3.162-.806v-23.312c0-3.348-1.488-4.836-4.402-4.836a9.398 9.398 0 0 0-4.526 1.116v27.032l3.1.806V137h-17.98v-1.054zm72.222-31.868l-3.906 2.542L78.538 137h-6.82l-11.966-31.372-2.852-1.55v-1.054h19.158v1.054l-3.906 1.488 7.874 22.134h.31l7.068-21.08-4.774-2.542v-1.054h9.858v1.054zm30 14.756h-20.336c.434 8.37 3.1 13.516 11.78 13.516 2.852 0 5.27-.372 7.564-1.364v.992c-1.922 2.914-6.634 5.952-13.392 5.952-11.47 0-17.36-6.944-17.36-18.042 0-10.85 6.448-17.608 16.864-17.608 10.478 0 14.88 5.58 14.88 15.686v.868zm-15.128-15.376c-3.224 0-5.208 4.34-5.208 14.136l9.61-.434c0-10.664-1.426-13.702-4.402-13.702zm33.41 11.284c6.386 2.976 9.734 5.642 9.734 11.842 0 7.006-4.898 11.222-13.95 11.222-4.092 0-8.308-.496-11.594-1.736l-.372-10.044h1.054l8.866 10.354c.62.186 1.302.31 1.86.31 3.782 0 5.518-2.046 5.518-5.208 0-2.79-1.488-3.844-5.394-5.704l-2.046-.93c-6.2-2.914-9.796-5.952-9.796-11.656 0-6.944 4.836-11.036 13.144-11.036 3.41 0 7.13.31 9.982 1.116l.31 9.362h-1.054l-6.758-9.052a6.942 6.942 0 0 0-2.17-.372c-3.348 0-4.836 1.922-4.836 4.712 0 3.038 1.426 4.03 5.58 5.952l1.922.868zm14.376-9.362h-4.836v-1.116l4.836-1.24v-6.696l11.284-1.798v8.494h7.502v2.356h-7.502v22.568c0 3.472 1.054 4.898 4.774 4.898 1.178 0 2.356-.124 3.1-.31v1.054c-1.984 2.108-5.394 4.092-9.424 4.092-6.448 0-9.734-2.976-9.734-10.292v-22.01zm29.38-16.864c3.224 0 6.014 2.542 6.014 5.828 0 3.286-2.79 5.766-6.014 5.766-3.348 0-5.952-2.48-5.952-5.766s2.604-5.828 5.952-5.828zm-9.176 15.872l13.578-1.984 1.55.124v32.426l3.472.992V137h-18.352v-1.054l3.534-.992V106.93l-3.782-1.488v-1.054zm34.216 46.5c-10.912 0-16.43-1.736-16.43-6.2 0-2.604 3.286-4.154 8.122-4.96v-.31c-3.472-.93-5.828-2.914-5.828-6.2 0-3.658 2.852-6.51 7.378-7.874v-.31c-4.526-1.86-7.564-5.89-7.564-10.788 0-7.688 5.89-12.028 14.632-12.028 2.542 0 4.836.558 6.696 1.178l10.912-1.364v5.58l-7.874-2.48v.372c3.286 2.356 4.898 5.394 4.898 9.052 0 7.626-6.014 11.656-14.632 11.656-2.17 0-4.03-.372-5.704-.682-.62.62-1.054 1.364-1.054 2.356 0 1.426.806 2.232 2.79 2.232h11.222c7.564 0 11.222 2.17 11.222 8.308 0 7.254-6.2 12.462-18.786 12.462zm4.34-36.456c0-8.556-1.426-11.036-4.03-11.036-2.542 0-3.968 2.48-3.968 11.098 0 8.06 1.426 10.54 3.968 10.54s4.03-2.604 4.03-10.602zm-4.154 35.278c6.944 0 10.354-2.666 10.354-6.634 0-2.17-.992-3.224-3.968-3.224h-13.454c-.558 1.054-.93 2.17-.93 3.844 0 3.658 1.984 6.014 7.998 6.014zm29.442-31.248l7.44-1.426v-4.526c0-6.882-1.488-9.114-5.27-9.114-.434 0-.806.062-1.24.124l-8.37 11.346H230.7l.248-10.54c3.224-.992 7.254-2.108 12.586-2.108 9.176 0 14.508 2.542 14.508 10.23v22.072l3.286.868v.868c-1.302.806-3.906 1.55-6.758 1.55-4.526 0-6.696-1.488-7.688-3.968h-.31c-1.922 2.604-4.65 4.092-8.928 4.092-5.456 0-9.176-3.41-9.176-9.3 0-5.704 3.534-8.804 10.726-10.168zm4.588 15.004c1.426 0 2.232-.434 2.852-1.178v-13.64l-2.294.186c-3.596.31-4.898 2.604-4.898 7.688 0 5.518 1.798 6.944 4.34 6.944zm21.258-28.086h-4.836v-1.116l4.836-1.24v-6.696l11.284-1.798v8.494h7.502v2.356h-7.502v22.568c0 3.472 1.054 4.898 4.774 4.898 1.178 0 2.356-.124 3.1-.31v1.054c-1.984 2.108-5.394 4.092-9.424 4.092-6.448 0-9.734-2.976-9.734-10.292v-22.01zm29.38-16.864c3.224 0 6.014 2.542 6.014 5.828 0 3.286-2.79 5.766-6.014 5.766-3.348 0-5.952-2.48-5.952-5.766s2.604-5.828 5.952-5.828zm-9.176 15.872l13.578-1.984 1.55.124v32.426l3.472.992V137h-18.352v-1.054l3.534-.992V106.93l-3.782-1.488v-1.054zm53.374-.31l-3.906 2.542L324.668 137h-6.82l-11.966-31.372-2.852-1.55v-1.054h19.158v1.054l-3.906 1.488 7.874 22.134h.31l7.068-21.08-4.774-2.542v-1.054h9.858v1.054zm32.17 14.756h-20.336c.434 8.37 3.1 13.516 11.78 13.516 2.852 0 5.27-.372 7.564-1.364v.992c-1.922 2.914-6.634 5.952-13.392 5.952-11.47 0-17.36-6.944-17.36-18.042 0-10.85 6.448-17.608 16.864-17.608 10.478 0 14.88 5.58 14.88 15.686v.868zm-15.128-15.376c-3.224 0-5.208 4.34-5.208 14.136l9.61-.434c0-10.664-1.426-13.702-4.402-13.702zM158.982 143.516c3.224 0 6.014 2.542 6.014 5.828 0 3.286-2.79 5.766-6.014 5.766-3.348 0-5.952-2.48-5.952-5.766s2.604-5.828 5.952-5.828zm-5.394 18.414l-3.782-1.488v-1.054l13.578-1.984 1.55.124v34.1c0 8.742-4.464 13.888-13.95 13.888-2.17 0-4.96-.31-6.82-.868l-.186-8.804h1.054l5.022 8.618c2.108-.124 3.534-1.86 3.534-6.324V161.93zm31.722 31c-10.354 0-17.422-7.006-17.422-18.042 0-10.912 6.944-17.67 17.36-17.67s17.484 6.758 17.484 17.732c0 11.036-6.944 17.98-17.422 17.98zm0-34.596c-3.41 0-5.208 3.286-5.208 16.616 0 13.392 1.798 16.864 5.27 16.864 3.41 0 5.146-3.534 5.146-16.926 0-13.33-1.674-16.554-5.208-16.554zm21.244 3.596l-3.72-1.488v-1.054l13.578-1.984 1.488.124v25.668c0 3.782 1.612 4.836 4.34 4.836 1.55 0 2.914-.434 4.216-.992v-25.11l-3.72-1.488v-1.054l13.578-1.984 1.364.124v30.566l3.658 1.488v1.054l-13.392 2.108-1.364-.124v-4.34h-.372c-2.542 2.542-5.952 4.588-10.168 4.588-6.51 0-9.486-3.844-9.486-9.672V161.93zm35.38-2.542l13.702-1.984 1.116.124v9.672h.31c1.736-7.378 4.588-10.168 8.432-10.168.62 0 1.302.062 1.674.248v10.23c-.62-.186-1.736-.248-2.79-.248-3.1 0-5.394.31-7.378 1.116v21.638l4.588.93V192H242.12v-1.054l3.534-.93V161.93l-3.72-1.488v-1.054zm25.584 31.558l3.534-.992V161.93l-3.72-1.488v-1.054l13.516-1.984 1.364.124v4.34h.372c2.914-2.976 7.254-4.65 11.532-4.65 5.89 0 8.494 2.79 8.494 8.99v23.746l3.534.992V192h-17.98v-1.054l3.162-.806v-23.312c0-3.348-1.488-4.836-4.402-4.836a9.398 9.398 0 0 0-4.526 1.116v27.032l3.1.806V192h-17.98v-1.054zm49.764-17.484l7.44-1.426v-4.526c0-6.882-1.488-9.114-5.27-9.114-.434 0-.806.062-1.24.124l-8.37 11.346h-1.054l.248-10.54c3.224-.992 7.254-2.108 12.586-2.108 9.176 0 14.508 2.542 14.508 10.23v22.072l3.286.868v.868c-1.302.806-3.906 1.55-6.758 1.55-4.526 0-6.696-1.488-7.688-3.968h-.31c-1.922 2.604-4.65 4.092-8.928 4.092-5.456 0-9.176-3.41-9.176-9.3 0-5.704 3.534-8.804 10.726-10.168zm4.588 15.004c1.426 0 2.232-.434 2.852-1.178v-13.64l-2.294.186c-3.596.31-4.898 2.604-4.898 7.688 0 5.518 1.798 6.944 4.34 6.944zm17.834-43.462l13.764-1.984 1.364.186v46.748l3.534.992V192h-18.414v-1.054l3.534-.992v-42.47l-3.782-1.426v-1.054zm28.064-1.488c3.224 0 6.014 2.542 6.014 5.828 0 3.286-2.79 5.766-6.014 5.766-3.348 0-5.952-2.48-5.952-5.766s2.604-5.828 5.952-5.828zm-9.176 15.872l13.578-1.984 1.55.124v32.426l3.472.992V192H358.84v-1.054l3.534-.992V161.93l-3.782-1.488v-1.054zm36 10.354c6.386 2.976 9.734 5.642 9.734 11.842 0 7.006-4.898 11.222-13.95 11.222-4.092 0-8.308-.496-11.594-1.736l-.372-10.044h1.054l8.866 10.354c.62.186 1.302.31 1.86.31 3.782 0 5.518-2.046 5.518-5.208 0-2.79-1.488-3.844-5.394-5.704l-2.046-.93c-6.2-2.914-9.796-5.952-9.796-11.656 0-6.944 4.836-11.036 13.144-11.036 3.41 0 7.13.31 9.982 1.116l.31 9.362h-1.054l-6.758-9.052a6.942 6.942 0 0 0-2.17-.372c-3.348 0-4.836 1.922-4.836 4.712 0 3.038 1.426 4.03 5.58 5.952l1.922.868zm10.828 21.204l3.534-.93V161.93l-3.72-1.488v-1.054l13.454-1.984 1.364.124v4.464h.372c2.914-2.976 6.138-4.774 10.54-4.774 3.906 0 6.324 1.24 7.626 4.836h.248c3.038-3.1 6.448-4.836 10.85-4.836 5.58 0 8.618 2.852 8.618 9.052v23.746l3.596.93V192h-17.484v-1.054l2.79-.93v-23.56c0-3.1-1.426-4.34-4.216-4.34-1.364 0-2.728.434-3.844 1.054v26.846l2.79.93V192h-16.492v-1.054l2.852-.93v-23.56c0-3.1-1.24-4.34-4.154-4.34-1.55 0-2.79.496-3.906 1.116v26.784l2.728.93V192H405.42v-1.054z" fill="#121212"/></g></svg>