<?xml version="1.0" encoding="UTF-8"?>
<svg width="340px" height="68px" viewBox="0 0 340 68" version="1.1" xmlns="http://www.w3.org/2000/svg" xmlns:xlink="http://www.w3.org/1999/xlink">
    <!-- Generator: Sketch 52.5 (67469) - http://www.bohemiancoding.com/sketch -->
    <title>support-ui</title>
    <desc>Created with Sketch.</desc>
    <g id="Page-1" stroke="none" stroke-width="1" fill="none" fill-rule="evenodd">
        <g id="Artboard" transform="translate(-454.000000, -427.000000)" fill="#121212">
            <path d="M472.162,455.947 C479.063,459.163 482.681,462.044 482.681,468.744 C482.681,476.315 477.388,480.871 467.606,480.871 C463.184,480.871 458.628,480.335 455.077,478.995 L454.675,468.141 L455.814,468.141 L465.395,479.33 C466.065,479.531 466.802,479.665 467.405,479.665 C471.492,479.665 473.368,477.454 473.368,474.037 C473.368,471.022 471.76,469.883 467.539,467.873 L465.328,466.868 C458.628,463.719 454.742,460.436 454.742,454.272 C454.742,446.768 459.968,442.346 468.946,442.346 C472.631,442.346 476.651,442.681 479.733,443.552 L480.068,453.669 L478.929,453.669 L471.626,443.887 C470.822,443.619 470.018,443.485 469.281,443.485 C465.663,443.485 464.055,445.562 464.055,448.577 C464.055,451.86 465.596,452.932 470.085,455.009 L472.162,455.947 Z M488.51,447.505 L484.49,445.897 L484.49,444.758 L499.163,442.614 L500.771,442.748 L500.771,470.486 C500.771,474.573 502.513,475.712 505.461,475.712 C507.136,475.712 508.61,475.243 510.017,474.64 L510.017,447.505 L505.997,445.897 L505.997,444.758 L520.67,442.614 L522.144,442.748 L522.144,475.779 L526.097,477.387 L526.097,478.526 L511.625,480.804 L510.151,480.67 L510.151,475.98 L509.749,475.98 C507.002,478.727 503.317,480.938 498.761,480.938 C491.726,480.938 488.51,476.784 488.51,470.486 L488.51,447.505 Z M567.369,460.57 C567.369,474.975 559.463,480.871 550.284,480.871 C547.537,480.871 545.192,480.469 544.12,480.067 L544.12,492.261 L548.475,493.199 L548.475,494.338 L528.04,494.338 L528.04,493.199 L531.859,492.261 L531.859,447.505 L527.839,445.897 L527.839,444.758 L542.646,442.614 L544.053,442.748 L544.053,446.969 L544.455,446.969 C546.331,444.758 549.815,442.413 554.773,442.413 C561.808,442.413 567.369,447.237 567.369,460.57 Z M554.572,461.91 C554.572,450.721 552.16,447.505 548.006,447.505 C546.465,447.505 545.125,447.84 544.12,448.242 L544.12,477.856 C544.991,478.526 546.13,479.129 547.805,479.129 C552.026,479.129 554.572,474.774 554.572,461.91 Z M608.976,460.57 C608.976,474.975 601.07,480.871 591.891,480.871 C589.144,480.871 586.799,480.469 585.727,480.067 L585.727,492.261 L590.082,493.199 L590.082,494.338 L569.647,494.338 L569.647,493.199 L573.466,492.261 L573.466,447.505 L569.446,445.897 L569.446,444.758 L584.253,442.614 L585.66,442.748 L585.66,446.969 L586.062,446.969 C587.938,444.758 591.422,442.413 596.38,442.413 C603.415,442.413 608.976,447.237 608.976,460.57 Z M596.179,461.91 C596.179,450.721 593.767,447.505 589.613,447.505 C588.072,447.505 586.732,447.84 585.727,448.242 L585.727,477.856 C586.598,478.526 587.737,479.129 589.412,479.129 C593.633,479.129 596.179,474.774 596.179,461.91 Z M630.215,481.005 C619.026,481.005 611.388,473.434 611.388,461.508 C611.388,449.716 618.892,442.413 630.148,442.413 C641.404,442.413 649.042,449.716 649.042,461.575 C649.042,473.501 641.538,481.005 630.215,481.005 Z M630.215,443.619 C626.53,443.619 624.587,447.17 624.587,461.575 C624.587,476.047 626.53,479.799 630.282,479.799 C633.967,479.799 635.843,475.98 635.843,461.508 C635.843,447.103 634.034,443.619 630.215,443.619 Z M650.918,444.758 L665.725,442.614 L666.931,442.748 L666.931,453.2 L667.266,453.2 C669.142,445.227 672.224,442.212 676.378,442.212 C677.048,442.212 677.785,442.279 678.187,442.48 L678.187,453.535 C677.517,453.334 676.311,453.267 675.172,453.267 C671.822,453.267 669.343,453.602 667.199,454.473 L667.199,477.856 L672.157,478.861 L672.157,480 L651.119,480 L651.119,478.861 L654.938,477.856 L654.938,447.505 L650.918,445.897 L650.918,444.758 Z M684.485,445.83 L679.259,445.83 L679.259,444.624 L684.485,443.284 L684.485,436.048 L696.679,434.105 L696.679,443.284 L704.786,443.284 L704.786,445.83 L696.679,445.83 L696.679,470.218 C696.679,473.97 697.818,475.511 701.838,475.511 C703.111,475.511 704.384,475.377 705.188,475.176 L705.188,476.315 C703.044,478.593 699.359,480.737 695.004,480.737 C688.036,480.737 684.485,477.521 684.485,469.615 L684.485,445.83 Z M708.27,460.972 L708.27,458.962 L727.7,458.962 L727.7,460.972 L708.27,460.972 Z M733.864,447.505 L729.844,445.897 L729.844,444.758 L744.517,442.614 L746.125,442.748 L746.125,470.486 C746.125,474.573 747.867,475.712 750.815,475.712 C752.49,475.712 753.964,475.243 755.371,474.64 L755.371,447.505 L751.351,445.897 L751.351,444.758 L766.024,442.614 L767.498,442.748 L767.498,475.779 L771.451,477.387 L771.451,478.526 L756.979,480.804 L755.505,480.67 L755.505,475.98 L755.103,475.98 C752.356,478.727 748.671,480.938 744.115,480.938 C737.08,480.938 733.864,476.784 733.864,470.486 L733.864,447.505 Z M783.31,427.606 C786.794,427.606 789.809,430.353 789.809,433.904 C789.809,437.455 786.794,440.135 783.31,440.135 C779.692,440.135 776.878,437.455 776.878,433.904 C776.878,430.353 779.692,427.606 783.31,427.606 Z M773.394,444.758 L788.067,442.614 L789.742,442.748 L789.742,477.789 L793.494,478.861 L793.494,480 L773.662,480 L773.662,478.861 L777.481,477.789 L777.481,447.505 L773.394,445.897 L773.394,444.758 Z" id="support-ui"></path>
        </g>
    </g>
</svg>