<svg class="svg-newsletters" xmlns="http://www.w3.org/2000/svg" width="357" height="158" viewBox="0 0 357 158"><defs><path id="a" d="M0 0h375v169H0z"/></defs><g transform="translate(0 -11)" fill="none" fill-rule="evenodd"><mask id="b" fill="#fff"><use href="#a"/></mask><path d="M370 168.5a184.5 184.5 0 0 0-365 .1h365z" fill="#FFE500" mask="url(#b)"/><g mask="url(#b)"><path d="M128.6 17l95.2 22.7L143 97.4A25 25 0 0 1 121 101L26.2 71l83.6-50.8a25 25 0 0 1 18.8-3z" fill="#00B2FF"/><path fill="#F1F8FC" d="M31.7 47.8l179.8-28.5L234 161.6 54.2 190z"/><path d="M51.3 76a.7.7 0 0 0 .4-.2l1.2-2.7h.2l.3 2.3a5 5 0 0 1-2.2.8c-2.3.3-4-.5-4.5-3.3-.5-3 1.3-4.2 3.3-4.6h2.2l.4 2.3h-.2l-1.9-2a1 1 0 0 0-.4 0c-1 0-1.5 1.2-1 3.8.4 2.8 1 3.7 2.2 3.6zm5.7-.7c-1.8.3-3.2-.7-3.5-2.6-.3-1.9.7-3.2 2.5-3.5 1.8-.2 3.1.7 3.4 2.6.3 1.8-.7 3.2-2.4 3.5zm-1-5.9c-.5.1-.7.7-.4 3 .4 2.2.8 2.8 1.4 2.7.5-.1.7-.7.4-3-.4-2.3-.8-2.8-1.4-2.7zm4.2 5l.6-.2-.8-4.8-.7-.1V69l2.3-.7h.2l.1.7c.5-.6 1.2-1 1.9-1 1-.3 1.5.2 1.7 1.2l.6 4h.6v.3l-3 .5v-.2l.5-.2-.6-4c-.1-.6-.4-.8-.9-.7a1.6 1.6 0 0 0-.7.3l.7 4.6h.5v.2l-3 .5v-.2zm6.7-6.3h-.8V68l.7-.3-.1-1 1.8-.7.3 1.4 1.2-.2v.4l-1.2.2.6 3.8c.1.6.3.8 1 .7l.5-.2v.2a2.3 2.3 0 0 1-1.5 1c-1 .1-1.7-.3-1.9-1.5l-.6-3.7zm3.6-.8l2.2-.7h.2l.3 1.6c.1-1.3.5-1.8 1.2-2a.7.7 0 0 1 .3 0L75 68a2 2 0 0 0-.5 0l-1.2.4.5 3.7h.8v.2l-3.2.5v-.1l.5-.3-.7-4.7-.7-.2v-.2zm5.6-3.6c.5-.1 1 .2 1.2.8 0 .6-.3 1-.9 1.1a1 1 0 0 1-.3-2zm-1.1 3l2.2-.8h.3l.9 5.5h.6v.2l-3.1.5V72l.5-.2-.7-4.8-.7-.1v-.2zm7.3-1.6c1.1-.2 2.1.4 2.5 2.5.3 2.2-.8 3.4-2.7 3.7-1 .1-2 0-2.5-.1L78.5 64l-.7-.1v-.2L80 63h.2l.5 3h.1c.2-.3.8-.8 1.5-1zm-.1 6c.6-.1 1-.9.6-3-.3-1.7-.7-2.2-1.4-2a1.6 1.6 0 0 0-.6.2l.8 4.6a.9.9 0 0 0 .6.2zm3.1-5.7l-.6-.1V65l2.2-.7h.2l.7 4.3c.1.6.4.8.9.7.3 0 .5-.1.7-.3l-.7-4.2-.7-.2v-.2l2.3-.7h.2l.8 5.2.7.2v.1l-2.2.8h-.2l-.2-.8c-.4.5-1 1-1.6 1-1.1.3-1.7-.3-1.9-1.3l-.6-3.6zm7-1.4l-.9.2V64l.8-.4-.2-1L94 62l.2 1.3 1.3-.2v.4l-1.2.2.6 3.9c0 .6.3.8 1 .7l.4-.2v.2a2.3 2.3 0 0 1-1.4 1c-1.1.1-1.8-.3-2-1.5l-.5-3.8zm4.6-3.6c.6-.1 1.1.2 1.2.8.1.6-.3 1-.8 1.1a1 1 0 0 1-.3-2zm-1 3l2.2-.8h.2l.9 5.5h.6v.2l-3 .5-.1-.2.6-.2-.8-4.8-.7-.1v-.2zM103 68c-1.7.3-3.1-.7-3.4-2.6-.3-1.9.7-3.2 2.4-3.5 1.8-.2 3.2.7 3.5 2.6.3 1.8-.7 3.2-2.5 3.5zm-1-5.9c-.5.1-.7.7-.3 3 .3 2.2.7 2.8 1.3 2.7.6-.1.8-.8.4-3-.3-2.3-.7-2.8-1.3-2.7zm4.2 5l.6-.2-.7-4.8-.7-.1v-.2l2.2-.7h.2l.1.7h.1c.4-.6 1.1-1 1.8-1.1 1-.2 1.5.2 1.7 1.3l.6 4h.7v.3l-3 .4v-.1l.4-.3-.6-3.9c0-.6-.4-.8-.9-.7a1.6 1.6 0 0 0-.7.3l.7 4.6h.6v.2l-3 .5v-.2zm9.1-5.1c1.2.3 1.8.7 2 1.7.2 1.2-.6 2-2 2.3-.8.1-1.5.2-2 0l-.4-1.7h.2l1.7 1.5h.4c.6 0 .8-.5.7-1 0-.5-.3-.6-1-.8l-.4-.1c-1.1-.3-1.8-.8-2-1.7-.1-1.2.6-2 2-2.2.5-.1 1.2-.2 1.7-.1l.3 1.6h-.2L115 60a1.2 1.2 0 0 0-.3 0c-.6.1-.8.5-.7 1 0 .5.3.6 1 .8l.4.1z" fill="#005689"/><path d="M50.3 59l.8-.7-1-6.6h-.7l-1.2 2.4H48l-.2-2.3 6.7-1L55 53h-.2l-1.9-1.8-.6.1 1 6.7 1 .3v.2l-4 .6V59zm6.2-1.3l-1.2-7.5-.7-.1V50l2.3-.9h.2l.6 3.5a3 3 0 0 1 2-1.1c1-.2 1.5.3 1.7 1.4l.6 3.9.6.2v.2l-3 .5-.1-.2.5-.4-.6-4c-.1-.5-.4-.7-.9-.6-.3 0-.6.2-.8.4l.7 4.4.6.2v.3l-3 .4V58l.5-.4zM64 54c.2 1.3 1 2 2.2 1.9.6-.1 1-.5 1.4-.7v.2a2.9 2.9 0 0 1-2 1.4c-2 .3-3.2-.6-3.5-2.6-.3-1.8.6-3.2 2.4-3.5 1.7-.3 2.7.4 3 2.7l-3.5.6zm0-.2l1.6-.4c-.2-1.6-.7-2.5-1.2-2.4-.5 0-.7 1.3-.5 2.8zm-24 10c-.6-3.3 1.3-4.8 3.7-5.1 1-.2 2-.2 2.5 0l.4 2.2h-.2l-1.7-2h-1c-1.1.3-1.5 1.8-1.1 4.2.4 2.9 1.1 4.1 2.3 4a1.8 1.8 0 0 0 .6-.3l-.5-3-.8-.4v-.3l3.6-.5v.2l-.7.6.5 3a8 8 0 0 1-2.7 1c-2.6.3-4.5-.6-5-3.6zm7.3-2.8v-.2l2.4-.8h.3l.8 4.9c0 .6.4.7.8.6.3 0 .6-.2.8-.5l-.7-4.4-.8-.2v-.1l2.4-.9h.2l1 5.6.6.2v.2l-2.3.7h-.2l-.2-.8a2.7 2.7 0 0 1-1.7 1.1c-1.2.2-1.9-.4-2-1.5l-.6-3.7-.8-.2zM63 58h.2l.3 1.8c0-1.4.6-2 1.3-2h.3l.3 1.8h-.5a3 3 0 0 0-1.3.5l.6 3.6.6.2v.2l-3.2.5v-.2l.5-.4-.8-4.9h-.6v-.2l2.3-.9zm6.3-.8l-.3-2h-.7V55l2.4-.9h.2l1.3 8.2.7.2v.2l-2.4.7-.2-.7c-.4.6-1 .9-1.6 1-1.3.2-2.4-.7-2.7-2.8-.4-2.2.6-3.5 2.2-3.8h1.1zm.9 5.2l-.8-4.9h-.7c-.7 0-1 1.1-.6 3 .2 1.6.7 2.4 1.5 2.2.3 0 .5 0 .6-.2v-.1zm4.6-6.2h.3l.9 5.7.6.2v.2l-3.2.5v-.2l.5-.4-.7-4.9-.8-.1V57l2.4-.9zm0-1.6c.1.6-.3 1.1-.9 1.2a1 1 0 0 1-1.2-.9 1 1 0 0 1 .9-1.2 1 1 0 0 1 1.2.9zm8.6 6l-.8-4.8-.7-.1v-.3l2.4-.8h.2v.7h.2a3.2 3.2 0 0 1 2-1.1c1-.2 1.5.2 1.7 1.4l.7 4.1.6.2v.3l-3.2.5v-.2l.6-.4-.7-4.1c0-.6-.4-.8-.9-.7-.3 0-.6.1-.8.3l.8 4.7.6.3v.2l-3.2.5V61l.5-.4zm-4.1-2.4l-.1-.9c-.2-1.2-.5-1.5-1.3-1.4h-.2l-1 2-.2.1-.3-1.7a6.8 6.8 0 0 1 2.1-.7c1.6-.3 2.7 0 2.9 1.4l.6 4h.7v.2c-.4.3-.8.4-1.2.5-.8.1-1.2-.1-1.5-.5-.3.5-.7.9-1.5 1-1 .1-1.7-.4-1.9-1.5-.1-1 .4-1.6 1.6-2l1.3-.5zm.4 2.7l-.3-2.4h-.4c-.6.2-.8.7-.7 1.6.2 1 .5 1.2 1 1.1.2 0 .4-.1.4-.3zm-21.6.6l-.1-.8c-.2-1.2-.5-1.6-1.3-1.5h-.2l-1 2.2h-.2l-.3-1.7a7 7 0 0 1 2.2-.8c1.6-.2 2.6 0 2.8 1.5l.7 4h.6v.2c-.4.2-.8.4-1.2.4-.8.2-1.2 0-1.5-.5-.3.6-.7 1-1.5 1-1 .2-1.7-.3-1.9-1.4-.1-1 .4-1.7 1.7-2.1l1.2-.5zm.5 2.8l-.4-2.5-.4.1c-.6.2-.8.6-.7 1.6.2 1 .5 1.1 1 1 .2 0 .4 0 .5-.2z" fill="#121212"/><path d="M26.2 71l94.7 30a25 25 0 0 0 22.1-3.6l80.8-57.7 18.8 118.5L45 189.5 26.2 71z" fill="#90DCFF"/><path d="M218.5 143l15.4-2.5m-14.7 6.5l15.4-2.4m-14.8 6.6l15.5-2.5m-14.9 6.6l15.5-2.5" stroke="#00B2FF" stroke-linecap="square" stroke-width=".5"/></g><g mask="url(#b)"><path d="M265.3 42.4L353 86l-91.7 38a25 25 0 0 1-22.3-1.5L153.5 72l92.9-30.8a25 25 0 0 1 19 1.3z" fill="#E05E00"/><path fill="#FEF9F5" d="M164 50.6l181.6 12.7-10 143.6L154 194.2z"/><path d="M175.3 82.5c-.9 0-1.8-.3-2.3-.5v-2.1h.2l1.5 2.3.6.1c.9 0 1.4-.4 1.4-1.1 0-.8-.3-1.2-1.4-1.7l-.4-.2c-1.1-.6-1.7-1.3-1.6-2.5 0-1.3 1-2.3 3-2.2 1 0 1.5.3 2 .5v2h-.2l-1.4-2.2a1.3 1.3 0 0 0-.5-.1c-.8 0-1.3.4-1.3 1.1 0 .7.3 1 1.2 1.5l.4.2c1.3.6 2 1 2 2.6-.1 1.6-1.3 2.4-3.2 2.3zm4.3-5l-.6-.3V77l2.4-.1h.2l-.3 4.4c0 .6.2.8.7.9.3 0 .5 0 .7-.2l.3-4.3-.6-.3v-.1l2.4-.2h.2l-.4 5.3.6.3v.1l-2.3.2h-.2v-.7c-.5.4-1.1.7-1.8.6-1.1 0-1.6-.8-1.5-1.8l.2-3.6zm10.4 0c1 0 2 .8 1.8 3-.2 2.2-1.5 3-3.4 3-1-.1-2-.4-2.5-.7l.6-7.3-.7-.3V75l2.4-.1h.2l-.2 3.1c.4-.3 1-.6 1.8-.6zm-1.5 5.7c.6 0 1-.6 1.2-2.7.1-1.7-.2-2.3-.9-2.3a1.6 1.6 0 0 0-.6 0L188 83a.9.9 0 0 0 .6.2zM195 80c1 .6 1.6 1.1 1.5 2.2-.1 1.2-1 1.8-2.5 1.7-.7 0-1.5-.2-2-.4v-1.7h.2l1.4 1.9h.3c.7 0 1-.3 1-.8s-.2-.7-.8-1l-.3-.2c-1-.6-1.6-1.2-1.6-2.1.1-1.2 1-1.9 2.4-1.8.6 0 1.2.2 1.7.4v1.6h-.2l-1-1.7a1.2 1.2 0 0 0-.5 0c-.5-.1-.8.2-.8.7 0 .5.2.7.8 1l.4.2zm4.6 4.3c-1.9-.1-2.7-1.4-2.6-3.2.1-1.9 1.4-3 3.3-2.8a7 7 0 0 1 1.8.3l-.1 2h-.2l-1.3-2.1c-1 0-1.4.7-1.6 2.3 0 1.7.4 2.6 1.8 2.6l1.1-.1v.2c-.4.5-1.1.9-2.2.8zm3-5.5l2.4-.2h.2l-.1 1.7c.4-1.2 1-1.7 1.6-1.6a.7.7 0 0 1 .3 0l-.2 1.8a2 2 0 0 0-.4-.1l-1.3.1-.3 3.7.8.2v.2l-3.3-.2V84l.6-.1.3-4.8-.6-.3v-.2zm6.3-2.3c.6 0 1 .5 1 1 0 .6-.6 1-1.1 1a1 1 0 0 1-1-1c0-.6.6-1 1.1-1zm-1.7 2.6l2.3-.2h.3l-.4 5.6.6.2v.2l-3.2-.2v-.2l.7-.1.3-4.8-.6-.3V79zm9.5 3.2c-.2 2.3-1.5 3.1-3 3l-1-.2v2l.6.1v.2l-3.2-.2v-.2h.6l.5-7.2-.6-.3v-.2l2.4-.1h.2v.7c.3-.3 1-.7 1.7-.6 1.1 0 2 .9 1.8 3zm-2 0c0-1.7-.3-2.2-1-2.3a1.7 1.7 0 0 0-.6 0l-.3 4.8.6.2c.7 0 1.1-.6 1.2-2.6zM218 80h-.9v-.2l.9-.2v-1l2-.2v1.4h1.2v.5L220 80l-.3 3.8c0 .6.2.9.8 1h.5a2.3 2.3 0 0 1-1.6.7c-1.1-.1-1.7-.7-1.6-1.9l.3-3.8zm5.4-2.5c.5 0 1 .5 1 1-.1.6-.6 1-1.2 1a1 1 0 0 1-1-1c.1-.6.6-1 1.2-1zm-1.8 2.6l2.4-.2h.2l-.4 5.6.6.2v.2l-3.1-.2v-.2l.6-.1.3-4.8-.6-.3V80zm6 6.2c-1.7-.1-2.8-1.4-2.7-3.3.1-1.9 1.4-3 3.2-2.8 1.8.1 2.9 1.4 2.8 3.2-.2 2-1.4 3-3.2 2.9zm.5-6c-.6 0-1 .6-1.1 2.9-.2 2.3.1 2.9.7 3 .6 0 1-.6 1-3 .2-2.2 0-2.8-.6-2.8zm3 5.9l.5-.1.4-4.8-.7-.3v-.2l2.4-.2h.2v.8c.6-.5 1.3-.7 2-.7 1 .1 1.5.6 1.4 1.7l-.3 4 .6.3v.1l-3-.2v-.2h.5l.3-4c0-.6-.2-.9-.7-1a1.6 1.6 0 0 0-.8.2l-.3 4.6.5.2v.2l-3.1-.2V86zm9.9-3c1 .6 1.6 1.1 1.5 2.2 0 1.2-1 1.9-2.5 1.7-.7 0-1.4-.1-2-.4l.1-1.7h.2l1.4 1.9h.3c.6.1 1-.2 1-.8 0-.4-.2-.6-.9-1l-.3-.2c-1-.6-1.6-1.1-1.5-2.1 0-1.2 1-1.8 2.3-1.7.6 0 1.3.1 1.7.3v1.6h-.2l-1-1.7a1.2 1.2 0 0 0-.4 0c-.6 0-.9.2-.9.7 0 .5.2.7.9 1l.3.3z" fill="#BD5318"/><path d="M179.7 65.6l.9-.4.5-6.7h-.7l-1.7 2h-.2l.3-2.4 6.8.5v2.3h-.3l-1.4-2.2h-.6l-.5 6.7.8.5v.2l-4-.3v-.2zm6.3.2l.5-7.5-.6-.4 2.3-.4h.3l-.3 3.6h.1a3 3 0 0 1 2.1-.7c1 .1 1.5.8 1.4 1.8l-.3 4 .5.3v.2l-3-.2v-.2l.5-.3.3-4c0-.6-.2-.8-.7-.9-.3 0-.6.1-.8.3l-.4 4.5.6.3v.2l-3.1-.2V66l.6-.3zm8-1.8c0 1.3.5 2.2 1.8 2.3.6 0 1.1-.2 1.5-.4v.3c-.6.6-1.5 1-2.4.9-2-.2-2.9-1.4-2.7-3.3 0-2 1.3-3 3-3 1.8.2 2.6 1.1 2.5 3.4L194 64zm0-.3h1.8c.1-1.5-.1-2.5-.6-2.6-.6 0-1 1.1-1.2 2.6zm-25.6 4.4c.3-3.3 2.5-4.3 4.8-4.1 1 0 2 .2 2.5.5l-.1 2.3h-.2l-1.3-2.3c-.2-.2-.4-.2-.8-.2-1.3-.1-2 1.3-2.1 3.7-.2 3 .2 4.3 1.3 4.4l.7-.1.2-3.1-.7-.5v-.3l3.7.3v.3l-.9.3-.2 3.1c-.6.2-1.7.3-2.8.3-2.6-.2-4.3-1.6-4-4.6zm7.9-1v-.2l2.5-.3h.3l-.4 5c0 .6.3.8.7.8.3 0 .7 0 .9-.3l.3-4.4-.7-.4v-.2l2.5-.2h.3l-.4 5.7.6.3v.2l-2.4.1h-.3v-.8a2.7 2.7 0 0 1-2 .7c-1-.1-1.6-.8-1.5-2l.2-3.7-.6-.4zm15.8.4h.2l-.1 2c.4-1.4 1-1.9 1.7-1.8h.3v2l-.6-.2a3 3 0 0 0-1.4.2l-.2 3.6.5.4v.2l-3.2-.2v-.2l.6-.3.4-5-.7-.2v-.2l2.5-.3zm6.4.6l.1-1.9-.7-.3v-.1l2.6-.3h.2l-.6 8.3.7.3v.2l-2.5.2h-.1v-.7a2.2 2.2 0 0 1-1.7.5c-1.4 0-2.3-1.1-2.1-3.3.1-2.2 1.3-3.3 3-3.1l1.1.2zm-.4 5.3l.4-4.9c-.2-.1-.3-.2-.7-.2-.7 0-1.1 1-1.3 2.8 0 1.6.2 2.5 1 2.5l.6-.1zm6-5h.2l-.4 5.8.5.4v.2l-3.2-.2v-.3l.7-.2.3-5-.7-.3v-.1l2.6-.3zm.3-1.5c0 .6-.6 1-1.1 1-.7-.1-1.1-.6-1-1.2 0-.6.5-1 1.1-1 .6 0 1 .6 1 1.2zm7 7.8l.4-5-.7-.2v-.2l2.5-.3h.2v.7a3.2 3.2 0 0 1 2.2-.6c1 0 1.5.6 1.4 1.8l-.3 4.2.6.3v.3l-3.2-.2v-.3l.6-.2.3-4.2c0-.6-.2-.8-.7-.9-.3 0-.6 0-.9.2l-.3 4.7.5.4v.2l-3.2-.2V75l.6-.3zm-3.4-3.3v-.9c.1-1.2 0-1.6-.9-1.7h-.2l-1.5 1.8h-.2l.2-1.7a6.8 6.8 0 0 1 2.2-.3c1.7.1 2.6.7 2.5 2l-.3 4 .6.3v.1c-.4.2-.8.3-1.3.2-.8 0-1.1-.3-1.3-.8-.4.5-1 .7-1.7.7-1-.1-1.6-.8-1.5-1.9 0-1 .7-1.5 2-1.7l1.4-.1zm-.2 2.8l.2-2.5h-.4c-.7 0-1 .4-1 1.3 0 1 .2 1.3.7 1.3l.5-.1zm-21.2-4.3V69c.1-1.2-.1-1.6-.8-1.7h-.3l-1.5 1.8h-.2l.1-1.7a7 7 0 0 1 2.3-.3c1.7.1 2.6.7 2.5 2l-.3 4 .6.3v.1c-.4.2-.8.3-1.3.2-.8 0-1.1-.3-1.3-.8-.4.5-1 .7-1.7.7-1-.1-1.6-.8-1.5-1.9 0-1 .7-1.5 2-1.7l1.4-.1zm-.2 2.8l.2-2.5h-.5c-.6 0-.9.4-1 1.3 0 1 .3 1.3.8 1.3l.5-.1z" fill="#121212"/><path d="M153.5 71.9l85.5 50.5a25 25 0 0 0 22.3 1.6L353 85.9l-8.3 119.7-199.6-14L153.5 72z" fill="#F9B376"/></g></g></svg>
